{"glyphs":{"0":{"ha":676,"x_min":55,"x_max":621,"o":"m 329 -16 q 232 1 278 -16 l 232 1 q 129 76 170 24 l 129 76 q 63 228 80 138 l 63 228 q 56 290 57 258 l 56 290 q 55 313 55 301 l 55 313 l 55 327 q 140 604 55 491 l 140 604 q 346 716 224 716 l 346 716 q 552 617 478 716 l 552 617 q 621 374 621 524 l 621 374 q 536 97 621 210 l 536 97 q 329 -16 451 -16 l 329 -16 z m 508 318 q 470 551 508 451 l 470 551 q 326 678 421 678 l 326 678 q 203 578 245 678 l 203 578 q 168 382 168 497 l 168 382 q 207 150 168 250 l 207 150 q 350 22 256 22 l 350 22 q 473 122 431 22 l 473 122 q 508 318 508 203 l 508 318 z"},"1":{"ha":463,"x_min":21,"x_max":452,"o":"m 301 397 l 301 354 q 302 151 301 248 l 302 151 q 306 32 304 46 l 306 32 q 376 24 319 29 l 376 24 q 419 20 395 22 l 419 20 l 428 19 l 436 18 q 447 17 444 17 l 447 17 l 452 -4 q 355 -1 434 -3 l 355 -1 q 243 0 284 0 l 243 0 q 124 -1 201 0 l 124 -1 q 22 -4 41 -3 l 22 -4 l 26 17 q 102 24 33 17 l 102 24 q 152 29 136 27 l 152 29 q 186 32 177 31 l 186 32 q 190 163 189 61 l 190 163 q 191 335 191 240 l 191 335 l 191 446 q 190 514 191 482 l 190 514 q 186 635 189 606 l 186 635 q 106 626 159 634 l 106 626 l 85 623 l 64 620 q 28 614 37 615 l 28 614 l 21 635 q 141 671 44 641 l 141 671 q 227 699 172 681 l 227 699 l 271 713 q 313 726 296 721 l 313 726 q 305 590 309 685 l 305 590 q 301 397 301 485 l 301 397 z"},"2":{"ha":578,"x_min":-7,"x_max":510,"o":"m 486 206 l 510 211 q 501 137 508 189 l 501 137 l 497 114 l 494 91 l 488 44 q 476 -81 482 -6 l 476 -81 l 454 -74 q 449 -3 452 -34 l 449 -3 q 312 0 376 -1 l 312 0 l -7 0 q 136 107 79 60 l 136 107 q 211 175 174 139 l 211 175 q 358 458 358 319 l 358 458 q 302 624 358 566 l 302 624 q 195 672 256 672 l 195 672 q 102 646 132 672 l 102 646 q 89 581 97 626 l 89 581 q 83 546 86 564 l 83 546 q 79 524 80 532 l 79 524 l 55 519 q 76 773 76 651 l 76 773 l 99 766 q 106 702 102 726 l 106 702 q 155 712 132 709 l 155 712 q 216 716 180 716 l 216 716 q 407 661 338 716 l 407 661 q 474 513 474 607 l 474 513 q 294 192 474 367 l 294 192 q 145 71 245 143 l 145 71 l 145 69 l 249 72 q 376 84 314 74 l 376 84 q 460 109 443 95 l 460 109 q 474 156 467 131 l 474 156 q 486 206 483 186 l 486 206 z"},"3":{"ha":581,"x_min":58,"x_max":513,"o":"m 106 542 l 82 536 q 95 654 88 570 l 95 654 l 97 687 l 100 719 q 104 772 103 757 l 104 772 l 125 765 q 127 704 125 750 l 127 704 q 279 700 168 700 l 279 700 l 505 700 q 451 639 486 678 l 451 639 q 420 605 438 625 l 420 605 l 388 570 q 285 454 307 481 l 285 454 q 513 251 513 393 l 513 251 q 424 66 513 151 l 424 66 q 194 -16 336 -16 l 194 -16 l 172 -16 q 148 -15 158 -16 l 148 -15 q 95 -5 119 -13 l 95 -5 q 86 -26 90 -14 l 86 -26 l 83 -38 l 81 -49 l 58 -52 q 70 60 65 -16 l 70 60 q 74 178 75 131 l 74 178 l 97 168 q 98 121 96 144 l 98 121 l 99 101 l 101 82 q 166 34 123 48 l 166 34 q 237 23 197 23 l 237 23 q 355 73 305 23 l 355 73 q 404 191 404 123 l 404 191 q 180 394 404 342 l 180 394 q 215 432 191 406 l 215 432 q 271 493 242 461 l 271 493 q 382 622 346 577 l 382 622 l 234 622 q 124 609 161 622 l 124 609 q 106 542 115 589 l 106 542 z"},"4":{"ha":636,"x_min":-14,"x_max":609,"o":"m 358 210 l -14 210 q 223 477 50 279 l 223 477 l 257 515 l 291 554 q 355 627 330 598 l 355 627 q 465 751 426 708 l 465 751 q 459 574 461 725 l 459 574 q 456 319 456 435 l 456 319 l 456 274 q 516 279 485 274 l 516 279 q 562 291 550 284 l 562 291 q 576 346 568 308 l 576 346 l 579 361 l 582 374 q 586 394 584 388 l 586 394 l 609 396 q 607 379 608 390 l 607 379 l 605 370 l 604 360 q 597 307 599 331 l 597 307 q 590 135 588 230 l 590 135 l 567 140 q 564 177 566 158 l 564 177 q 560 205 562 198 l 560 205 q 456 210 532 210 l 456 210 l 456 177 q 461 31 456 68 l 461 31 q 514 24 472 29 l 514 24 q 569 17 552 19 l 569 17 l 574 -4 q 493 -1 558 -3 l 493 -1 q 391 0 431 0 l 391 0 q 295 -1 360 0 l 295 -1 q 204 -4 222 -3 l 204 -4 l 208 17 q 276 24 219 19 l 276 24 q 353 31 333 30 l 353 31 q 357 96 355 52 l 357 96 q 358 174 358 138 l 358 174 l 358 210 z m 358 274 l 358 574 q 308 517 343 556 l 308 517 l 292 500 l 276 482 q 242 443 257 459 l 242 443 q 96 274 152 341 l 96 274 l 358 274 z"},"5":{"ha":576,"x_min":40,"x_max":496,"o":"m 470 771 l 493 774 q 459 521 469 653 l 459 521 l 436 528 l 436 549 l 437 570 q 436 612 437 596 l 436 612 q 264 621 396 621 l 264 621 l 160 621 l 141 499 q 395 419 311 472 l 395 419 q 496 260 496 355 l 496 260 q 406 69 496 151 l 406 69 q 183 -16 313 -16 l 183 -16 q 75 -6 113 -16 l 75 -6 q 62 -48 70 -18 l 62 -48 l 40 -52 q 52 63 47 -12 l 52 63 q 56 177 56 129 l 56 177 l 79 168 q 83 80 79 112 l 83 80 q 209 22 123 22 l 209 22 q 328 66 278 22 l 328 66 q 385 199 385 115 l 385 199 q 352 298 385 252 l 352 298 q 323 330 339 315 l 323 330 q 297 351 311 342 l 297 351 q 97 421 229 398 l 97 421 l 126 700 l 266 700 q 409 706 362 700 l 409 706 q 439 711 427 708 l 439 711 q 454 717 447 714 l 454 717 q 470 771 465 753 l 470 771 z"},"6":{"ha":631,"x_min":63,"x_max":569,"o":"m 414 745 l 468 747 q 277 544 351 654 l 277 544 q 178 251 178 398 l 178 251 q 225 77 178 140 l 225 77 q 328 22 266 22 l 328 22 q 421 61 387 22 l 421 61 q 456 176 456 102 l 456 176 q 403 322 456 268 l 403 322 q 268 378 352 373 l 268 378 l 282 401 q 472 378 392 417 l 472 378 q 569 217 569 331 l 569 217 q 500 61 569 130 l 500 61 q 303 -16 423 -16 l 303 -16 q 130 42 193 -16 l 130 42 q 63 219 63 104 l 63 219 q 162 504 63 360 l 162 504 q 414 745 255 640 l 414 745 z"},"7":{"ha":536,"x_min":49,"x_max":538,"o":"m 365 17 l 369 -4 q 205 0 295 0 l 205 0 q 56 -4 154 0 l 56 -4 l 62 17 q 112 24 87 20 l 112 24 q 153 32 143 29 l 153 32 q 217 175 166 69 l 217 175 q 308 356 267 280 l 308 356 q 393 516 353 439 l 393 516 q 443 611 439 602 l 443 611 l 333 611 q 228 610 269 611 l 228 610 q 97 594 116 607 l 97 594 q 84 547 91 577 l 84 547 l 78 522 l 75 510 l 73 499 l 49 491 q 76 774 71 651 l 76 774 l 99 769 q 102 708 99 735 l 102 708 q 321 700 129 700 l 321 700 q 538 701 498 700 l 538 701 q 465 547 529 678 l 465 547 q 414 441 434 483 l 414 441 q 367 335 386 380 l 367 335 q 296 146 327 238 l 296 146 q 265 32 268 62 l 265 32 q 288 29 272 31 l 288 29 l 302 26 l 317 24 q 365 17 357 18 l 365 17 z"},"8":{"ha":615,"x_min":55,"x_max":553,"o":"m 289 -16 q 109 42 174 -16 l 109 42 q 55 154 55 90 l 55 154 q 117 292 55 231 l 117 292 q 174 336 141 315 l 174 336 q 229 366 198 351 l 229 366 q 111 458 142 412 l 111 458 q 87 546 87 493 l 87 546 q 145 657 87 607 l 145 657 q 327 716 214 716 l 327 716 q 486 668 434 716 l 486 668 q 527 577 527 631 l 527 577 q 367 398 527 465 l 367 398 q 553 195 553 317 l 553 195 q 477 43 553 103 l 477 43 q 289 -16 402 -16 l 289 -16 z m 310 20 q 406 55 369 20 l 406 55 q 445 149 445 91 l 445 149 q 413 245 445 205 l 413 245 q 256 347 370 298 l 256 347 q 162 175 162 274 l 162 175 q 206 61 162 105 l 206 61 q 310 20 248 20 l 310 20 z m 329 416 q 425 560 425 459 l 425 560 q 383 655 425 623 l 383 655 q 303 681 350 681 l 303 681 q 215 650 249 681 l 215 650 q 183 575 183 620 l 183 575 q 230 476 183 517 l 230 476 q 277 443 249 459 l 277 443 l 303 429 l 329 416 z"},"9":{"ha":630,"x_min":57,"x_max":562,"o":"m 252 -40 l 197 -42 q 271 44 238 3 l 271 44 q 350 160 317 102 l 350 160 q 440 456 440 313 l 440 456 q 395 625 440 564 l 395 625 q 299 678 356 678 l 299 678 q 206 637 241 678 l 206 637 q 167 511 167 593 l 167 511 q 221 377 167 427 l 221 377 q 360 332 275 327 l 360 332 l 346 309 q 153 323 238 281 l 153 323 q 57 483 57 370 l 57 483 q 124 637 57 568 l 124 637 q 327 716 202 716 l 327 716 q 493 660 430 716 l 493 660 q 562 484 562 598 l 562 484 q 467 207 562 358 l 467 207 q 252 -40 384 77 l 252 -40 z"}," ":{"ha":250,"x_min":0,"x_max":0,"o":""},"!":{"ha":360,"x_min":108,"x_max":253,"o":"m 179 194 l 139 182 q 132 430 140 234 l 132 430 q 115 692 123 644 l 115 692 q 253 709 189 699 l 253 709 q 213 457 242 657 l 213 457 q 179 194 183 254 l 179 194 z m 221 -1 l 111 -15 l 108 92 l 215 105 l 221 -1 z"},"\"":{"ha":284,"x_min":25,"x_max":259,"o":"m 89 474 l 59 468 q 25 727 45 614 l 25 727 l 123 716 q 114 658 118 681 l 114 658 l 106 597 q 89 474 96 527 l 89 474 z m 225 474 l 194 468 q 160 727 180 614 l 160 727 l 259 716 q 250 658 254 681 l 250 658 l 242 597 q 225 474 232 527 l 225 474 z"},"#":{"ha":550,"x_min":35,"x_max":515,"o":"m 213 335 l 325 335 q 334 440 329 371 l 334 440 q 222 438 262 440 l 222 438 q 213 335 219 405 l 213 335 z m 35 274 l 43 335 l 161 335 q 169 436 166 382 l 169 436 q 41 425 114 433 l 41 425 l 49 486 l 172 486 l 175 534 q 178 582 177 564 l 178 582 q 182 658 181 634 l 182 658 l 250 663 q 227 486 239 595 l 227 486 l 336 486 l 339 534 q 342 582 341 564 l 342 582 q 346 658 345 634 l 346 658 l 414 663 q 391 486 403 595 l 391 486 l 515 486 l 507 435 q 386 440 440 440 l 386 440 q 377 335 383 407 l 377 335 l 510 335 l 502 284 q 374 289 448 289 l 374 289 q 368 179 370 238 l 368 179 q 364 90 365 124 l 364 90 l 296 86 q 309 179 301 119 l 309 179 q 321 289 313 217 l 321 289 q 210 286 270 289 l 210 286 l 207 232 l 204 178 q 200 90 201 117 l 200 90 l 132 86 q 156 284 143 154 l 156 284 q 35 274 79 279 l 35 274 z"},"$":{"ha":531,"x_min":42,"x_max":448,"o":"m 271 -155 l 225 -164 l 230 -124 l 233 -103 l 236 -82 q 249 18 242 -28 l 249 18 q 222 16 237 16 l 222 16 q 192 18 205 16 l 192 18 l 173 -155 l 125 -164 q 157 20 142 -97 l 157 20 q 75 45 100 27 l 75 45 q 71 23 73 37 l 71 23 l 70 16 l 68 9 q 65 -8 67 1 l 65 -8 l 42 -13 q 51 100 46 20 l 51 100 q 53 204 55 180 l 53 204 l 76 201 q 77 170 76 195 l 77 170 l 78 148 l 79 126 q 163 62 111 77 l 163 62 l 192 353 q 114 420 138 387 l 114 420 q 83 522 83 462 l 83 522 q 114 619 83 577 l 114 619 q 221 686 150 669 l 221 686 l 227 849 l 271 856 q 255 692 262 796 l 255 692 q 308 692 276 694 l 308 692 l 320 849 l 368 856 q 341 688 356 810 l 341 688 q 386 678 362 685 l 386 678 q 403 673 394 676 l 403 673 l 410 670 l 416 668 q 420 686 418 675 l 420 686 l 422 695 l 424 703 l 448 706 q 438 632 442 678 l 438 632 q 433 509 433 572 l 433 509 l 410 517 l 410 577 q 381 621 404 598 l 381 621 q 338 650 359 644 l 338 650 l 315 391 q 439 202 439 319 l 439 202 q 396 85 439 135 l 396 85 q 281 22 352 36 l 281 22 l 271 -155 z m 201 461 l 218 655 q 171 622 192 649 l 171 622 q 148 557 148 593 l 148 557 q 201 461 148 492 l 201 461 z m 285 411 l 307 660 q 253 661 270 667 l 253 661 l 232 439 l 285 411 z m 307 286 l 284 58 q 342 95 317 65 l 342 95 q 369 170 369 127 l 369 170 q 307 286 369 244 l 307 286 z m 223 335 l 195 53 q 250 53 230 49 l 250 53 l 275 306 l 223 335 z"},"%":{"ha":765,"x_min":50,"x_max":715,"o":"m 292 528 q 291 543 292 535 l 291 543 q 289 564 291 554 l 289 564 q 277 613 285 591 l 277 613 q 206 673 254 673 l 206 673 q 151 646 173 673 l 151 646 q 126 552 126 614 l 126 552 q 129 513 126 534 l 129 513 q 142 466 133 487 l 142 466 q 214 408 165 408 l 214 408 q 264 434 242 408 l 264 434 q 292 528 292 466 l 292 528 z m 200 379 q 50 527 50 379 l 50 527 q 98 649 50 599 l 98 649 q 218 700 146 700 l 218 700 q 368 553 368 700 l 368 553 q 318 430 368 481 l 318 430 q 200 379 268 379 l 200 379 z m 225 0 l 145 -6 q 264 193 166 22 l 264 193 q 339 323 296 249 l 339 323 q 355 352 346 337 l 355 352 q 369 377 361 362 l 369 377 q 390 414 386 407 l 390 414 q 429 481 399 429 l 429 481 l 442 503 l 455 526 q 482 573 470 552 l 482 573 q 550 700 549 689 l 550 700 l 629 702 q 529 552 606 676 l 529 552 q 419 368 463 446 l 419 368 q 315 177 380 301 l 315 177 q 225 0 251 56 l 225 0 z m 547 0 q 436 38 476 0 l 436 38 q 397 148 397 77 l 397 148 q 445 269 397 219 l 445 269 q 565 320 493 320 l 565 320 q 715 173 715 320 l 715 173 q 665 50 715 100 l 665 50 q 547 0 616 0 l 547 0 z m 562 29 q 611 55 589 29 l 611 55 q 639 150 639 88 l 639 150 q 638 164 639 156 l 638 164 q 636 183 638 173 l 636 183 q 625 231 632 210 l 625 231 q 553 293 602 293 l 553 293 q 498 266 520 293 l 498 266 q 473 173 473 235 l 473 173 q 476 137 473 157 l 476 137 q 489 89 480 110 l 489 89 q 562 29 513 29 l 562 29 z"},"&":{"ha":814,"x_min":63,"x_max":791,"o":"m 758 -16 l 710 -28 q 634 19 679 -13 l 634 19 l 596 48 l 558 75 q 460 13 513 35 l 460 13 q 307 -16 392 -16 l 307 -16 q 134 35 204 -16 l 134 35 q 63 163 63 86 l 63 163 q 122 292 63 234 l 122 292 q 242 367 170 340 l 242 367 q 130 552 130 471 l 130 552 q 193 668 130 620 l 193 668 q 345 716 256 716 l 345 716 q 489 671 435 716 l 489 671 q 537 575 537 631 l 537 575 q 487 472 537 525 l 487 472 q 361 380 440 422 l 361 380 q 475 260 404 333 l 475 260 q 531 202 501 233 l 531 202 q 556 176 543 189 l 556 176 q 578 154 565 167 l 578 154 q 615 246 600 189 l 615 246 q 624 347 630 307 l 624 347 q 547 358 599 352 l 547 358 l 540 379 q 669 375 608 375 l 669 375 q 737 376 695 375 l 737 376 q 791 379 782 378 l 791 379 l 784 358 q 744 353 766 356 l 744 353 q 710 347 721 350 l 710 347 q 606 128 693 237 l 606 128 q 758 -16 708 23 l 758 -16 z m 178 200 q 231 79 178 127 l 231 79 q 352 33 282 33 l 352 33 q 458 55 409 33 l 458 55 q 528 101 499 72 l 528 101 q 392 218 468 147 l 392 218 q 264 344 340 267 l 264 344 q 201 281 224 322 l 201 281 q 178 200 178 242 l 178 200 z m 441 562 q 405 650 441 617 l 405 650 q 327 681 372 681 l 327 681 q 255 653 282 681 l 255 653 q 228 575 228 625 l 228 575 q 335 405 228 514 l 335 405 q 441 562 441 467 l 441 562 z"},"’":{"ha":230,"x_min":49,"x_max":182,"o":"m 76 498 l 49 497 q 89 752 86 612 l 89 752 l 182 719 q 128 612 161 681 l 128 612 q 101 553 118 591 l 101 553 l 88 525 l 76 498 z"},"(":{"ha":350,"x_min":76,"x_max":309,"o":"m 297 -126 l 254 -133 q 209 -85 234 -115 l 209 -85 q 150 2 176 -44 l 150 2 q 76 259 76 130 l 76 259 q 263 778 76 499 l 263 778 l 309 784 q 267 714 288 753 l 267 714 q 221 611 241 665 l 221 611 q 169 320 169 468 l 169 320 q 216 25 169 153 l 216 25 q 258 -66 234 -23 l 258 -66 q 279 -99 268 -82 l 279 -99 q 297 -126 287 -111 l 297 -126 z"},")":{"ha":350,"x_min":41,"x_max":274,"o":"m 53 777 l 96 784 q 141 736 116 766 l 141 736 q 200 650 174 695 l 200 650 q 274 392 274 521 l 274 392 q 87 -127 274 152 l 87 -127 l 41 -133 q 83 -63 62 -102 l 83 -63 q 129 41 109 -14 l 129 41 q 181 331 181 183 l 181 331 q 134 626 181 498 l 134 626 q 92 717 116 674 l 92 717 q 71 750 82 733 l 71 750 q 53 777 63 762 l 53 777 z"},"*":{"ha":410,"x_min":67,"x_max":343,"o":"m 329 537 l 256 462 q 227 540 244 499 l 227 540 q 214 570 221 555 l 214 570 q 209 582 212 576 l 209 582 l 207 587 l 205 591 q 194 538 200 576 l 194 538 q 183 463 187 497 l 183 463 l 87 510 q 195 598 165 570 l 195 598 q 137 598 178 599 l 137 598 q 67 594 96 596 l 67 594 l 96 691 q 155 640 123 666 l 155 640 q 198 608 183 617 l 198 608 q 178 663 194 622 l 178 663 l 172 681 l 165 699 q 152 733 156 721 l 152 733 l 252 743 q 239 702 247 725 l 239 702 l 232 682 l 226 664 q 209 610 211 621 l 209 610 l 211 608 q 228 625 219 616 l 228 625 q 250 649 240 637 l 250 649 q 295 699 280 680 l 295 699 l 343 610 q 273 605 310 608 l 273 605 q 215 599 230 602 l 215 599 q 264 570 228 590 l 264 570 q 329 537 296 553 l 329 537 z"},"+":{"ha":610,"x_min":75,"x_max":535,"o":"m 342 579 q 328 368 331 483 l 328 368 l 535 368 l 527 315 q 327 319 456 321 l 327 319 q 328 212 326 275 l 328 212 q 332 112 329 159 l 332 112 l 264 101 q 277 319 274 189 l 277 319 q 75 305 174 316 l 75 305 l 83 368 l 278 368 q 277 473 279 409 l 277 473 q 276 526 277 497 l 276 526 q 274 571 275 546 l 274 571 l 342 579 z"},",":{"ha":320,"x_min":100,"x_max":219,"o":"m 180 -175 l 150 -179 q 153 -14 181 -62 l 153 -14 l 102 -16 l 100 88 l 218 99 q 180 -175 227 -60 l 180 -175 z"},"-":{"ha":450,"x_min":70,"x_max":380,"o":"m 78 400 l 380 400 l 367 352 q 228 342 327 352 l 228 342 q 70 319 121 330 l 70 319 l 78 400 z"},".":{"ha":320,"x_min":100,"x_max":221,"o":"m 221 7 l 103 -15 l 100 92 l 216 114 l 221 7 z"},"/":{"ha":490,"x_min":4,"x_max":487,"o":"m 86 0 l 4 -6 q 123 192 25 21 l 123 192 q 198 323 155 248 l 198 323 q 214 351 205 336 l 214 351 l 221 364 l 228 376 q 249 414 244 405 l 249 414 q 288 481 258 429 l 288 481 l 301 503 l 314 526 q 341 573 329 552 l 341 573 q 409 700 408 689 l 409 700 l 487 701 q 390 553 466 678 l 390 553 q 280 368 327 450 l 280 368 q 176 177 241 301 l 176 177 q 86 0 112 56 l 86 0 z"},":":{"ha":320,"x_min":100,"x_max":221,"o":"m 221 6 l 103 -16 l 100 91 l 216 113 l 221 6 z m 221 300 l 103 278 l 100 385 l 216 407 l 221 300 z"},";":{"ha":320,"x_min":100,"x_max":219,"o":"m 100 88 l 218 99 q 180 -175 227 -60 l 180 -175 l 150 -179 q 153 -14 181 -62 l 153 -14 l 102 -16 l 100 88 z m 219 300 l 103 278 l 100 385 l 214 407 l 219 300 z"},"<":{"ha":610,"x_min":75,"x_max":537,"o":"m 511 107 q 281 231 442 147 l 281 231 l 250 247 l 220 263 q 164 293 183 282 l 164 293 q 75 340 103 324 l 75 340 l 75 342 q 517 576 297 455 l 517 576 l 530 523 q 169 344 319 413 l 169 344 q 537 177 367 256 l 537 177 l 511 107 z"},"=":{"ha":610,"x_min":75,"x_max":535,"o":"m 527 389 q 413 394 478 393 l 413 394 l 355 394 l 298 393 q 75 379 167 390 l 75 379 l 83 442 l 535 442 l 527 389 z m 527 237 q 413 242 478 241 l 413 242 l 355 242 l 298 241 q 75 227 167 238 l 75 227 l 83 290 l 535 290 l 527 237 z"},">":{"ha":610,"x_min":78,"x_max":540,"o":"m 104 576 q 332 453 174 536 l 332 453 q 393 421 355 441 l 393 421 l 422 406 l 450 391 q 540 343 512 358 l 540 343 l 540 341 q 98 107 344 242 l 98 107 l 85 160 q 446 339 296 270 l 446 339 q 78 506 248 427 l 78 506 l 104 576 z"},"?":{"ha":610,"x_min":93,"x_max":533,"o":"m 279 167 l 237 157 q 226 236 234 187 l 226 236 l 219 275 l 213 315 q 329 380 285 347 l 329 380 q 397 465 379 418 l 397 465 q 407 505 404 484 l 407 505 q 409 541 409 520 l 409 541 q 378 633 409 592 l 378 633 q 277 682 341 682 l 277 682 q 186 657 227 682 l 186 657 q 138 610 156 637 l 138 610 q 116 516 127 582 l 116 516 l 93 509 q 111 812 111 653 l 111 812 l 134 804 l 135 775 l 136 747 q 139 695 137 715 l 139 695 q 283 716 209 716 l 283 716 q 475 673 409 716 l 475 673 q 533 573 533 634 l 533 573 q 492 461 533 515 l 492 461 q 453 420 476 440 l 453 420 q 413 387 436 405 l 413 387 q 363 354 391 370 l 363 354 l 340 342 q 315 327 326 334 l 315 327 q 297 259 307 310 l 297 259 q 288 214 294 245 l 288 214 l 283 190 l 279 167 z m 324 -2 l 208 -16 l 207 80 l 318 96 l 324 -2 z"},"@":{"ha":889,"x_min":44,"x_max":845,"o":"m 845 389 q 765 185 845 263 l 765 185 q 559 111 685 107 l 559 111 q 557 140 559 120 l 557 140 q 553 173 555 162 l 553 173 q 488 128 520 145 l 488 128 q 415 107 448 107 l 415 107 q 321 138 353 107 l 321 138 q 295 200 295 163 l 295 200 q 369 292 295 263 l 369 292 q 532 320 423 314 l 532 320 q 525 367 531 332 l 525 367 q 449 465 510 465 l 449 465 q 407 456 431 465 l 407 456 q 389 449 398 453 l 389 449 l 382 445 l 376 442 q 368 415 372 429 l 368 415 q 362 392 366 405 l 362 392 q 353 361 355 367 l 353 361 l 332 357 q 348 539 348 462 l 348 539 l 369 538 l 373 507 l 377 475 q 417 490 395 483 l 417 490 q 463 499 445 499 l 463 499 q 591 392 574 499 l 591 392 l 600 334 l 604 306 l 609 278 q 623 187 618 212 l 623 187 q 648 162 628 162 l 648 162 q 745 215 707 162 l 745 215 q 786 370 786 272 l 786 370 q 695 582 786 497 l 695 582 q 486 665 607 665 l 486 665 q 216 562 316 665 l 216 562 q 119 292 119 461 l 119 292 q 216 35 119 133 l 216 35 q 438 -57 306 -57 l 438 -57 q 664 15 551 -57 l 664 15 l 679 -10 q 428 -100 547 -100 l 428 -100 q 163 -14 267 -100 l 163 -14 q 44 267 44 84 l 44 267 q 168 578 44 453 l 168 578 q 478 703 292 703 l 478 703 q 737 615 632 703 l 737 615 q 845 389 845 524 l 845 389 z m 549 206 q 538 290 545 233 l 538 290 q 409 261 443 278 l 409 261 q 372 204 372 243 l 372 204 q 447 151 372 151 l 447 151 q 500 169 471 151 l 500 169 q 549 206 520 181 l 549 206 z"},"A":{"ha":712,"x_min":-55,"x_max":757,"o":"m 422 -4 l 427 17 q 528 31 490 22 l 528 31 q 519 57 525 39 l 519 57 l 516 66 l 513 75 l 506 95 q 475 186 488 149 l 475 186 q 423 324 433 306 l 423 324 q 308 320 391 324 l 308 320 q 192 311 217 315 l 192 311 q 180 272 190 305 l 180 272 q 159 195 169 236 l 159 195 q 122 31 129 81 l 122 31 q 164 23 139 26 l 164 23 q 208 17 181 20 l 208 17 l 212 -4 q 136 -1 190 -3 l 136 -1 q 61 0 85 0 l 61 0 q 2 -1 40 0 l 2 -1 q -55 -4 -39 -3 l -55 -4 l -52 17 q 34 31 -9 21 l 34 31 q 167 360 57 71 l 167 360 q 243 563 202 453 l 243 563 q 270 634 257 600 l 270 634 q 278 657 274 647 l 278 657 q 283 670 281 665 l 283 670 q 244 678 269 674 l 244 678 l 223 681 l 204 683 l 203 704 q 273 701 223 703 l 273 701 q 333 700 317 700 l 333 700 q 423 701 367 700 l 423 701 q 504 704 483 703 l 504 704 l 501 683 q 425 670 454 678 l 425 670 q 468 540 433 640 l 468 540 q 530 364 497 454 l 530 364 q 542 331 536 347 l 542 331 q 557 292 549 311 l 557 292 q 591 202 575 243 l 591 202 q 666 31 636 88 l 666 31 q 754 17 697 25 l 754 17 l 757 -4 q 689 -1 748 -3 l 689 -1 q 591 0 634 0 l 591 0 q 506 -1 565 0 l 506 -1 q 422 -4 440 -3 l 422 -4 z m 416 354 q 393 421 409 375 l 393 421 q 379 463 388 436 l 379 463 l 363 508 q 314 653 324 621 l 314 653 l 312 653 q 284 574 302 624 l 284 574 l 267 529 l 251 485 q 206 358 211 376 l 206 358 l 416 354 z"},"B":{"ha":683,"x_min":48,"x_max":610,"o":"m 163 262 l 163 400 q 161 546 163 461 l 161 546 q 156 669 159 641 l 156 669 q 103 676 134 673 l 103 676 l 77 677 l 64 678 l 53 679 l 48 700 q 98 702 53 700 l 98 702 q 137 703 120 702 l 137 703 q 180 704 160 704 l 180 704 q 335 708 296 708 l 335 708 q 521 661 464 708 l 521 661 q 552 618 542 642 l 552 618 q 560 578 560 599 l 560 578 q 534 484 560 526 l 534 484 q 468 416 509 445 l 468 416 q 434 394 452 404 l 434 394 q 405 380 420 386 l 405 380 l 405 377 q 545 314 486 364 l 545 314 q 610 184 610 259 l 610 184 q 546 45 610 98 l 546 45 q 377 -8 481 -8 l 377 -8 q 293 -4 365 -8 l 293 -4 q 200 0 223 0 l 200 0 q 127 -1 179 0 l 127 -1 q 48 -4 68 -3 l 48 -4 l 52 17 q 75 19 63 18 l 75 19 q 105 23 91 21 l 105 23 q 156 31 142 27 l 156 31 q 162 177 161 76 l 162 177 q 163 262 163 214 l 163 262 z m 271 347 l 271 293 q 275 142 271 228 l 275 142 q 283 45 279 55 l 283 45 q 324 29 299 34 l 324 29 q 363 24 344 24 l 363 24 q 466 59 431 24 l 466 59 q 498 146 498 91 l 498 146 q 469 245 498 196 l 469 245 q 389 323 438 297 l 389 323 q 324 344 361 337 l 324 344 q 271 347 292 350 l 271 347 z m 271 433 l 271 377 q 328 384 301 377 l 328 384 q 391 411 365 392 l 391 411 q 449 537 449 453 l 449 537 q 412 641 449 602 l 412 641 q 314 681 375 681 l 314 681 q 274 675 288 681 l 274 675 q 272 584 273 668 l 272 584 q 271 433 271 512 l 271 433 z"},"C":{"ha":809,"x_min":55,"x_max":784,"o":"m 742 475 l 719 482 q 717 524 719 497 l 717 524 q 713 565 715 553 l 713 565 q 634 640 696 604 l 634 640 q 472 681 560 681 l 472 681 q 255 596 339 681 l 255 596 q 175 393 175 514 l 175 393 q 282 140 175 245 l 282 140 q 547 33 390 33 l 547 33 q 784 87 693 33 l 784 87 l 770 44 q 738 27 760 36 l 738 27 q 680 7 713 16 l 680 7 q 489 -16 593 -16 l 489 -16 l 472 -16 q 449 -15 461 -15 l 449 -15 q 392 -9 420 -13 l 392 -9 q 262 28 315 2 l 262 28 q 110 157 165 76 l 110 157 q 55 334 55 238 l 55 334 q 213 633 55 527 l 213 633 q 511 716 336 716 l 511 716 q 638 706 569 716 l 638 706 q 688 697 664 702 l 688 697 q 720 690 708 693 l 720 690 q 732 735 724 698 l 732 735 l 735 749 l 737 762 q 741 779 740 776 l 741 779 l 764 784 q 742 475 744 635 l 742 475 z"},"D":{"ha":940,"x_min":48,"x_max":890,"o":"m 163 342 l 163 476 q 161 554 162 517 l 161 554 q 156 669 159 656 l 156 669 q 102 677 138 673 l 102 677 q 50 683 69 681 l 50 683 l 48 704 q 120 701 58 703 l 120 701 q 213 700 177 700 l 213 700 q 313 702 225 700 l 313 702 q 380 703 353 703 l 380 703 q 444 704 418 704 l 444 704 q 726 658 631 704 l 726 658 q 852 550 809 618 l 852 550 q 890 416 890 489 l 890 416 q 759 128 890 242 l 759 128 q 340 -2 610 -2 l 340 -2 q 182 -3 287 -2 l 182 -3 q 48 -4 64 -3 l 48 -4 l 52 17 q 73 19 60 17 l 73 19 q 102 22 88 20 l 102 22 q 156 31 140 26 l 156 31 q 161 149 159 43 l 161 149 q 163 342 163 238 l 163 342 z m 277 372 l 277 333 q 279 187 277 280 l 279 187 q 284 55 281 79 l 284 55 q 345 40 313 44 l 345 40 q 371 37 358 38 l 371 37 l 393 37 q 652 120 546 37 l 652 120 q 767 362 767 210 l 767 362 q 658 593 767 512 l 658 593 q 372 667 558 667 l 372 667 q 327 666 352 667 l 327 666 q 284 661 298 664 l 284 661 q 279 527 282 651 l 279 527 q 277 372 277 415 l 277 372 z"},"E":{"ha":637,"x_min":48,"x_max":569,"o":"m 163 343 l 163 389 q 161 551 163 463 l 161 551 q 156 669 159 647 l 156 669 q 106 676 144 672 l 106 676 q 76 680 94 678 l 76 680 l 63 682 q 52 683 56 683 l 52 683 l 48 704 q 138 701 72 703 l 138 701 l 186 701 q 226 700 216 700 l 226 700 l 282 700 q 375 701 333 700 l 375 701 q 520 707 503 703 l 520 707 q 528 754 525 727 l 528 754 l 551 758 q 540 658 548 744 l 540 658 q 534 593 537 626 l 534 593 q 531 551 532 564 l 531 551 l 509 558 l 509 589 q 509 630 510 618 l 509 630 q 410 662 497 649 l 410 662 q 339 670 376 667 l 339 670 q 284 672 306 672 l 284 672 q 279 556 282 662 l 279 556 q 277 406 277 457 l 277 406 l 277 386 q 484 402 441 386 l 484 402 q 494 445 491 422 l 494 445 l 515 447 q 503 359 514 438 l 503 359 q 495 300 497 319 l 495 300 q 489 260 491 271 l 489 260 l 470 268 q 472 335 472 310 l 472 335 q 277 357 429 357 l 277 357 l 277 337 q 279 171 277 285 l 279 171 q 284 29 282 49 l 284 29 q 524 63 464 29 l 524 63 q 537 112 530 83 l 537 112 l 539 123 l 542 133 q 546 151 544 144 l 546 151 l 569 157 q 551 49 564 135 l 551 49 q 536 -74 539 -37 l 536 -74 l 515 -70 q 514 -9 515 -25 l 514 -9 q 370 -3 495 -6 l 370 -3 q 200 0 262 0 l 200 0 q 126 -1 174 0 l 126 -1 q 48 -4 77 -3 l 48 -4 l 53 17 q 72 19 60 17 l 72 19 q 100 22 86 20 l 100 22 q 156 31 138 26 l 156 31 q 161 153 159 44 l 161 153 q 163 343 163 252 l 163 343 z"},"F":{"ha":636,"x_min":48,"x_max":576,"o":"m 163 328 l 163 390 q 162 553 163 466 l 162 553 q 158 669 160 650 l 158 669 q 111 677 150 673 l 111 677 q 79 680 99 679 l 79 680 l 65 682 l 52 683 l 48 704 q 134 701 73 703 l 134 701 q 223 700 192 700 l 223 700 l 288 700 q 390 701 344 700 l 390 701 q 540 706 527 702 l 540 706 q 547 738 542 716 l 547 738 q 553 777 551 761 l 553 777 l 576 782 q 565 670 570 749 l 565 670 q 559 536 560 594 l 559 536 l 536 544 q 535 582 536 558 l 535 582 q 531 623 533 610 l 531 623 q 413 659 507 645 l 413 659 q 339 667 378 664 l 339 667 q 285 670 306 670 l 285 670 q 279 559 282 661 l 279 559 q 277 402 277 473 l 277 402 l 277 380 q 326 381 297 380 l 326 381 q 389 383 359 382 l 389 383 q 488 394 467 387 l 488 394 q 495 422 491 404 l 495 422 l 499 438 l 502 453 l 523 456 q 514 355 518 417 l 514 355 q 507 233 508 286 l 507 233 l 486 239 q 481 324 486 274 l 481 324 q 391 343 465 336 l 391 343 q 277 349 333 349 l 277 349 l 277 319 q 279 154 277 244 l 279 154 q 285 31 282 50 l 285 31 q 346 22 310 26 l 346 22 q 373 19 358 20 l 373 19 l 385 18 l 395 17 l 399 -4 q 215 0 329 0 l 215 0 q 48 -4 118 0 l 48 -4 l 52 17 q 70 19 55 18 l 70 19 l 83 20 l 99 22 q 158 31 141 26 l 158 31 q 162 147 160 47 l 162 147 q 163 328 163 237 l 163 328 z"},"G":{"ha":905,"x_min":56,"x_max":870,"o":"m 774 194 l 774 73 q 776 17 775 35 l 776 17 q 652 -6 733 4 l 652 -6 q 520 -16 572 -16 l 520 -16 q 463 -14 491 -16 l 463 -14 q 395 -8 427 -12 l 395 -8 q 255 32 311 4 l 255 32 q 108 159 161 79 l 108 159 q 56 333 56 239 l 56 333 q 214 635 56 527 l 214 635 q 508 716 333 716 l 508 716 q 640 708 571 716 l 640 708 q 732 691 706 700 l 732 691 q 741 736 735 703 l 741 736 q 750 784 748 769 l 750 784 l 773 789 q 763 655 768 755 l 763 655 q 759 480 757 544 l 759 480 l 736 492 q 731 542 735 515 l 731 542 q 725 584 729 564 l 725 584 q 696 612 712 599 l 696 612 q 646 644 674 630 l 646 644 q 465 681 571 681 l 465 681 q 255 597 337 681 l 255 597 q 175 392 175 514 l 175 392 q 272 145 175 258 l 272 145 q 530 20 378 20 l 530 20 q 555 21 542 20 l 555 21 q 588 25 572 22 l 588 25 q 657 46 629 31 l 657 46 q 660 145 660 69 l 660 145 l 660 198 q 656 278 660 254 l 656 278 q 634 280 652 278 l 634 280 l 620 281 l 605 283 q 555 289 567 287 l 555 289 l 549 310 q 637 308 585 309 l 637 308 q 713 307 683 307 l 713 307 q 805 308 757 307 l 805 308 q 870 310 862 309 l 870 310 l 865 289 q 860 288 864 289 l 860 288 l 851 288 q 826 285 837 286 l 826 285 q 778 278 792 281 l 778 278 q 775 227 776 267 l 775 227 q 774 194 774 211 l 774 194 z"},"H":{"ha":969,"x_min":48,"x_max":921,"o":"m 163 251 l 163 464 q 162 542 162 506 l 162 542 q 158 669 161 648 l 158 669 q 108 677 145 672 l 108 677 q 53 683 73 681 l 53 683 l 48 704 q 118 701 60 703 l 118 701 q 224 700 175 700 l 224 700 q 323 701 271 700 l 323 701 q 387 704 375 703 l 387 704 l 382 683 q 329 677 362 682 l 329 677 q 285 669 298 672 l 285 669 q 280 576 282 649 l 280 576 q 277 438 277 503 l 277 438 l 277 389 l 321 389 q 347 388 335 389 l 347 388 l 479 388 q 692 392 667 388 l 692 392 l 692 503 q 691 573 692 544 l 691 573 q 686 669 690 653 l 686 669 q 641 677 672 672 l 641 677 q 587 683 608 682 l 587 683 l 582 704 q 651 701 594 703 l 651 701 q 754 700 706 700 l 754 700 q 855 701 803 700 l 855 701 q 921 704 908 703 l 921 704 l 915 683 q 867 677 903 682 l 867 677 l 853 675 l 838 673 q 813 669 821 670 l 813 669 q 808 545 810 656 l 808 545 q 806 464 807 507 l 806 464 l 806 346 q 808 158 806 240 l 808 158 q 815 31 810 54 l 815 31 q 866 23 831 28 l 866 23 q 916 17 902 18 l 916 17 l 921 -4 q 848 -1 908 -3 l 848 -1 q 753 0 791 0 l 753 0 q 664 -1 719 0 l 664 -1 q 582 -4 607 -3 l 582 -4 l 587 17 q 635 23 599 18 l 635 23 q 686 31 673 28 l 686 31 q 691 138 690 54 l 691 138 q 692 216 692 170 l 692 216 l 692 356 q 472 345 654 355 l 472 345 q 277 333 287 335 l 277 333 l 277 298 q 285 31 277 105 l 285 31 q 336 22 305 27 l 336 22 q 382 17 367 18 l 382 17 l 387 -4 q 314 -1 372 -3 l 314 -1 q 224 0 259 0 l 224 0 q 128 -1 184 0 l 128 -1 q 48 -4 70 -3 l 48 -4 l 54 17 q 108 23 70 18 l 108 23 q 158 31 142 28 l 158 31 q 162 166 161 62 l 162 166 q 163 251 163 205 l 163 251 z"},"I":{"ha":440,"x_min":48,"x_max":392,"o":"m 277 410 l 277 348 q 278 148 277 229 l 278 148 q 282 31 279 45 l 282 31 q 336 23 298 27 l 336 23 q 366 19 350 21 l 366 19 l 378 18 l 383 17 l 387 17 l 392 -4 q 313 -1 376 -3 l 313 -1 q 204 0 252 0 l 204 0 q 125 -1 176 0 l 125 -1 q 48 -4 69 -3 l 48 -4 l 52 17 q 104 23 65 18 l 104 23 q 158 31 142 28 l 158 31 q 162 173 161 59 l 162 173 q 163 270 163 217 l 163 270 l 163 464 q 162 542 162 505 l 162 542 q 158 669 161 647 l 158 669 q 105 677 145 672 l 105 677 q 75 681 90 679 l 75 681 q 53 683 61 682 l 53 683 l 48 704 q 121 701 62 702 l 121 701 q 238 700 179 700 l 238 700 q 328 701 278 700 l 328 701 q 392 704 380 703 l 392 704 l 387 683 q 341 677 378 682 l 341 677 l 311 673 q 282 669 294 670 l 282 669 q 277 410 277 644 l 277 410 z"},"J":{"ha":419,"x_min":22,"x_max":392,"o":"m 277 456 l 277 127 q 230 -75 277 6 l 230 -75 q 58 -245 189 -146 l 58 -245 l 37 -238 q 115 -133 89 -183 l 115 -133 q 133 -93 125 -113 l 133 -93 q 143 -59 138 -79 l 143 -59 q 167 341 167 24 l 167 341 l 167 459 q 166 534 166 499 l 166 534 q 158 669 163 636 l 158 669 q 94 677 141 672 l 94 677 q 26 683 49 681 l 26 683 l 22 704 q 109 701 39 703 l 109 701 q 219 700 175 700 l 219 700 q 313 701 259 700 l 313 701 q 392 704 366 702 l 392 704 l 389 683 q 370 681 384 682 l 370 681 l 357 679 l 342 677 q 282 669 302 671 l 282 669 q 278 537 279 649 l 278 537 q 277 456 278 499 l 277 456 z"},"K":{"ha":800,"x_min":48,"x_max":817,"o":"m 163 352 l 163 409 q 162 564 163 486 l 162 564 q 158 669 160 650 l 158 669 q 105 677 139 672 l 105 677 q 51 683 68 682 l 51 683 l 48 704 q 128 701 62 703 l 128 701 q 224 700 189 700 l 224 700 q 313 701 256 700 l 313 701 q 388 704 375 703 l 388 704 l 384 683 q 366 681 380 682 l 366 681 l 353 679 l 337 677 q 282 669 295 671 l 282 669 q 278 553 279 648 l 278 553 q 277 472 277 516 l 277 472 l 277 369 q 308 396 285 376 l 308 396 l 318 405 l 328 414 q 351 433 340 424 l 351 433 q 451 522 409 484 l 451 522 q 598 669 580 638 l 598 669 q 524 683 567 677 l 524 683 l 520 704 q 597 701 553 702 l 597 701 q 672 700 644 700 l 672 700 q 781 704 713 700 l 781 704 l 775 683 l 769 682 l 762 681 q 746 679 753 680 l 746 679 q 709 671 726 676 l 709 671 q 573 568 680 656 l 573 568 q 492 501 532 535 l 492 501 q 438 454 455 469 l 438 454 q 623 213 469 405 l 623 213 q 817 -18 779 17 l 817 -18 l 783 -29 q 543 174 734 -10 l 543 174 q 410 304 479 234 l 410 304 q 364 351 385 330 l 364 351 q 340 376 346 369 l 340 376 q 306 349 326 366 l 306 349 q 277 324 287 334 l 277 324 l 277 300 q 278 149 277 217 l 278 149 q 282 36 279 61 l 282 36 q 343 23 298 29 l 343 23 q 376 19 357 21 l 376 19 l 382 19 l 388 18 q 396 17 394 17 l 396 17 l 398 -4 q 322 -1 384 -3 l 322 -1 q 219 0 262 0 l 219 0 q 127 -1 182 0 l 127 -1 q 48 -4 69 -3 l 48 -4 l 52 17 q 75 19 62 18 l 75 19 q 105 23 91 21 l 105 23 q 158 31 142 27 l 158 31 q 163 352 163 104 l 163 352 z"},"L":{"ha":589,"x_min":48,"x_max":581,"o":"m 163 279 l 163 483 q 162 556 163 522 l 162 556 q 158 669 161 648 l 158 669 q 106 677 141 672 l 106 677 q 51 683 70 682 l 51 683 l 48 704 q 121 701 67 703 l 121 701 q 221 700 175 700 l 221 700 q 331 701 272 700 l 331 701 q 405 704 390 703 l 405 704 l 400 683 q 347 677 388 682 l 347 677 l 314 673 q 282 669 295 670 l 282 669 q 278 559 279 648 l 278 559 q 277 413 277 492 l 277 413 l 277 377 q 278 164 277 253 l 278 164 q 282 32 279 47 l 282 32 q 432 48 365 32 l 432 48 q 521 83 489 62 l 521 83 q 542 142 530 104 l 542 142 q 550 172 545 154 l 550 172 l 554 185 l 557 197 l 581 201 q 528 -128 546 46 l 528 -128 l 505 -123 q 508 -69 505 -118 l 508 -69 q 509 -34 509 -47 l 509 -34 q 510 -6 510 -15 l 510 -6 q 376 -2 494 -5 l 376 -2 q 218 0 262 0 l 218 0 q 125 -1 179 0 l 125 -1 q 48 -4 68 -3 l 48 -4 l 52 17 q 72 19 59 17 l 72 19 q 103 22 88 20 l 103 22 q 158 31 144 26 l 158 31 q 162 178 161 60 l 162 178 q 163 279 163 224 l 163 279 z"},"M":{"ha":1060,"x_min":-1,"x_max":1052,"o":"m 726 -4 l 728 17 q 781 23 736 18 l 781 23 l 798 25 l 814 26 q 838 29 832 28 l 838 29 q 791 296 837 50 l 791 296 l 782 343 l 774 390 q 758 476 763 449 l 758 476 q 737 590 741 567 l 737 590 l 733 590 q 686 479 725 572 l 686 479 q 668 436 679 462 l 668 436 l 659 413 l 649 389 q 607 290 624 330 l 607 290 q 479 -8 497 26 l 479 -8 q 359 301 460 35 l 359 301 q 251 591 261 558 l 251 591 l 247 591 q 236 528 243 566 l 236 528 l 230 494 l 223 457 q 195 302 205 360 l 195 302 q 166 31 163 112 l 166 31 q 212 23 178 28 l 212 23 q 237 19 224 21 l 237 19 q 255 17 248 18 l 255 17 l 259 -4 q 186 -1 250 -3 l 186 -1 q 139 0 163 -1 l 139 0 l 110 0 q -1 -4 65 0 l -1 -4 l 6 17 q 21 19 11 18 l 21 19 l 40 22 q 77 30 63 26 l 77 30 q 153 342 92 73 l 153 342 q 223 669 209 595 l 223 669 q 198 673 214 670 l 198 673 l 183 675 l 168 677 q 124 683 130 682 l 124 683 l 118 704 q 175 701 128 703 l 175 701 q 262 700 221 700 l 262 700 q 343 701 295 700 l 343 701 q 412 704 391 703 l 412 704 l 408 683 q 367 676 390 681 l 367 676 l 349 672 l 341 671 l 333 669 q 423 416 353 605 l 423 416 q 515 175 489 238 l 515 175 q 627 435 538 221 l 627 435 q 719 669 718 653 l 719 669 q 685 678 707 673 l 685 678 l 667 681 l 658 682 l 651 683 l 646 704 q 712 701 670 703 l 712 701 q 781 700 755 700 l 781 700 q 854 701 807 700 l 854 701 q 920 704 904 703 l 920 704 l 917 683 l 914 683 l 910 682 l 901 681 q 878 677 888 679 l 878 677 q 833 669 846 672 l 833 669 q 899 332 847 585 l 899 332 q 964 31 951 78 l 964 31 q 1008 23 979 27 l 1008 23 l 1019 21 l 1030 20 q 1047 17 1042 18 l 1047 17 l 1052 -4 q 911 0 984 0 l 911 0 q 812 -1 874 0 l 812 -1 q 726 -4 747 -3 l 726 -4 z"},"N":{"ha":908,"x_min":40,"x_max":873,"o":"m 44 679 l 40 700 q 88 701 57 701 l 88 701 l 116 702 l 146 703 q 268 707 222 705 l 268 707 q 390 549 283 683 l 390 549 q 508 403 493 418 l 508 403 q 548 356 516 395 l 548 356 q 563 339 554 350 l 563 339 l 580 319 q 614 279 600 295 l 614 279 q 725 155 706 171 l 725 155 l 725 275 q 722 434 724 363 l 722 434 q 704 669 717 636 l 704 669 q 657 677 687 672 l 657 677 q 603 683 623 682 l 603 683 l 598 704 q 671 701 611 703 l 671 701 q 717 700 695 701 l 717 700 l 747 700 q 810 701 767 700 l 810 701 q 873 704 859 703 l 873 704 l 869 683 q 855 681 865 682 l 855 681 l 846 679 l 836 677 q 793 669 808 671 l 793 669 q 780 560 785 645 l 780 560 q 776 498 778 534 l 776 498 l 775 485 l 775 474 q 774 457 774 462 l 774 457 q 771 364 773 442 l 771 364 q 769 286 770 340 l 769 286 l 768 244 l 767 201 q 757 -50 760 -27 l 757 -50 q 589 139 739 -33 l 589 139 q 534 204 564 168 l 534 204 q 508 234 522 218 l 508 234 q 484 261 498 245 l 484 261 q 427 327 432 321 l 427 327 q 316 461 420 334 l 316 461 l 296 485 l 276 509 q 239 554 254 535 l 239 554 q 190 612 201 599 l 190 612 q 190 518 189 604 l 190 518 q 195 328 192 429 l 195 328 q 212 31 203 55 l 212 31 q 265 23 221 28 l 265 23 q 298 19 279 21 l 298 19 l 305 19 l 311 18 q 321 17 318 17 l 321 17 l 324 -4 q 253 -1 312 -3 l 253 -1 q 176 0 201 0 l 176 0 q 108 -1 153 0 l 108 -1 q 40 -4 61 -3 l 40 -4 l 43 17 l 65 20 l 86 23 q 126 31 112 27 l 126 31 q 146 352 137 58 l 146 352 q 152 560 150 450 l 152 560 q 153 632 153 600 l 153 632 q 154 667 154 660 l 154 667 q 44 679 116 675 l 44 679 z"},"O":{"ha":947,"x_min":55,"x_max":892,"o":"m 460 -16 q 151 96 261 -16 l 151 96 q 55 338 55 195 l 55 338 q 171 601 55 494 l 171 601 q 494 716 295 716 l 494 716 q 771 635 661 716 l 771 635 q 861 524 829 593 l 861 524 q 892 387 892 459 l 892 387 q 768 94 892 206 l 768 94 q 460 -16 647 -16 l 460 -16 z m 509 25 q 693 110 617 25 l 693 110 q 770 314 770 194 l 770 314 q 676 576 770 470 l 676 576 q 457 678 584 678 l 457 678 q 262 606 343 678 l 262 606 q 170 380 170 524 l 170 380 q 266 135 170 241 l 266 135 q 509 25 367 25 l 509 25 z"},"P":{"ha":639,"x_min":48,"x_max":609,"o":"m 275 418 l 275 290 q 276 183 275 232 l 276 183 q 280 31 277 50 l 280 31 q 341 24 296 28 l 341 24 q 377 20 357 22 l 377 20 l 394 18 l 401 18 l 407 17 l 412 -4 q 321 -1 389 -3 l 321 -1 q 221 0 258 0 l 221 0 q 126 -1 182 0 l 126 -1 q 48 -4 68 -3 l 48 -4 l 52 17 q 71 19 56 18 l 71 19 l 85 21 l 101 23 q 158 31 142 28 l 158 31 q 162 188 161 60 l 162 188 q 163 293 163 236 l 163 293 l 163 468 q 162 544 162 509 l 162 544 q 158 669 161 647 l 158 669 q 106 678 146 673 l 106 678 q 75 681 93 679 l 75 681 l 62 682 l 56 683 l 51 683 l 48 704 l 119 704 l 153 705 l 270 705 q 511 676 440 705 l 511 676 q 593 610 569 652 l 593 610 q 606 578 602 595 l 606 578 q 609 553 609 565 l 609 553 q 540 394 609 463 l 540 394 q 424 322 497 351 l 424 322 q 369 304 397 312 l 369 304 q 330 296 346 298 l 330 296 l 333 321 q 350 326 342 323 l 350 326 q 373 334 362 330 l 373 334 q 425 366 402 347 l 425 366 q 490 517 490 420 l 490 517 q 409 653 490 613 l 409 653 q 280 675 364 675 l 280 675 q 276 568 277 656 l 276 568 q 275 418 275 501 l 275 418 z"},"Q":{"ha":946,"x_min":55,"x_max":961,"o":"m 961 -226 l 938 -236 q 745 -136 895 -228 l 745 -136 q 557 -8 603 -49 l 557 -8 l 549 -9 l 539 -10 q 513 -13 524 -12 l 513 -13 l 499 -14 l 484 -15 q 455 -16 467 -16 l 455 -16 q 302 4 371 -16 l 302 4 q 150 91 210 31 l 150 91 q 68 235 90 151 l 68 235 q 57 297 60 265 l 57 297 q 55 322 56 309 l 55 322 l 55 340 q 166 598 55 491 l 166 598 q 490 716 288 716 l 490 716 q 800 608 691 716 l 800 608 q 877 481 855 555 l 877 481 q 889 425 885 454 l 889 425 q 891 403 890 414 l 891 403 l 891 385 q 833 176 891 268 l 833 176 q 685 37 780 91 l 685 37 q 829 -116 722 -18 l 829 -116 q 909 -186 869 -153 l 909 -186 q 961 -226 945 -216 l 961 -226 z m 496 22 q 702 115 625 22 l 702 115 q 773 333 773 202 l 773 333 q 674 578 773 474 l 674 578 q 449 679 577 679 l 449 679 q 253 602 332 679 l 253 602 q 167 377 167 517 l 167 377 q 266 135 167 246 l 266 135 q 496 22 367 22 l 496 22 z"},"R":{"ha":748,"x_min":47,"x_max":766,"o":"m 162 269 l 162 473 q 161 552 161 515 l 161 552 q 157 669 160 657 l 157 669 q 105 676 146 672 l 105 676 q 74 679 91 677 l 74 679 l 60 680 l 55 681 l 50 681 l 47 702 l 263 703 q 338 702 309 703 l 338 702 q 414 699 381 702 l 414 699 q 545 675 500 693 l 545 675 q 631 561 631 641 l 631 561 q 589 459 631 514 l 589 459 q 490 372 548 405 l 490 372 q 523 315 495 361 l 523 315 q 593 205 555 262 l 593 205 q 766 -25 699 46 l 766 -25 l 722 -32 q 526 152 678 -12 l 526 152 q 422 267 475 207 l 422 267 q 387 308 402 290 l 387 308 q 370 328 373 324 l 370 328 q 274 322 294 322 l 274 322 l 274 296 q 275 156 274 239 l 275 156 q 279 31 277 63 l 279 31 q 330 23 290 28 l 330 23 q 361 19 344 21 l 361 19 q 384 17 374 18 l 384 17 l 388 -4 q 310 -1 370 -3 l 310 -1 q 216 0 253 0 l 216 0 q 125 -1 182 0 l 125 -1 q 47 -4 63 -3 l 47 -4 l 51 17 q 70 19 58 17 l 70 19 q 99 22 84 20 l 99 22 q 157 31 139 26 l 157 31 q 161 168 160 50 l 161 168 q 162 269 162 213 l 162 269 z m 274 384 l 274 353 q 396 372 345 353 l 396 372 q 432 390 415 379 l 432 390 q 469 421 453 404 l 469 421 q 510 533 510 467 l 510 533 q 459 628 510 589 l 459 628 q 279 675 398 675 l 279 675 q 275 541 277 647 l 275 541 q 274 384 274 448 l 274 384 z"},"S":{"ha":552,"x_min":63,"x_max":492,"o":"m 86 -95 l 63 -101 q 64 -92 63 -98 l 64 -92 q 66 -75 65 -84 l 66 -75 q 72 -28 69 -51 l 72 -28 q 79 63 79 38 l 79 63 q 80 95 79 71 l 80 95 l 81 118 l 82 143 q 82 221 84 207 l 82 221 l 105 215 q 107 173 104 206 l 107 173 q 112 127 110 141 l 112 127 q 174 49 133 78 l 174 49 q 267 18 216 18 l 267 18 q 368 53 327 18 l 368 53 q 409 144 409 89 l 409 144 q 369 240 409 198 l 369 240 q 281 307 346 265 l 281 307 q 156 405 191 366 l 156 405 q 105 540 105 463 l 105 540 q 153 657 105 608 l 153 657 q 311 716 209 716 l 311 716 q 392 709 350 716 l 392 709 q 423 703 407 707 l 423 703 q 446 698 434 701 l 446 698 q 455 737 450 712 l 455 737 l 460 758 l 464 779 l 487 782 q 463 508 463 612 l 463 508 l 440 518 q 436 594 440 558 l 436 594 q 392 653 426 625 l 392 653 q 303 684 351 684 l 303 684 q 210 651 244 684 l 210 651 q 181 584 181 623 l 181 584 q 225 504 181 541 l 225 504 q 270 470 241 489 l 270 470 l 297 453 l 325 436 q 440 347 407 385 l 440 347 q 492 202 492 286 l 492 202 q 420 41 492 101 l 420 41 q 246 -16 352 -16 l 246 -16 q 108 9 155 -16 l 108 9 q 86 -95 100 -22 l 86 -95 z"},"T":{"ha":746,"x_min":9,"x_max":749,"o":"m 316 368 l 316 413 q 315 555 316 477 l 315 555 q 311 658 313 642 l 311 658 q 132 643 204 658 l 132 643 q 52 616 78 633 l 52 616 q 41 573 47 602 l 41 573 l 37 548 l 32 522 l 9 516 q 11 537 10 522 l 11 537 l 12 550 l 13 565 q 18 630 16 601 l 18 630 q 24 768 25 718 l 24 768 l 47 764 l 47 758 l 48 751 q 49 735 49 742 l 49 735 q 53 699 51 712 l 53 699 q 170 693 67 696 l 170 693 q 376 689 283 689 l 376 689 q 591 693 476 689 l 591 693 q 710 699 696 696 l 710 699 q 717 727 713 707 l 717 727 l 721 745 l 722 753 l 724 761 l 749 765 q 732 639 745 750 l 732 639 q 722 557 727 599 l 722 557 q 717 507 718 520 l 717 507 l 694 513 q 696 616 698 583 l 696 616 q 593 645 677 631 l 593 645 q 435 658 508 658 l 435 658 q 431 552 433 639 l 431 552 q 430 413 430 476 l 430 413 l 430 368 q 431 197 430 296 l 431 197 q 435 31 433 87 l 435 31 q 500 24 447 29 l 500 24 l 520 22 l 539 20 q 564 17 561 17 l 564 17 l 568 -4 q 482 -1 551 -3 l 482 -1 q 372 0 416 0 l 372 0 q 269 -1 334 0 l 269 -1 q 178 -4 198 -3 l 178 -4 l 183 17 q 247 24 199 18 l 247 24 q 311 31 292 29 l 311 31 q 315 196 313 86 l 315 196 q 316 368 316 296 l 316 368 z"},"U":{"ha":857,"x_min":44,"x_max":819,"o":"m 131 287 l 131 443 q 126 669 131 622 l 126 669 q 47 683 100 675 l 47 683 l 44 704 q 213 700 100 700 l 213 700 q 295 701 248 700 l 295 701 q 361 704 343 703 l 361 704 l 356 683 l 345 682 l 333 680 q 306 677 318 679 l 306 677 q 252 669 273 673 l 252 669 q 248 580 250 657 l 248 580 q 247 439 247 510 l 247 439 l 247 306 q 306 85 247 157 l 306 85 q 445 22 356 22 l 445 22 q 589 70 538 22 l 589 70 q 656 329 656 133 l 656 329 l 656 469 q 655 545 655 509 l 655 545 q 651 669 654 648 l 651 669 q 598 677 633 672 l 598 677 q 542 683 561 682 l 542 683 l 535 704 q 697 700 585 700 l 697 700 q 819 704 785 700 l 819 704 l 813 683 q 781 677 805 681 l 781 677 l 763 673 l 743 669 q 739 590 741 659 l 739 590 q 738 537 739 564 l 738 537 l 738 454 q 739 391 738 434 l 739 391 q 740 331 740 349 l 740 331 q 642 54 740 141 l 642 54 q 433 -16 563 -16 l 433 -16 q 204 70 283 -16 l 204 70 q 131 287 131 150 l 131 287 z"},"V":{"ha":747,"x_min":-31,"x_max":801,"o":"m -27 683 l -31 704 q 113 700 33 700 l 113 700 q 215 701 160 700 l 215 701 q 286 704 270 703 l 286 704 l 281 683 q 260 681 271 682 l 260 681 q 233 678 245 679 l 233 678 q 187 669 198 673 l 187 669 q 294 405 193 641 l 294 405 q 416 142 398 164 l 416 142 q 431 174 421 152 l 431 174 q 458 229 444 199 l 458 229 q 529 383 496 310 l 529 383 q 640 669 627 602 l 640 669 q 599 676 629 671 l 599 676 l 573 679 l 548 683 l 543 704 q 689 700 571 700 l 689 700 q 801 704 753 700 l 801 704 l 796 683 q 768 677 785 681 l 768 677 l 753 673 q 735 669 743 671 l 735 669 q 552 320 721 661 l 552 320 q 434 79 491 198 l 434 79 q 375 -44 380 -31 l 375 -44 q 315 81 365 -26 l 315 81 q 266 188 301 113 l 266 188 l 253 217 l 239 247 l 211 308 q 35 669 63 629 l 35 669 l 24 672 q 11 676 18 674 l 11 676 q -27 683 -6 680 l -27 683 z"},"W":{"ha":1054,"x_min":-27,"x_max":1088,"o":"m -23 683 l -27 704 q 120 700 29 700 l 120 700 q 224 701 179 700 l 224 701 q 281 704 262 702 l 281 704 l 276 683 q 234 676 268 681 l 234 676 l 221 674 l 207 672 q 185 669 193 670 l 185 669 q 208 577 189 652 l 208 577 q 252 414 229 499 l 252 414 q 324 158 312 189 l 324 158 l 326 158 q 356 235 329 166 l 356 235 q 368 267 363 254 l 368 267 q 382 302 376 286 l 382 302 q 412 378 398 343 l 412 378 q 505 643 491 586 l 505 643 q 452 652 488 647 l 452 652 l 438 654 l 425 656 q 407 659 412 658 l 407 659 l 402 680 q 544 676 478 676 l 544 676 q 687 680 639 676 l 687 680 l 684 659 l 662 656 l 640 652 q 604 643 616 648 l 604 643 q 637 554 611 625 l 637 554 q 663 485 646 529 l 663 485 l 677 447 l 691 408 q 786 152 767 199 l 786 152 l 788 152 q 797 183 790 159 l 797 183 l 801 195 l 805 208 q 814 238 810 225 l 814 238 q 860 391 840 324 l 860 391 q 926 669 922 608 l 926 669 q 881 676 909 673 l 881 676 l 857 680 l 832 683 l 827 704 q 958 700 869 700 l 958 700 q 1088 704 1026 700 l 1088 704 l 1085 683 q 1021 669 1045 678 l 1021 669 q 885 310 1003 649 l 885 310 q 803 71 845 194 l 803 71 q 763 -52 768 -36 l 763 -52 q 644 238 742 -8 l 644 238 q 524 546 545 485 l 524 546 q 506 501 519 533 l 506 501 l 500 486 l 494 470 q 480 434 485 447 l 480 434 q 412 261 440 333 l 412 261 q 285 -52 319 26 l 285 -52 q 241 79 274 -25 l 241 79 q 210 182 230 117 l 210 182 l 193 238 l 176 295 q 52 669 82 603 l 52 669 q -23 683 34 674 l -23 683 z"},"X":{"ha":709,"x_min":-22,"x_max":720,"o":"m 720 -36 l 678 -46 q 470 161 592 19 l 470 161 q 426 214 449 185 l 426 214 q 387 262 409 234 l 387 262 q 334 326 342 317 l 334 326 q 246 197 312 302 l 246 197 q 150 31 177 87 l 150 31 q 193 23 166 27 l 193 23 q 233 17 219 19 l 233 17 l 236 -4 q 177 -2 233 -4 l 177 -2 q 87 0 121 0 l 87 0 q -22 -4 28 0 l -22 -4 l -15 17 l 1 19 l 17 22 q 48 31 36 26 l 48 31 q 182 188 73 47 l 182 188 q 223 243 201 213 l 223 243 q 261 293 239 264 l 261 293 q 310 358 303 350 l 310 358 q 249 438 287 387 l 249 438 l 216 483 l 182 529 q 73 669 99 642 l 73 669 q 42 677 62 673 l 42 677 l 24 680 l 8 683 l 5 704 q 52 701 15 702 l 52 701 q 158 700 95 700 l 158 700 q 317 704 235 700 l 317 704 l 311 683 q 226 669 261 678 l 226 669 q 300 555 236 649 l 300 555 q 382 440 365 460 l 382 440 q 415 485 394 455 l 415 485 q 460 550 438 517 l 460 550 q 535 669 518 635 l 535 669 q 498 678 524 673 l 498 678 q 478 681 489 679 l 478 681 l 470 682 l 464 683 l 460 704 q 590 700 506 700 l 590 700 q 648 701 619 700 l 648 701 q 694 704 672 702 l 694 704 l 692 683 q 660 676 682 680 l 660 676 l 644 672 q 630 669 635 670 l 630 669 q 522 551 618 665 l 522 551 q 450 465 488 511 l 450 465 q 404 409 418 427 l 404 409 q 468 319 423 384 l 468 319 q 510 258 483 298 l 510 258 l 533 226 l 557 192 q 720 -36 679 18 l 720 -36 z"},"Y":{"ha":654,"x_min":-35,"x_max":717,"o":"m 286 220 l 286 281 q 283 318 285 301 l 283 318 q 175 487 276 340 l 175 487 q 39 669 71 639 l 39 669 q 7 677 31 673 l 7 677 l -13 680 q -31 683 -25 682 l -31 683 l -35 704 q 139 700 -1 700 l 139 700 q 224 701 181 700 l 224 701 q 277 704 266 702 l 277 704 l 272 683 q 231 676 263 681 l 231 676 l 207 673 q 186 669 194 671 l 186 669 q 293 498 220 609 l 293 498 l 306 478 l 319 458 q 343 421 335 434 l 343 421 q 378 366 368 383 l 378 366 q 411 420 382 373 l 411 420 q 425 441 419 433 l 425 441 l 439 464 q 469 513 456 491 l 469 513 q 551 669 549 644 l 551 669 q 509 677 537 672 l 509 677 q 488 681 499 679 l 488 681 l 479 682 q 473 683 476 683 l 473 683 l 470 704 q 596 700 500 700 l 596 700 q 665 701 629 700 l 665 701 q 717 704 699 702 l 717 704 l 714 683 q 700 680 710 682 l 700 680 l 691 679 l 682 677 q 646 669 659 673 l 646 669 q 522 511 630 664 l 522 511 q 404 326 415 359 l 404 326 q 401 293 402 314 l 401 293 q 400 255 400 275 l 400 255 l 400 180 q 401 123 400 150 l 401 123 q 405 31 402 47 l 405 31 q 451 24 412 29 l 451 24 l 466 22 l 481 20 q 502 17 496 18 l 502 17 l 504 -4 q 432 -1 488 -3 l 432 -1 q 325 0 376 0 l 325 0 q 254 -1 297 0 l 254 -1 q 188 -4 209 -3 l 188 -4 l 193 17 q 212 19 201 18 l 212 19 q 236 23 224 21 l 236 23 q 281 31 266 27 l 281 31 q 285 107 284 41 l 285 107 q 286 220 286 157 l 286 220 z"},"Z":{"ha":718,"x_min":27,"x_max":675,"o":"m 652 221 l 675 227 q 671 206 675 226 l 671 206 q 668 189 670 197 l 668 189 q 665 169 667 179 l 665 169 q 647 64 655 111 l 647 64 q 620 -115 623 -83 l 620 -115 l 597 -108 q 598 -88 597 -103 l 598 -88 l 599 -74 l 600 -60 q 602 -12 602 -24 l 602 -12 q 481 -3 594 -7 l 481 -3 q 300 0 382 0 l 300 0 q 181 -2 267 0 l 181 -2 q 27 -6 92 -4 l 27 -6 q 275 325 64 33 l 275 325 q 510 659 485 614 l 510 659 q 427 657 483 660 l 427 657 q 309 649 367 654 l 309 649 q 136 616 156 635 l 136 616 q 117 555 130 601 l 117 555 l 111 537 l 107 522 q 100 500 102 505 l 100 500 l 77 497 q 100 666 91 558 l 100 666 q 106 745 103 701 l 106 745 l 107 761 l 108 775 q 109 796 109 790 l 109 796 l 132 791 q 133 767 132 782 l 133 767 l 134 740 q 135 698 134 707 l 135 698 q 260 692 149 695 l 260 692 q 341 690 301 691 l 341 690 q 388 689 378 689 l 388 689 l 433 689 q 516 690 474 690 l 516 690 q 674 694 634 692 l 674 694 q 434 370 631 640 l 434 370 q 196 36 235 95 l 196 36 q 430 46 304 32 l 430 46 q 610 91 574 61 l 610 91 q 633 153 618 102 l 633 153 q 644 193 638 169 l 644 193 l 647 201 l 649 209 q 652 221 651 217 l 652 221 z"},"[":{"ha":350,"x_min":95,"x_max":310,"o":"m 184 501 l 184 96 q 191 -85 185 -61 l 191 -85 l 310 -100 l 303 -126 l 95 -119 q 99 84 98 -90 l 99 84 l 99 503 q 98 614 98 559 l 98 614 q 95 773 96 764 l 95 773 l 310 780 l 305 754 l 191 743 q 185 597 187 726 l 185 597 q 184 501 185 553 l 184 501 z"},"\\":{"ha":490,"x_min":4,"x_max":487,"o":"m 405 0 q 315 177 379 56 l 315 177 q 211 368 250 301 l 211 368 q 101 553 164 450 l 101 553 q 4 701 25 678 l 4 701 l 82 700 q 150 573 83 689 l 150 573 q 177 526 162 552 l 177 526 l 190 503 l 203 481 q 242 414 233 429 l 242 414 q 263 376 247 405 l 263 376 l 270 364 l 277 351 q 293 323 286 336 l 293 323 q 368 192 336 248 l 368 192 q 487 -6 466 21 l 487 -6 l 405 0 z"},"]":{"ha":350,"x_min":40,"x_max":255,"o":"m 166 96 l 166 501 q 165 597 165 553 l 165 597 q 159 743 163 726 l 159 743 l 45 754 l 40 780 l 255 773 q 252 614 254 764 l 252 614 q 251 503 252 559 l 251 503 l 251 84 q 255 -119 252 -90 l 255 -119 l 47 -126 l 40 -100 l 159 -85 q 166 96 165 -61 l 166 96 z"},"^":{"ha":610,"x_min":73,"x_max":537,"o":"m 537 309 l 467 284 q 381 460 435 348 l 381 460 l 360 503 l 339 546 q 302 623 316 594 l 302 623 q 125 291 251 518 l 125 291 l 73 303 q 306 712 211 539 l 306 712 q 353 630 321 686 l 353 630 q 382 578 362 614 l 382 578 l 398 550 l 414 522 q 537 309 497 374 l 537 309 z"},"_":{"ha":500,"x_min":0,"x_max":500,"o":"m 500 -125 l 0 -125 l 0 -75 l 500 -75 l 500 -125 z"},"‘":{"ha":230,"x_min":61,"x_max":170,"o":"m 61 752 l 88 748 q 170 520 117 605 l 170 520 l 74 497 q 71 557 73 520 l 71 557 l 69 620 q 61 752 65 698 l 61 752 z"},"a":{"ha":712,"x_min":-55,"x_max":757,"o":"m 422 -4 l 427 17 q 528 31 490 22 l 528 31 q 519 57 525 39 l 519 57 l 516 66 l 513 75 l 506 95 q 475 186 488 149 l 475 186 q 423 324 433 306 l 423 324 q 308 320 391 324 l 308 320 q 192 311 217 315 l 192 311 q 180 272 190 305 l 180 272 q 159 195 169 236 l 159 195 q 122 31 129 81 l 122 31 q 164 23 139 26 l 164 23 q 208 17 181 20 l 208 17 l 212 -4 q 136 -1 190 -3 l 136 -1 q 61 0 85 0 l 61 0 q 2 -1 40 0 l 2 -1 q -55 -4 -39 -3 l -55 -4 l -52 17 q 34 31 -9 21 l 34 31 q 167 360 57 71 l 167 360 q 243 563 202 453 l 243 563 q 270 634 257 600 l 270 634 q 278 657 274 647 l 278 657 q 283 670 281 665 l 283 670 q 244 678 269 674 l 244 678 l 223 681 l 204 683 l 203 704 q 273 701 223 703 l 273 701 q 333 700 317 700 l 333 700 q 423 701 367 700 l 423 701 q 504 704 483 703 l 504 704 l 501 683 q 425 670 454 678 l 425 670 q 468 540 433 640 l 468 540 q 530 364 497 454 l 530 364 q 542 331 536 347 l 542 331 q 557 292 549 311 l 557 292 q 591 202 575 243 l 591 202 q 666 31 636 88 l 666 31 q 754 17 697 25 l 754 17 l 757 -4 q 689 -1 748 -3 l 689 -1 q 591 0 634 0 l 591 0 q 506 -1 565 0 l 506 -1 q 422 -4 440 -3 l 422 -4 z m 416 354 q 393 421 409 375 l 393 421 q 379 463 388 436 l 379 463 l 363 508 q 314 653 324 621 l 314 653 l 312 653 q 284 574 302 624 l 284 574 l 267 529 l 251 485 q 206 358 211 376 l 206 358 l 416 354 z"},"b":{"ha":683,"x_min":48,"x_max":610,"o":"m 163 262 l 163 400 q 161 546 163 461 l 161 546 q 156 669 159 641 l 156 669 q 103 676 134 673 l 103 676 l 77 677 l 64 678 l 53 679 l 48 700 q 98 702 53 700 l 98 702 q 137 703 120 702 l 137 703 q 180 704 160 704 l 180 704 q 335 708 296 708 l 335 708 q 521 661 464 708 l 521 661 q 552 618 542 642 l 552 618 q 560 578 560 599 l 560 578 q 534 484 560 526 l 534 484 q 468 416 509 445 l 468 416 q 434 394 452 404 l 434 394 q 405 380 420 386 l 405 380 l 405 377 q 545 314 486 364 l 545 314 q 610 184 610 259 l 610 184 q 546 45 610 98 l 546 45 q 377 -8 481 -8 l 377 -8 q 293 -4 365 -8 l 293 -4 q 200 0 223 0 l 200 0 q 127 -1 179 0 l 127 -1 q 48 -4 68 -3 l 48 -4 l 52 17 q 75 19 63 18 l 75 19 q 105 23 91 21 l 105 23 q 156 31 142 27 l 156 31 q 162 177 161 76 l 162 177 q 163 262 163 214 l 163 262 z m 271 347 l 271 293 q 275 142 271 228 l 275 142 q 283 45 279 55 l 283 45 q 324 29 299 34 l 324 29 q 363 24 344 24 l 363 24 q 466 59 431 24 l 466 59 q 498 146 498 91 l 498 146 q 469 245 498 196 l 469 245 q 389 323 438 297 l 389 323 q 324 344 361 337 l 324 344 q 271 347 292 350 l 271 347 z m 271 433 l 271 377 q 328 384 301 377 l 328 384 q 391 411 365 392 l 391 411 q 449 537 449 453 l 449 537 q 412 641 449 602 l 412 641 q 314 681 375 681 l 314 681 q 274 675 288 681 l 274 675 q 272 584 273 668 l 272 584 q 271 433 271 512 l 271 433 z"},"c":{"ha":809,"x_min":55,"x_max":784,"o":"m 742 475 l 719 482 q 717 524 719 497 l 717 524 q 713 565 715 553 l 713 565 q 634 640 696 604 l 634 640 q 472 681 560 681 l 472 681 q 255 596 339 681 l 255 596 q 175 393 175 514 l 175 393 q 282 140 175 245 l 282 140 q 547 33 390 33 l 547 33 q 784 87 693 33 l 784 87 l 770 44 q 738 27 760 36 l 738 27 q 680 7 713 16 l 680 7 q 489 -16 593 -16 l 489 -16 l 472 -16 q 449 -15 461 -15 l 449 -15 q 392 -9 420 -13 l 392 -9 q 262 28 315 2 l 262 28 q 110 157 165 76 l 110 157 q 55 334 55 238 l 55 334 q 213 633 55 527 l 213 633 q 511 716 336 716 l 511 716 q 638 706 569 716 l 638 706 q 688 697 664 702 l 688 697 q 720 690 708 693 l 720 690 q 732 735 724 698 l 732 735 l 735 749 l 737 762 q 741 779 740 776 l 741 779 l 764 784 q 742 475 744 635 l 742 475 z"},"d":{"ha":940,"x_min":48,"x_max":890,"o":"m 163 342 l 163 476 q 161 554 162 517 l 161 554 q 156 669 159 656 l 156 669 q 102 677 138 673 l 102 677 q 50 683 69 681 l 50 683 l 48 704 q 120 701 58 703 l 120 701 q 213 700 177 700 l 213 700 q 313 702 225 700 l 313 702 q 380 703 353 703 l 380 703 q 444 704 418 704 l 444 704 q 726 658 631 704 l 726 658 q 852 550 809 618 l 852 550 q 890 416 890 489 l 890 416 q 759 128 890 242 l 759 128 q 340 -2 610 -2 l 340 -2 q 182 -3 287 -2 l 182 -3 q 48 -4 64 -3 l 48 -4 l 52 17 q 73 19 60 17 l 73 19 q 102 22 88 20 l 102 22 q 156 31 140 26 l 156 31 q 161 149 159 43 l 161 149 q 163 342 163 238 l 163 342 z m 277 372 l 277 333 q 279 187 277 280 l 279 187 q 284 55 281 79 l 284 55 q 345 40 313 44 l 345 40 q 371 37 358 38 l 371 37 l 393 37 q 652 120 546 37 l 652 120 q 767 362 767 210 l 767 362 q 658 593 767 512 l 658 593 q 372 667 558 667 l 372 667 q 327 666 352 667 l 327 666 q 284 661 298 664 l 284 661 q 279 527 282 651 l 279 527 q 277 372 277 415 l 277 372 z"},"e":{"ha":637,"x_min":48,"x_max":569,"o":"m 163 343 l 163 389 q 161 551 163 463 l 161 551 q 156 669 159 647 l 156 669 q 106 676 144 672 l 106 676 q 76 680 94 678 l 76 680 l 63 682 q 52 683 56 683 l 52 683 l 48 704 q 138 701 72 703 l 138 701 l 186 701 q 226 700 216 700 l 226 700 l 282 700 q 375 701 333 700 l 375 701 q 520 707 503 703 l 520 707 q 528 754 525 727 l 528 754 l 551 758 q 540 658 548 744 l 540 658 q 534 593 537 626 l 534 593 q 531 551 532 564 l 531 551 l 509 558 l 509 589 q 509 630 510 618 l 509 630 q 410 662 497 649 l 410 662 q 339 670 376 667 l 339 670 q 284 672 306 672 l 284 672 q 279 556 282 662 l 279 556 q 277 406 277 457 l 277 406 l 277 386 q 484 402 441 386 l 484 402 q 494 445 491 422 l 494 445 l 515 447 q 503 359 514 438 l 503 359 q 495 300 497 319 l 495 300 q 489 260 491 271 l 489 260 l 470 268 q 472 335 472 310 l 472 335 q 277 357 429 357 l 277 357 l 277 337 q 279 171 277 285 l 279 171 q 284 29 282 49 l 284 29 q 524 63 464 29 l 524 63 q 537 112 530 83 l 537 112 l 539 123 l 542 133 q 546 151 544 144 l 546 151 l 569 157 q 551 49 564 135 l 551 49 q 536 -74 539 -37 l 536 -74 l 515 -70 q 514 -9 515 -25 l 514 -9 q 370 -3 495 -6 l 370 -3 q 200 0 262 0 l 200 0 q 126 -1 174 0 l 126 -1 q 48 -4 77 -3 l 48 -4 l 53 17 q 72 19 60 17 l 72 19 q 100 22 86 20 l 100 22 q 156 31 138 26 l 156 31 q 161 153 159 44 l 161 153 q 163 343 163 252 l 163 343 z"},"f":{"ha":636,"x_min":48,"x_max":576,"o":"m 163 328 l 163 390 q 162 553 163 466 l 162 553 q 158 669 160 650 l 158 669 q 111 677 150 673 l 111 677 q 79 680 99 679 l 79 680 l 65 682 l 52 683 l 48 704 q 134 701 73 703 l 134 701 q 223 700 192 700 l 223 700 l 288 700 q 390 701 344 700 l 390 701 q 540 706 527 702 l 540 706 q 547 738 542 716 l 547 738 q 553 777 551 761 l 553 777 l 576 782 q 565 670 570 749 l 565 670 q 559 536 560 594 l 559 536 l 536 544 q 535 582 536 558 l 535 582 q 531 623 533 610 l 531 623 q 413 659 507 645 l 413 659 q 339 667 378 664 l 339 667 q 285 670 306 670 l 285 670 q 279 559 282 661 l 279 559 q 277 402 277 473 l 277 402 l 277 380 q 326 381 297 380 l 326 381 q 389 383 359 382 l 389 383 q 488 394 467 387 l 488 394 q 495 422 491 404 l 495 422 l 499 438 l 502 453 l 523 456 q 514 355 518 417 l 514 355 q 507 233 508 286 l 507 233 l 486 239 q 481 324 486 274 l 481 324 q 391 343 465 336 l 391 343 q 277 349 333 349 l 277 349 l 277 319 q 279 154 277 244 l 279 154 q 285 31 282 50 l 285 31 q 346 22 310 26 l 346 22 q 373 19 358 20 l 373 19 l 385 18 l 395 17 l 399 -4 q 215 0 329 0 l 215 0 q 48 -4 118 0 l 48 -4 l 52 17 q 70 19 55 18 l 70 19 l 83 20 l 99 22 q 158 31 141 26 l 158 31 q 162 147 160 47 l 162 147 q 163 328 163 237 l 163 328 z"},"g":{"ha":905,"x_min":56,"x_max":870,"o":"m 774 194 l 774 73 q 776 17 775 35 l 776 17 q 652 -6 733 4 l 652 -6 q 520 -16 572 -16 l 520 -16 q 463 -14 491 -16 l 463 -14 q 395 -8 427 -12 l 395 -8 q 255 32 311 4 l 255 32 q 108 159 161 79 l 108 159 q 56 333 56 239 l 56 333 q 214 635 56 527 l 214 635 q 508 716 333 716 l 508 716 q 640 708 571 716 l 640 708 q 732 691 706 700 l 732 691 q 741 736 735 703 l 741 736 q 750 784 748 769 l 750 784 l 773 789 q 763 655 768 755 l 763 655 q 759 480 757 544 l 759 480 l 736 492 q 731 542 735 515 l 731 542 q 725 584 729 564 l 725 584 q 696 612 712 599 l 696 612 q 646 644 674 630 l 646 644 q 465 681 571 681 l 465 681 q 255 597 337 681 l 255 597 q 175 392 175 514 l 175 392 q 272 145 175 258 l 272 145 q 530 20 378 20 l 530 20 q 555 21 542 20 l 555 21 q 588 25 572 22 l 588 25 q 657 46 629 31 l 657 46 q 660 145 660 69 l 660 145 l 660 198 q 656 278 660 254 l 656 278 q 634 280 652 278 l 634 280 l 620 281 l 605 283 q 555 289 567 287 l 555 289 l 549 310 q 637 308 585 309 l 637 308 q 713 307 683 307 l 713 307 q 805 308 757 307 l 805 308 q 870 310 862 309 l 870 310 l 865 289 q 860 288 864 289 l 860 288 l 851 288 q 826 285 837 286 l 826 285 q 778 278 792 281 l 778 278 q 775 227 776 267 l 775 227 q 774 194 774 211 l 774 194 z"},"h":{"ha":969,"x_min":48,"x_max":921,"o":"m 163 251 l 163 464 q 162 542 162 506 l 162 542 q 158 669 161 648 l 158 669 q 108 677 145 672 l 108 677 q 53 683 73 681 l 53 683 l 48 704 q 118 701 60 703 l 118 701 q 224 700 175 700 l 224 700 q 323 701 271 700 l 323 701 q 387 704 375 703 l 387 704 l 382 683 q 329 677 362 682 l 329 677 q 285 669 298 672 l 285 669 q 280 576 282 649 l 280 576 q 277 438 277 503 l 277 438 l 277 389 l 321 389 q 347 388 335 389 l 347 388 l 479 388 q 692 392 667 388 l 692 392 l 692 503 q 691 573 692 544 l 691 573 q 686 669 690 653 l 686 669 q 641 677 672 672 l 641 677 q 587 683 608 682 l 587 683 l 582 704 q 651 701 594 703 l 651 701 q 754 700 706 700 l 754 700 q 855 701 803 700 l 855 701 q 921 704 908 703 l 921 704 l 915 683 q 867 677 903 682 l 867 677 l 853 675 l 838 673 q 813 669 821 670 l 813 669 q 808 545 810 656 l 808 545 q 806 464 807 507 l 806 464 l 806 346 q 808 158 806 240 l 808 158 q 815 31 810 54 l 815 31 q 866 23 831 28 l 866 23 q 916 17 902 18 l 916 17 l 921 -4 q 848 -1 908 -3 l 848 -1 q 753 0 791 0 l 753 0 q 664 -1 719 0 l 664 -1 q 582 -4 607 -3 l 582 -4 l 587 17 q 635 23 599 18 l 635 23 q 686 31 673 28 l 686 31 q 691 138 690 54 l 691 138 q 692 216 692 170 l 692 216 l 692 356 q 472 345 654 355 l 472 345 q 277 333 287 335 l 277 333 l 277 298 q 285 31 277 105 l 285 31 q 336 22 305 27 l 336 22 q 382 17 367 18 l 382 17 l 387 -4 q 314 -1 372 -3 l 314 -1 q 224 0 259 0 l 224 0 q 128 -1 184 0 l 128 -1 q 48 -4 70 -3 l 48 -4 l 54 17 q 108 23 70 18 l 108 23 q 158 31 142 28 l 158 31 q 162 166 161 62 l 162 166 q 163 251 163 205 l 163 251 z"},"i":{"ha":440,"x_min":48,"x_max":392,"o":"m 277 410 l 277 348 q 278 148 277 229 l 278 148 q 282 31 279 45 l 282 31 q 336 23 298 27 l 336 23 q 366 19 350 21 l 366 19 l 378 18 l 383 17 l 387 17 l 392 -4 q 313 -1 376 -3 l 313 -1 q 204 0 252 0 l 204 0 q 125 -1 176 0 l 125 -1 q 48 -4 69 -3 l 48 -4 l 52 17 q 104 23 65 18 l 104 23 q 158 31 142 28 l 158 31 q 162 173 161 59 l 162 173 q 163 270 163 217 l 163 270 l 163 464 q 162 542 162 505 l 162 542 q 158 669 161 647 l 158 669 q 105 677 145 672 l 105 677 q 75 681 90 679 l 75 681 q 53 683 61 682 l 53 683 l 48 704 q 121 701 62 702 l 121 701 q 238 700 179 700 l 238 700 q 328 701 278 700 l 328 701 q 392 704 380 703 l 392 704 l 387 683 q 341 677 378 682 l 341 677 l 311 673 q 282 669 294 670 l 282 669 q 277 410 277 644 l 277 410 z"},"j":{"ha":419,"x_min":22,"x_max":392,"o":"m 277 456 l 277 127 q 230 -75 277 6 l 230 -75 q 58 -245 189 -146 l 58 -245 l 37 -238 q 115 -133 89 -183 l 115 -133 q 133 -93 125 -113 l 133 -93 q 143 -59 138 -79 l 143 -59 q 167 341 167 24 l 167 341 l 167 459 q 166 534 166 499 l 166 534 q 158 669 163 636 l 158 669 q 94 677 141 672 l 94 677 q 26 683 49 681 l 26 683 l 22 704 q 109 701 39 703 l 109 701 q 219 700 175 700 l 219 700 q 313 701 259 700 l 313 701 q 392 704 366 702 l 392 704 l 389 683 q 370 681 384 682 l 370 681 l 357 679 l 342 677 q 282 669 302 671 l 282 669 q 278 537 279 649 l 278 537 q 277 456 278 499 l 277 456 z"},"k":{"ha":800,"x_min":48,"x_max":817,"o":"m 163 352 l 163 409 q 162 564 163 486 l 162 564 q 158 669 160 650 l 158 669 q 105 677 139 672 l 105 677 q 51 683 68 682 l 51 683 l 48 704 q 128 701 62 703 l 128 701 q 224 700 189 700 l 224 700 q 313 701 256 700 l 313 701 q 388 704 375 703 l 388 704 l 384 683 q 366 681 380 682 l 366 681 l 353 679 l 337 677 q 282 669 295 671 l 282 669 q 278 553 279 648 l 278 553 q 277 472 277 516 l 277 472 l 277 369 q 308 396 285 376 l 308 396 l 318 405 l 328 414 q 351 433 340 424 l 351 433 q 451 522 409 484 l 451 522 q 598 669 580 638 l 598 669 q 524 683 567 677 l 524 683 l 520 704 q 597 701 553 702 l 597 701 q 672 700 644 700 l 672 700 q 781 704 713 700 l 781 704 l 775 683 l 769 682 l 762 681 q 746 679 753 680 l 746 679 q 709 671 726 676 l 709 671 q 573 568 680 656 l 573 568 q 492 501 532 535 l 492 501 q 438 454 455 469 l 438 454 q 623 213 469 405 l 623 213 q 817 -18 779 17 l 817 -18 l 783 -29 q 543 174 734 -10 l 543 174 q 410 304 479 234 l 410 304 q 364 351 385 330 l 364 351 q 340 376 346 369 l 340 376 q 306 349 326 366 l 306 349 q 277 324 287 334 l 277 324 l 277 300 q 278 149 277 217 l 278 149 q 282 36 279 61 l 282 36 q 343 23 298 29 l 343 23 q 376 19 357 21 l 376 19 l 382 19 l 388 18 q 396 17 394 17 l 396 17 l 398 -4 q 322 -1 384 -3 l 322 -1 q 219 0 262 0 l 219 0 q 127 -1 182 0 l 127 -1 q 48 -4 69 -3 l 48 -4 l 52 17 q 75 19 62 18 l 75 19 q 105 23 91 21 l 105 23 q 158 31 142 27 l 158 31 q 163 352 163 104 l 163 352 z"},"l":{"ha":589,"x_min":48,"x_max":581,"o":"m 163 279 l 163 483 q 162 556 163 522 l 162 556 q 158 669 161 648 l 158 669 q 106 677 141 672 l 106 677 q 51 683 70 682 l 51 683 l 48 704 q 121 701 67 703 l 121 701 q 221 700 175 700 l 221 700 q 331 701 272 700 l 331 701 q 405 704 390 703 l 405 704 l 400 683 q 347 677 388 682 l 347 677 l 314 673 q 282 669 295 670 l 282 669 q 278 559 279 648 l 278 559 q 277 413 277 492 l 277 413 l 277 377 q 278 164 277 253 l 278 164 q 282 32 279 47 l 282 32 q 432 48 365 32 l 432 48 q 521 83 489 62 l 521 83 q 542 142 530 104 l 542 142 q 550 172 545 154 l 550 172 l 554 185 l 557 197 l 581 201 q 528 -128 546 46 l 528 -128 l 505 -123 q 508 -69 505 -118 l 508 -69 q 509 -34 509 -47 l 509 -34 q 510 -6 510 -15 l 510 -6 q 376 -2 494 -5 l 376 -2 q 218 0 262 0 l 218 0 q 125 -1 179 0 l 125 -1 q 48 -4 68 -3 l 48 -4 l 52 17 q 72 19 59 17 l 72 19 q 103 22 88 20 l 103 22 q 158 31 144 26 l 158 31 q 162 178 161 60 l 162 178 q 163 279 163 224 l 163 279 z"},"m":{"ha":1060,"x_min":-1,"x_max":1052,"o":"m 726 -4 l 728 17 q 781 23 736 18 l 781 23 l 798 25 l 814 26 q 838 29 832 28 l 838 29 q 791 296 837 50 l 791 296 l 782 343 l 774 390 q 758 476 763 449 l 758 476 q 737 590 741 567 l 737 590 l 733 590 q 686 479 725 572 l 686 479 q 668 436 679 462 l 668 436 l 659 413 l 649 389 q 607 290 624 330 l 607 290 q 479 -8 497 26 l 479 -8 q 359 301 460 35 l 359 301 q 251 591 261 558 l 251 591 l 247 591 q 236 528 243 566 l 236 528 l 230 494 l 223 457 q 195 302 205 360 l 195 302 q 166 31 163 112 l 166 31 q 212 23 178 28 l 212 23 q 237 19 224 21 l 237 19 q 255 17 248 18 l 255 17 l 259 -4 q 186 -1 250 -3 l 186 -1 q 139 0 163 -1 l 139 0 l 110 0 q -1 -4 65 0 l -1 -4 l 6 17 q 21 19 11 18 l 21 19 l 40 22 q 77 30 63 26 l 77 30 q 153 342 92 73 l 153 342 q 223 669 209 595 l 223 669 q 198 673 214 670 l 198 673 l 183 675 l 168 677 q 124 683 130 682 l 124 683 l 118 704 q 175 701 128 703 l 175 701 q 262 700 221 700 l 262 700 q 343 701 295 700 l 343 701 q 412 704 391 703 l 412 704 l 408 683 q 367 676 390 681 l 367 676 l 349 672 l 341 671 l 333 669 q 423 416 353 605 l 423 416 q 515 175 489 238 l 515 175 q 627 435 538 221 l 627 435 q 719 669 718 653 l 719 669 q 685 678 707 673 l 685 678 l 667 681 l 658 682 l 651 683 l 646 704 q 712 701 670 703 l 712 701 q 781 700 755 700 l 781 700 q 854 701 807 700 l 854 701 q 920 704 904 703 l 920 704 l 917 683 l 914 683 l 910 682 l 901 681 q 878 677 888 679 l 878 677 q 833 669 846 672 l 833 669 q 899 332 847 585 l 899 332 q 964 31 951 78 l 964 31 q 1008 23 979 27 l 1008 23 l 1019 21 l 1030 20 q 1047 17 1042 18 l 1047 17 l 1052 -4 q 911 0 984 0 l 911 0 q 812 -1 874 0 l 812 -1 q 726 -4 747 -3 l 726 -4 z"},"n":{"ha":908,"x_min":40,"x_max":873,"o":"m 44 679 l 40 700 q 88 701 57 701 l 88 701 l 116 702 l 146 703 q 268 707 222 705 l 268 707 q 390 549 283 683 l 390 549 q 508 403 493 418 l 508 403 q 548 356 516 395 l 548 356 q 563 339 554 350 l 563 339 l 580 319 q 614 279 600 295 l 614 279 q 725 155 706 171 l 725 155 l 725 275 q 722 434 724 363 l 722 434 q 704 669 717 636 l 704 669 q 657 677 687 672 l 657 677 q 603 683 623 682 l 603 683 l 598 704 q 671 701 611 703 l 671 701 q 717 700 695 701 l 717 700 l 747 700 q 810 701 767 700 l 810 701 q 873 704 859 703 l 873 704 l 869 683 q 855 681 865 682 l 855 681 l 846 679 l 836 677 q 793 669 808 671 l 793 669 q 780 560 785 645 l 780 560 q 776 498 778 534 l 776 498 l 775 485 l 775 474 q 774 457 774 462 l 774 457 q 771 364 773 442 l 771 364 q 769 286 770 340 l 769 286 l 768 244 l 767 201 q 757 -50 760 -27 l 757 -50 q 589 139 739 -33 l 589 139 q 534 204 564 168 l 534 204 q 508 234 522 218 l 508 234 q 484 261 498 245 l 484 261 q 427 327 432 321 l 427 327 q 316 461 420 334 l 316 461 l 296 485 l 276 509 q 239 554 254 535 l 239 554 q 190 612 201 599 l 190 612 q 190 518 189 604 l 190 518 q 195 328 192 429 l 195 328 q 212 31 203 55 l 212 31 q 265 23 221 28 l 265 23 q 298 19 279 21 l 298 19 l 305 19 l 311 18 q 321 17 318 17 l 321 17 l 324 -4 q 253 -1 312 -3 l 253 -1 q 176 0 201 0 l 176 0 q 108 -1 153 0 l 108 -1 q 40 -4 61 -3 l 40 -4 l 43 17 l 65 20 l 86 23 q 126 31 112 27 l 126 31 q 146 352 137 58 l 146 352 q 152 560 150 450 l 152 560 q 153 632 153 600 l 153 632 q 154 667 154 660 l 154 667 q 44 679 116 675 l 44 679 z"},"o":{"ha":947,"x_min":55,"x_max":892,"o":"m 460 -16 q 151 96 261 -16 l 151 96 q 55 338 55 195 l 55 338 q 171 601 55 494 l 171 601 q 494 716 295 716 l 494 716 q 771 635 661 716 l 771 635 q 861 524 829 593 l 861 524 q 892 387 892 459 l 892 387 q 768 94 892 206 l 768 94 q 460 -16 647 -16 l 460 -16 z m 509 25 q 693 110 617 25 l 693 110 q 770 314 770 194 l 770 314 q 676 576 770 470 l 676 576 q 457 678 584 678 l 457 678 q 262 606 343 678 l 262 606 q 170 380 170 524 l 170 380 q 266 135 170 241 l 266 135 q 509 25 367 25 l 509 25 z"},"p":{"ha":639,"x_min":48,"x_max":609,"o":"m 275 418 l 275 290 q 276 183 275 232 l 276 183 q 280 31 277 50 l 280 31 q 341 24 296 28 l 341 24 q 377 20 357 22 l 377 20 l 394 18 l 401 18 l 407 17 l 412 -4 q 321 -1 389 -3 l 321 -1 q 221 0 258 0 l 221 0 q 126 -1 182 0 l 126 -1 q 48 -4 68 -3 l 48 -4 l 52 17 q 71 19 56 18 l 71 19 l 85 21 l 101 23 q 158 31 142 28 l 158 31 q 162 188 161 60 l 162 188 q 163 293 163 236 l 163 293 l 163 468 q 162 544 162 509 l 162 544 q 158 669 161 647 l 158 669 q 106 678 146 673 l 106 678 q 75 681 93 679 l 75 681 l 62 682 l 56 683 l 51 683 l 48 704 l 119 704 l 153 705 l 270 705 q 511 676 440 705 l 511 676 q 593 610 569 652 l 593 610 q 606 578 602 595 l 606 578 q 609 553 609 565 l 609 553 q 540 394 609 463 l 540 394 q 424 322 497 351 l 424 322 q 369 304 397 312 l 369 304 q 330 296 346 298 l 330 296 l 333 321 q 350 326 342 323 l 350 326 q 373 334 362 330 l 373 334 q 425 366 402 347 l 425 366 q 490 517 490 420 l 490 517 q 409 653 490 613 l 409 653 q 280 675 364 675 l 280 675 q 276 568 277 656 l 276 568 q 275 418 275 501 l 275 418 z"},"q":{"ha":946,"x_min":55,"x_max":961,"o":"m 961 -226 l 938 -236 q 745 -136 895 -228 l 745 -136 q 557 -8 603 -49 l 557 -8 l 549 -9 l 539 -10 q 513 -13 524 -12 l 513 -13 l 499 -14 l 484 -15 q 455 -16 467 -16 l 455 -16 q 302 4 371 -16 l 302 4 q 150 91 210 31 l 150 91 q 68 235 90 151 l 68 235 q 57 297 60 265 l 57 297 q 55 322 56 309 l 55 322 l 55 340 q 166 598 55 491 l 166 598 q 490 716 288 716 l 490 716 q 800 608 691 716 l 800 608 q 877 481 855 555 l 877 481 q 889 425 885 454 l 889 425 q 891 403 890 414 l 891 403 l 891 385 q 833 176 891 268 l 833 176 q 685 37 780 91 l 685 37 q 829 -116 722 -18 l 829 -116 q 909 -186 869 -153 l 909 -186 q 961 -226 945 -216 l 961 -226 z m 496 22 q 702 115 625 22 l 702 115 q 773 333 773 202 l 773 333 q 674 578 773 474 l 674 578 q 449 679 577 679 l 449 679 q 253 602 332 679 l 253 602 q 167 377 167 517 l 167 377 q 266 135 167 246 l 266 135 q 496 22 367 22 l 496 22 z"},"r":{"ha":748,"x_min":47,"x_max":766,"o":"m 162 269 l 162 473 q 161 552 161 515 l 161 552 q 157 669 160 657 l 157 669 q 105 676 146 672 l 105 676 q 74 679 91 677 l 74 679 l 60 680 l 55 681 l 50 681 l 47 702 l 263 703 q 338 702 309 703 l 338 702 q 414 699 381 702 l 414 699 q 545 675 500 693 l 545 675 q 631 561 631 641 l 631 561 q 589 459 631 514 l 589 459 q 490 372 548 405 l 490 372 q 523 315 495 361 l 523 315 q 593 205 555 262 l 593 205 q 766 -25 699 46 l 766 -25 l 722 -32 q 526 152 678 -12 l 526 152 q 422 267 475 207 l 422 267 q 387 308 402 290 l 387 308 q 370 328 373 324 l 370 328 q 274 322 294 322 l 274 322 l 274 296 q 275 156 274 239 l 275 156 q 279 31 277 63 l 279 31 q 330 23 290 28 l 330 23 q 361 19 344 21 l 361 19 q 384 17 374 18 l 384 17 l 388 -4 q 310 -1 370 -3 l 310 -1 q 216 0 253 0 l 216 0 q 125 -1 182 0 l 125 -1 q 47 -4 63 -3 l 47 -4 l 51 17 q 70 19 58 17 l 70 19 q 99 22 84 20 l 99 22 q 157 31 139 26 l 157 31 q 161 168 160 50 l 161 168 q 162 269 162 213 l 162 269 z m 274 384 l 274 353 q 396 372 345 353 l 396 372 q 432 390 415 379 l 432 390 q 469 421 453 404 l 469 421 q 510 533 510 467 l 510 533 q 459 628 510 589 l 459 628 q 279 675 398 675 l 279 675 q 275 541 277 647 l 275 541 q 274 384 274 448 l 274 384 z"},"s":{"ha":552,"x_min":63,"x_max":492,"o":"m 86 -95 l 63 -101 q 64 -92 63 -98 l 64 -92 q 66 -75 65 -84 l 66 -75 q 72 -28 69 -51 l 72 -28 q 79 63 79 38 l 79 63 q 80 95 79 71 l 80 95 l 81 118 l 82 143 q 82 221 84 207 l 82 221 l 105 215 q 107 173 104 206 l 107 173 q 112 127 110 141 l 112 127 q 174 49 133 78 l 174 49 q 267 18 216 18 l 267 18 q 368 53 327 18 l 368 53 q 409 144 409 89 l 409 144 q 369 240 409 198 l 369 240 q 281 307 346 265 l 281 307 q 156 405 191 366 l 156 405 q 105 540 105 463 l 105 540 q 153 657 105 608 l 153 657 q 311 716 209 716 l 311 716 q 392 709 350 716 l 392 709 q 423 703 407 707 l 423 703 q 446 698 434 701 l 446 698 q 455 737 450 712 l 455 737 l 460 758 l 464 779 l 487 782 q 463 508 463 612 l 463 508 l 440 518 q 436 594 440 558 l 436 594 q 392 653 426 625 l 392 653 q 303 684 351 684 l 303 684 q 210 651 244 684 l 210 651 q 181 584 181 623 l 181 584 q 225 504 181 541 l 225 504 q 270 470 241 489 l 270 470 l 297 453 l 325 436 q 440 347 407 385 l 440 347 q 492 202 492 286 l 492 202 q 420 41 492 101 l 420 41 q 246 -16 352 -16 l 246 -16 q 108 9 155 -16 l 108 9 q 86 -95 100 -22 l 86 -95 z"},"t":{"ha":746,"x_min":9,"x_max":749,"o":"m 316 368 l 316 413 q 315 555 316 477 l 315 555 q 311 658 313 642 l 311 658 q 132 643 204 658 l 132 643 q 52 616 78 633 l 52 616 q 41 573 47 602 l 41 573 l 37 548 l 32 522 l 9 516 q 11 537 10 522 l 11 537 l 12 550 l 13 565 q 18 630 16 601 l 18 630 q 24 768 25 718 l 24 768 l 47 764 l 47 758 l 48 751 q 49 735 49 742 l 49 735 q 53 699 51 712 l 53 699 q 170 693 67 696 l 170 693 q 376 689 283 689 l 376 689 q 591 693 476 689 l 591 693 q 710 699 696 696 l 710 699 q 717 727 713 707 l 717 727 l 721 745 l 722 753 l 724 761 l 749 765 q 732 639 745 750 l 732 639 q 722 557 727 599 l 722 557 q 717 507 718 520 l 717 507 l 694 513 q 696 616 698 583 l 696 616 q 593 645 677 631 l 593 645 q 435 658 508 658 l 435 658 q 431 552 433 639 l 431 552 q 430 413 430 476 l 430 413 l 430 368 q 431 197 430 296 l 431 197 q 435 31 433 87 l 435 31 q 500 24 447 29 l 500 24 l 520 22 l 539 20 q 564 17 561 17 l 564 17 l 568 -4 q 482 -1 551 -3 l 482 -1 q 372 0 416 0 l 372 0 q 269 -1 334 0 l 269 -1 q 178 -4 198 -3 l 178 -4 l 183 17 q 247 24 199 18 l 247 24 q 311 31 292 29 l 311 31 q 315 196 313 86 l 315 196 q 316 368 316 296 l 316 368 z"},"u":{"ha":857,"x_min":44,"x_max":819,"o":"m 131 287 l 131 443 q 126 669 131 622 l 126 669 q 47 683 100 675 l 47 683 l 44 704 q 213 700 100 700 l 213 700 q 295 701 248 700 l 295 701 q 361 704 343 703 l 361 704 l 356 683 l 345 682 l 333 680 q 306 677 318 679 l 306 677 q 252 669 273 673 l 252 669 q 248 580 250 657 l 248 580 q 247 439 247 510 l 247 439 l 247 306 q 306 85 247 157 l 306 85 q 445 22 356 22 l 445 22 q 589 70 538 22 l 589 70 q 656 329 656 133 l 656 329 l 656 469 q 655 545 655 509 l 655 545 q 651 669 654 648 l 651 669 q 598 677 633 672 l 598 677 q 542 683 561 682 l 542 683 l 535 704 q 697 700 585 700 l 697 700 q 819 704 785 700 l 819 704 l 813 683 q 781 677 805 681 l 781 677 l 763 673 l 743 669 q 739 590 741 659 l 739 590 q 738 537 739 564 l 738 537 l 738 454 q 739 391 738 434 l 739 391 q 740 331 740 349 l 740 331 q 642 54 740 141 l 642 54 q 433 -16 563 -16 l 433 -16 q 204 70 283 -16 l 204 70 q 131 287 131 150 l 131 287 z"},"v":{"ha":747,"x_min":-31,"x_max":801,"o":"m -27 683 l -31 704 q 113 700 33 700 l 113 700 q 215 701 160 700 l 215 701 q 286 704 270 703 l 286 704 l 281 683 q 260 681 271 682 l 260 681 q 233 678 245 679 l 233 678 q 187 669 198 673 l 187 669 q 294 405 193 641 l 294 405 q 416 142 398 164 l 416 142 q 431 174 421 152 l 431 174 q 458 229 444 199 l 458 229 q 529 383 496 310 l 529 383 q 640 669 627 602 l 640 669 q 599 676 629 671 l 599 676 l 573 679 l 548 683 l 543 704 q 689 700 571 700 l 689 700 q 801 704 753 700 l 801 704 l 796 683 q 768 677 785 681 l 768 677 l 753 673 q 735 669 743 671 l 735 669 q 552 320 721 661 l 552 320 q 434 79 491 198 l 434 79 q 375 -44 380 -31 l 375 -44 q 315 81 365 -26 l 315 81 q 266 188 301 113 l 266 188 l 253 217 l 239 247 l 211 308 q 35 669 63 629 l 35 669 l 24 672 q 11 676 18 674 l 11 676 q -27 683 -6 680 l -27 683 z"},"w":{"ha":1054,"x_min":-27,"x_max":1088,"o":"m -23 683 l -27 704 q 120 700 29 700 l 120 700 q 224 701 179 700 l 224 701 q 281 704 262 702 l 281 704 l 276 683 q 234 676 268 681 l 234 676 l 221 674 l 207 672 q 185 669 193 670 l 185 669 q 208 577 189 652 l 208 577 q 252 414 229 499 l 252 414 q 324 158 312 189 l 324 158 l 326 158 q 356 235 329 166 l 356 235 q 368 267 363 254 l 368 267 q 382 302 376 286 l 382 302 q 412 378 398 343 l 412 378 q 505 643 491 586 l 505 643 q 452 652 488 647 l 452 652 l 438 654 l 425 656 q 407 659 412 658 l 407 659 l 402 680 q 544 676 478 676 l 544 676 q 687 680 639 676 l 687 680 l 684 659 l 662 656 l 640 652 q 604 643 616 648 l 604 643 q 637 554 611 625 l 637 554 q 663 485 646 529 l 663 485 l 677 447 l 691 408 q 786 152 767 199 l 786 152 l 788 152 q 797 183 790 159 l 797 183 l 801 195 l 805 208 q 814 238 810 225 l 814 238 q 860 391 840 324 l 860 391 q 926 669 922 608 l 926 669 q 881 676 909 673 l 881 676 l 857 680 l 832 683 l 827 704 q 958 700 869 700 l 958 700 q 1088 704 1026 700 l 1088 704 l 1085 683 q 1021 669 1045 678 l 1021 669 q 885 310 1003 649 l 885 310 q 803 71 845 194 l 803 71 q 763 -52 768 -36 l 763 -52 q 644 238 742 -8 l 644 238 q 524 546 545 485 l 524 546 q 506 501 519 533 l 506 501 l 500 486 l 494 470 q 480 434 485 447 l 480 434 q 412 261 440 333 l 412 261 q 285 -52 319 26 l 285 -52 q 241 79 274 -25 l 241 79 q 210 182 230 117 l 210 182 l 193 238 l 176 295 q 52 669 82 603 l 52 669 q -23 683 34 674 l -23 683 z"},"x":{"ha":709,"x_min":-22,"x_max":720,"o":"m 720 -36 l 678 -46 q 470 161 592 19 l 470 161 q 426 214 449 185 l 426 214 q 387 262 409 234 l 387 262 q 334 326 342 317 l 334 326 q 246 197 312 302 l 246 197 q 150 31 177 87 l 150 31 q 193 23 166 27 l 193 23 q 233 17 219 19 l 233 17 l 236 -4 q 177 -2 233 -4 l 177 -2 q 87 0 121 0 l 87 0 q -22 -4 28 0 l -22 -4 l -15 17 l 1 19 l 17 22 q 48 31 36 26 l 48 31 q 182 188 73 47 l 182 188 q 223 243 201 213 l 223 243 q 261 293 239 264 l 261 293 q 310 358 303 350 l 310 358 q 249 438 287 387 l 249 438 l 216 483 l 182 529 q 73 669 99 642 l 73 669 q 42 677 62 673 l 42 677 l 24 680 l 8 683 l 5 704 q 52 701 15 702 l 52 701 q 158 700 95 700 l 158 700 q 317 704 235 700 l 317 704 l 311 683 q 226 669 261 678 l 226 669 q 300 555 236 649 l 300 555 q 382 440 365 460 l 382 440 q 415 485 394 455 l 415 485 q 460 550 438 517 l 460 550 q 535 669 518 635 l 535 669 q 498 678 524 673 l 498 678 q 478 681 489 679 l 478 681 l 470 682 l 464 683 l 460 704 q 590 700 506 700 l 590 700 q 648 701 619 700 l 648 701 q 694 704 672 702 l 694 704 l 692 683 q 660 676 682 680 l 660 676 l 644 672 q 630 669 635 670 l 630 669 q 522 551 618 665 l 522 551 q 450 465 488 511 l 450 465 q 404 409 418 427 l 404 409 q 468 319 423 384 l 468 319 q 510 258 483 298 l 510 258 l 533 226 l 557 192 q 720 -36 679 18 l 720 -36 z"},"y":{"ha":654,"x_min":-35,"x_max":717,"o":"m 286 220 l 286 281 q 283 318 285 301 l 283 318 q 175 487 276 340 l 175 487 q 39 669 71 639 l 39 669 q 7 677 31 673 l 7 677 l -13 680 q -31 683 -25 682 l -31 683 l -35 704 q 139 700 -1 700 l 139 700 q 224 701 181 700 l 224 701 q 277 704 266 702 l 277 704 l 272 683 q 231 676 263 681 l 231 676 l 207 673 q 186 669 194 671 l 186 669 q 293 498 220 609 l 293 498 l 306 478 l 319 458 q 343 421 335 434 l 343 421 q 378 366 368 383 l 378 366 q 411 420 382 373 l 411 420 q 425 441 419 433 l 425 441 l 439 464 q 469 513 456 491 l 469 513 q 551 669 549 644 l 551 669 q 509 677 537 672 l 509 677 q 488 681 499 679 l 488 681 l 479 682 q 473 683 476 683 l 473 683 l 470 704 q 596 700 500 700 l 596 700 q 665 701 629 700 l 665 701 q 717 704 699 702 l 717 704 l 714 683 q 700 680 710 682 l 700 680 l 691 679 l 682 677 q 646 669 659 673 l 646 669 q 522 511 630 664 l 522 511 q 404 326 415 359 l 404 326 q 401 293 402 314 l 401 293 q 400 255 400 275 l 400 255 l 400 180 q 401 123 400 150 l 401 123 q 405 31 402 47 l 405 31 q 451 24 412 29 l 451 24 l 466 22 l 481 20 q 502 17 496 18 l 502 17 l 504 -4 q 432 -1 488 -3 l 432 -1 q 325 0 376 0 l 325 0 q 254 -1 297 0 l 254 -1 q 188 -4 209 -3 l 188 -4 l 193 17 q 212 19 201 18 l 212 19 q 236 23 224 21 l 236 23 q 281 31 266 27 l 281 31 q 285 107 284 41 l 285 107 q 286 220 286 157 l 286 220 z"},"z":{"ha":718,"x_min":27,"x_max":675,"o":"m 652 221 l 675 227 q 671 206 675 226 l 671 206 q 668 189 670 197 l 668 189 q 665 169 667 179 l 665 169 q 647 64 655 111 l 647 64 q 620 -115 623 -83 l 620 -115 l 597 -108 q 598 -88 597 -103 l 598 -88 l 599 -74 l 600 -60 q 602 -12 602 -24 l 602 -12 q 481 -3 594 -7 l 481 -3 q 300 0 382 0 l 300 0 q 181 -2 267 0 l 181 -2 q 27 -6 92 -4 l 27 -6 q 275 325 64 33 l 275 325 q 510 659 485 614 l 510 659 q 427 657 483 660 l 427 657 q 309 649 367 654 l 309 649 q 136 616 156 635 l 136 616 q 117 555 130 601 l 117 555 l 111 537 l 107 522 q 100 500 102 505 l 100 500 l 77 497 q 100 666 91 558 l 100 666 q 106 745 103 701 l 106 745 l 107 761 l 108 775 q 109 796 109 790 l 109 796 l 132 791 q 133 767 132 782 l 133 767 l 134 740 q 135 698 134 707 l 135 698 q 260 692 149 695 l 260 692 q 341 690 301 691 l 341 690 q 388 689 378 689 l 388 689 l 433 689 q 516 690 474 690 l 516 690 q 674 694 634 692 l 674 694 q 434 370 631 640 l 434 370 q 196 36 235 95 l 196 36 q 430 46 304 32 l 430 46 q 610 91 574 61 l 610 91 q 633 153 618 102 l 633 153 q 644 193 638 169 l 644 193 l 647 201 l 649 209 q 652 221 651 217 l 652 221 z"},"{":{"ha":350,"x_min":30,"x_max":310,"o":"m 310 -103 l 297 -128 q 158 -83 215 -121 l 158 -83 q 88 44 88 -36 l 88 44 q 102 155 88 60 l 102 155 q 111 222 108 202 l 111 222 q 115 267 115 256 l 115 267 q 97 326 115 306 l 97 326 q 30 354 77 347 l 30 354 l 38 377 q 109 451 109 377 l 109 451 q 103 528 109 459 l 103 528 q 97 614 97 596 l 97 614 q 308 780 97 761 l 308 780 l 303 752 q 226 726 255 750 l 226 726 q 190 633 189 696 l 190 633 l 193 492 q 161 404 194 440 l 161 404 q 132 379 149 391 l 132 379 l 125 375 l 119 370 q 108 363 111 365 l 108 363 q 198 216 207 319 l 198 216 l 183 43 q 223 -72 176 -37 l 223 -72 q 266 -93 240 -85 l 266 -93 l 289 -99 l 300 -101 l 310 -103 z"},"|":{"ha":281,"x_min":108,"x_max":174,"o":"m 174 -260 l 108 -260 l 108 783 l 174 783 l 174 -260 z"},"}":{"ha":350,"x_min":40,"x_max":320,"o":"m 53 -128 l 40 -103 l 50 -101 l 61 -99 l 84 -93 q 128 -72 110 -85 l 128 -72 q 167 43 174 -37 l 167 43 l 152 216 q 242 363 143 319 l 242 363 q 231 370 239 365 l 231 370 l 225 375 l 218 379 q 189 404 201 391 l 189 404 q 157 492 156 440 l 157 492 l 160 633 q 124 726 161 696 l 124 726 q 47 752 95 750 l 47 752 l 42 780 q 253 614 253 761 l 253 614 q 247 528 253 596 l 247 528 q 241 451 241 459 l 241 451 q 312 377 241 377 l 312 377 l 320 354 q 253 326 273 347 l 253 326 q 235 267 235 306 l 235 267 q 249 155 235 250 l 249 155 l 253 120 q 258 88 256 101 l 258 88 q 262 44 262 55 l 262 44 q 192 -83 262 -36 l 192 -83 q 53 -128 135 -121 l 53 -128 z"},"~":{"ha":610,"x_min":80,"x_max":527,"o":"m 527 366 l 522 360 l 516 353 l 505 338 q 477 309 490 320 l 477 309 q 413 276 442 275 l 413 276 q 353 290 396 276 l 353 290 q 319 301 338 294 l 319 301 q 305 306 313 303 l 305 306 l 299 308 l 294 310 l 290 312 l 285 314 q 272 318 278 316 l 272 318 q 241 330 255 325 l 241 330 q 188 345 199 345 l 188 345 q 142 324 172 345 l 142 324 q 119 306 131 316 l 119 306 q 102 291 109 298 l 102 291 l 80 309 q 90 322 86 316 l 90 322 l 102 336 q 130 366 117 353 l 130 366 q 194 399 166 399 l 194 399 q 255 383 210 399 l 255 383 q 290 371 270 378 l 290 371 l 297 368 l 304 365 q 315 361 312 362 l 315 361 l 320 359 l 326 357 l 338 352 q 367 341 354 346 l 367 341 q 421 330 404 329 l 421 330 q 467 351 440 331 l 467 351 q 488 368 477 358 l 488 368 l 498 377 l 506 384 l 527 366 z"},"¡":{"ha":360,"x_min":108,"x_max":252,"o":"m 182 499 l 222 511 q 229 263 221 459 l 229 263 q 246 1 238 49 l 246 1 q 108 -16 172 -6 l 108 -16 q 148 236 119 36 l 148 236 q 182 499 178 439 l 182 499 z m 139 702 l 249 716 l 252 609 l 145 596 l 139 702 z"},"¢":{"ha":566,"x_min":71,"x_max":506,"o":"m 355 534 l 328 165 q 420 165 366 155 l 420 165 q 506 196 475 174 l 506 196 l 499 157 q 478 146 491 151 l 478 146 q 442 134 462 139 l 442 134 q 324 122 389 120 l 324 122 q 318 -34 318 60 l 318 -34 l 265 -44 q 286 125 274 -17 l 286 125 q 124 197 181 138 l 124 197 q 71 334 71 252 l 71 334 q 167 520 71 456 l 167 520 q 317 568 230 563 l 317 568 q 321 653 320 613 l 321 653 q 320 707 322 689 l 320 707 l 374 723 q 358 570 362 634 l 358 570 q 426 565 393 570 l 426 565 l 438 563 l 449 561 q 463 558 460 558 l 463 558 q 469 585 464 564 l 469 585 q 474 614 472 605 l 474 614 l 497 617 q 487 524 491 589 l 487 524 q 484 409 483 454 l 484 409 l 461 411 q 459 444 461 424 l 459 444 q 455 471 457 462 l 455 471 q 421 510 445 493 l 421 510 q 355 534 391 532 l 355 534 z m 289 172 l 316 533 q 213 484 251 528 l 213 484 q 177 375 177 441 l 177 375 q 210 245 177 301 l 210 245 q 289 172 241 193 l 289 172 z"},"£":{"ha":535,"x_min":32,"x_max":520,"o":"m 497 171 l 520 178 q 514 135 518 167 l 514 135 q 505 60 510 100 l 505 60 q 492 -104 494 -45 l 492 -104 l 469 -98 l 469 -90 l 468 -81 l 467 -62 q 464 -18 466 -37 l 464 -18 q 332 -4 451 -10 l 332 -4 q 245 -1 291 -2 l 245 -1 q 192 0 207 0 l 192 0 q 117 -1 166 0 l 117 -1 q 47 -4 65 -3 l 47 -4 l 59 18 q 117 49 92 21 l 117 49 q 147 137 147 82 l 147 137 q 142 246 147 185 l 142 246 q 132 333 137 297 l 132 333 q 84 330 110 333 l 84 330 q 32 320 54 326 l 32 320 l 43 361 l 130 362 l 127 395 l 124 430 q 120 509 120 472 l 120 509 q 128 575 120 544 l 128 575 q 159 643 138 614 l 159 643 q 336 716 214 716 l 336 716 q 416 705 378 716 l 416 705 l 429 701 l 434 699 l 439 697 q 453 693 450 693 l 453 693 q 463 738 456 705 l 463 738 q 473 789 470 771 l 473 789 l 496 790 q 474 524 472 666 l 474 524 l 451 530 q 449 571 451 545 l 449 571 q 445 605 447 592 l 445 605 q 432 626 440 615 l 432 626 q 407 652 421 641 l 407 652 q 323 684 370 684 l 323 684 q 226 617 248 684 l 226 617 q 219 568 219 596 l 219 568 q 219 550 218 560 l 219 550 l 219 540 q 231 364 219 479 l 231 364 q 259 366 237 364 l 259 366 q 307 369 282 367 l 307 369 q 386 380 373 375 l 386 380 l 372 333 l 234 333 q 236 315 234 328 l 236 315 l 237 301 l 239 286 q 243 221 243 246 l 243 221 q 216 125 243 173 l 216 125 q 161 52 197 91 l 161 52 l 271 52 q 402 59 334 52 l 402 59 q 448 64 428 61 l 448 64 q 472 68 466 66 l 472 68 q 484 114 475 78 l 484 114 q 491 145 487 126 l 491 145 l 494 159 l 497 171 z"},"⁄":{"ha":324,"x_min":-70,"x_max":394,"o":"m 394 740 l -31 -82 l -70 -58 l 353 763 l 394 740 z"},"¥":{"ha":560,"x_min":-18,"x_max":598,"o":"m 481 224 l 470 187 l 337 187 l 337 136 q 338 97 337 114 l 338 97 q 342 32 339 47 l 342 32 l 351 30 l 363 28 q 388 24 377 26 l 388 24 q 432 17 420 18 l 432 17 l 434 -4 q 366 -1 418 -3 l 366 -1 q 291 0 317 0 l 291 0 q 221 -1 264 0 l 221 -1 q 155 -4 177 -3 l 155 -4 l 161 17 q 243 32 200 21 l 243 32 q 248 167 248 48 l 248 167 l 248 187 q 178 185 226 187 l 178 185 l 135 182 l 92 180 l 103 217 l 248 217 l 248 272 q 180 269 227 272 l 180 269 l 139 267 l 97 264 l 108 302 l 248 302 l 248 319 q 215 379 244 325 l 215 379 q 186 431 198 410 l 186 431 q 154 489 169 462 l 154 489 q 43 674 67 645 l 43 674 q -15 682 17 679 l -15 682 l -18 704 q 101 700 30 700 l 101 700 q 243 704 209 700 l 243 704 l 237 682 q 196 678 226 681 l 196 678 l 185 677 l 175 676 q 160 674 164 674 l 160 674 q 193 607 175 642 l 193 607 q 237 518 216 559 l 237 518 q 318 368 294 406 l 318 368 q 349 425 327 383 l 349 425 q 396 520 374 474 l 396 520 q 461 674 460 650 l 461 674 q 442 676 454 675 l 442 676 l 419 678 q 379 682 390 681 l 379 682 l 374 704 q 421 701 383 702 l 421 701 q 499 700 460 700 l 499 700 q 555 701 525 700 l 555 701 q 598 704 582 702 l 598 704 l 596 682 q 539 674 573 680 l 539 674 q 440 520 524 665 l 440 520 q 337 328 360 381 l 337 328 l 337 302 q 415 306 354 302 l 415 306 q 459 309 444 308 l 459 309 q 495 310 482 310 l 495 310 l 483 272 l 337 272 l 337 217 q 408 221 355 217 l 408 221 q 481 224 461 224 l 481 224 z"},"ƒ":{"ha":444,"x_min":13,"x_max":479,"o":"m 145 -160 l 92 -184 q 103 69 97 -133 l 103 69 l 104 107 l 105 144 q 107 212 107 190 l 107 212 q 111 303 110 283 l 111 303 q 60 301 89 303 l 60 301 q 13 295 32 298 l 13 295 l 21 333 l 113 333 q 125 467 118 420 l 125 467 q 157 590 136 541 l 157 590 q 348 716 210 716 l 348 716 q 402 712 375 716 l 402 712 q 422 708 412 710 l 422 708 q 436 705 430 707 l 436 705 q 446 745 439 715 l 446 745 q 456 790 453 774 l 456 790 l 479 794 q 457 528 455 687 l 457 528 l 434 534 q 432 583 434 555 l 432 583 q 430 605 431 593 l 430 605 l 429 615 l 428 623 q 392 669 418 652 l 392 669 q 342 685 369 685 l 342 685 q 252 610 278 685 l 252 610 q 225 474 235 561 l 225 474 q 217 401 222 447 l 217 401 l 214 366 l 211 333 q 288 338 226 333 l 288 338 q 374 346 355 343 l 374 346 l 362 303 l 208 303 q 195 209 203 276 l 195 209 q 186 145 191 184 l 186 145 l 182 111 l 178 76 q 145 -160 154 -111 l 145 -160 z"},"§":{"ha":490,"x_min":43,"x_max":457,"o":"m 198 602 q 238 536 198 567 l 238 536 q 301 489 260 518 l 301 489 l 333 465 q 366 440 351 451 l 366 440 q 457 262 457 369 l 457 262 q 383 47 457 149 l 383 47 q 193 -64 302 -64 l 193 -64 q 145 -58 173 -64 l 145 -58 q 106 -47 118 -53 l 106 -47 q 102 -69 105 -54 l 102 -69 q 100 -83 101 -77 l 100 -83 q 97 -100 99 -91 l 97 -100 l 67 -105 q 75 8 71 -71 l 75 8 q 77 112 78 89 l 77 112 l 107 109 q 109 78 107 104 l 109 78 l 111 56 l 112 34 q 163 -3 131 10 l 163 -3 q 219 -14 191 -14 l 219 -14 q 277 4 252 -14 l 277 4 q 303 53 303 24 l 303 53 q 290 99 303 80 l 290 99 q 236 149 277 116 l 236 149 q 211 169 225 157 l 211 169 l 186 190 q 137 230 153 218 l 137 230 q 43 418 43 302 l 43 418 q 131 629 43 537 l 131 629 q 314 717 216 717 l 314 717 q 383 697 336 717 l 383 697 q 386 706 384 700 l 386 706 l 390 716 q 397 734 396 728 l 397 734 l 426 737 q 424 724 425 733 l 424 724 l 422 716 l 421 707 q 414 663 416 683 l 414 663 q 405 540 405 600 l 405 540 l 378 542 l 375 610 q 278 676 340 676 l 278 676 q 226 657 250 676 l 226 657 q 198 602 198 635 l 198 602 z m 97 463 q 118 373 97 411 l 118 373 q 187 297 138 336 l 187 297 q 317 188 271 230 l 317 188 q 361 93 361 148 l 361 93 l 364 92 q 402 203 402 146 l 402 203 q 384 296 402 259 l 384 296 q 312 375 364 335 l 312 375 q 282 397 301 383 l 282 397 l 266 409 l 249 422 q 191 466 206 453 l 191 466 q 140 577 135 516 l 140 577 l 136 578 q 97 463 97 533 l 97 463 z"},"¤":{"ha":478,"x_min":38,"x_max":440,"o":"m 440 172 l 400 133 l 342 202 q 239 166 297 166 l 239 166 q 136 202 179 166 l 136 202 l 78 133 l 38 172 l 102 229 q 74 278 85 250 l 74 278 q 60 347 60 312 l 60 347 q 105 464 60 417 l 105 464 l 41 519 l 81 558 l 138 490 q 239 528 181 528 l 239 528 q 343 490 301 528 l 343 490 l 398 558 l 438 519 l 377 464 q 420 347 420 421 l 420 347 q 375 230 420 279 l 375 230 l 440 172 z m 239 485 q 156 441 189 485 l 156 441 q 125 347 125 400 l 125 347 q 158 249 125 290 l 158 249 q 239 207 191 207 l 239 207 q 321 249 287 207 l 321 249 q 354 347 354 290 l 354 347 q 321 444 354 403 l 321 444 q 239 485 287 485 l 239 485 z"},"'":{"ha":148,"x_min":25,"x_max":123,"o":"m 89 474 l 59 468 q 25 727 45 614 l 25 727 l 123 716 q 114 658 118 681 l 114 658 l 106 597 q 89 474 96 527 l 89 474 z"},"“":{"ha":350,"x_min":61,"x_max":290,"o":"m 61 752 l 88 751 q 163 520 106 638 l 163 520 l 74 497 q 71 557 73 520 l 71 557 l 69 620 q 61 752 65 698 l 61 752 z m 188 752 l 215 751 q 290 520 233 638 l 290 520 l 201 497 q 198 557 200 520 l 198 557 l 196 620 q 188 752 192 698 l 188 752 z"},"«":{"ha":540,"x_min":79,"x_max":461,"o":"m 281 278 l 266 206 q 172 287 256 216 l 172 287 q 112 337 142 312 l 112 337 q 79 364 85 360 l 79 364 q 120 398 88 371 l 120 398 l 134 409 l 149 421 l 179 445 q 267 519 257 508 l 267 519 l 277 483 q 220 429 258 466 l 220 429 q 189 398 206 415 l 189 398 l 174 383 l 168 377 l 162 371 q 228 316 186 348 l 228 316 q 281 278 265 288 l 281 278 z m 461 278 l 446 206 q 352 287 436 216 l 352 287 q 292 337 322 312 l 292 337 q 259 364 265 360 l 259 364 q 300 398 268 371 l 300 398 l 314 409 l 329 421 l 359 445 q 447 519 437 508 l 447 519 l 457 483 q 400 429 438 466 l 400 429 q 369 398 386 415 l 369 398 l 354 383 l 348 377 l 342 371 q 408 316 366 348 l 408 316 q 461 278 445 288 l 461 278 z"},"‹":{"ha":360,"x_min":79,"x_max":281,"o":"m 281 278 l 266 206 q 172 287 256 216 l 172 287 q 112 337 142 312 l 112 337 q 79 364 85 360 l 79 364 q 120 398 88 371 l 120 398 l 134 409 l 149 421 l 179 445 q 267 519 257 508 l 267 519 l 277 483 q 220 429 258 466 l 220 429 q 189 398 206 415 l 189 398 l 174 383 l 168 377 l 162 371 q 228 316 186 348 l 228 316 q 281 278 265 288 l 281 278 z"},"›":{"ha":360,"x_min":79,"x_max":281,"o":"m 79 447 l 94 519 q 188 438 104 509 l 188 438 q 248 388 218 413 l 248 388 q 281 361 275 365 l 281 361 q 240 328 272 354 l 240 328 l 226 316 l 211 304 l 181 280 q 93 206 103 217 l 93 206 l 83 242 q 141 297 103 260 l 141 297 q 199 354 171 326 l 199 354 q 133 408 175 376 l 133 408 q 79 447 95 438 l 79 447 z"},"ﬁ":{"ha":1076,"x_min":48,"x_max":1028,"o":"m 163 328 l 163 390 q 162 553 163 466 l 162 553 q 158 669 160 650 l 158 669 q 111 677 150 673 l 111 677 q 79 680 99 679 l 79 680 l 65 682 l 52 683 l 48 704 q 85 703 60 703 l 85 703 l 109 702 l 134 701 l 185 701 l 196 700 l 288 700 q 390 701 344 700 l 390 701 q 540 706 527 702 l 540 706 q 547 738 542 716 l 547 738 q 553 777 551 761 l 553 777 l 576 782 q 565 670 570 749 l 565 670 q 559 536 560 594 l 559 536 l 536 544 q 535 582 536 558 l 535 582 q 531 623 533 610 l 531 623 q 413 659 507 645 l 413 659 q 339 667 378 664 l 339 667 q 285 670 306 670 l 285 670 q 279 559 282 661 l 279 559 q 277 402 277 473 l 277 402 l 277 380 q 326 381 297 380 l 326 381 q 389 383 359 382 l 389 383 q 488 394 467 387 l 488 394 q 495 422 491 404 l 495 422 l 499 438 l 502 453 l 523 456 q 514 355 518 417 l 514 355 q 507 233 508 286 l 507 233 l 486 239 q 481 324 486 274 l 481 324 q 391 343 465 336 l 391 343 q 277 349 333 349 l 277 349 l 277 319 q 279 154 277 244 l 279 154 q 285 31 282 50 l 285 31 q 346 22 310 26 l 346 22 q 373 19 358 20 l 373 19 l 385 18 l 395 17 l 399 -4 q 215 0 329 0 l 215 0 q 48 -4 118 0 l 48 -4 l 52 17 q 70 19 55 18 l 70 19 l 83 20 l 99 22 q 158 31 141 26 l 158 31 q 162 147 160 47 l 162 147 q 163 328 163 237 l 163 328 z m 913 410 l 913 348 q 914 148 913 229 l 914 148 q 918 31 915 45 l 918 31 q 972 23 934 27 l 972 23 q 1002 19 986 21 l 1002 19 l 1014 18 l 1019 17 l 1023 17 l 1028 -4 q 949 -1 1012 -3 l 949 -1 q 840 0 888 0 l 840 0 q 761 -1 812 0 l 761 -1 q 684 -4 705 -3 l 684 -4 l 688 17 q 740 23 701 18 l 740 23 q 794 31 778 28 l 794 31 q 798 173 797 59 l 798 173 q 799 270 799 217 l 799 270 l 799 464 q 798 542 798 505 l 798 542 q 794 669 797 647 l 794 669 q 741 677 781 672 l 741 677 q 711 681 726 679 l 711 681 q 689 683 697 682 l 689 683 l 684 704 q 874 700 722 700 l 874 700 q 964 701 914 700 l 964 701 q 1028 704 1016 703 l 1028 704 l 1023 683 q 977 677 1014 682 l 977 677 l 947 673 q 918 669 930 670 l 918 669 q 913 410 913 644 l 913 410 z"},"ﬂ":{"ha":1225,"x_min":48,"x_max":1217,"o":"m 163 328 l 163 390 q 162 553 163 466 l 162 553 q 158 669 160 650 l 158 669 q 111 677 150 673 l 111 677 q 79 680 99 679 l 79 680 l 65 682 l 52 683 l 48 704 q 85 703 60 703 l 85 703 l 109 702 l 134 701 l 185 701 l 196 700 l 288 700 q 390 701 344 700 l 390 701 q 540 706 527 702 l 540 706 q 547 738 542 716 l 547 738 q 553 777 551 761 l 553 777 l 576 782 q 565 670 570 749 l 565 670 q 559 536 560 594 l 559 536 l 536 544 q 535 582 536 558 l 535 582 q 531 623 533 610 l 531 623 q 413 659 507 645 l 413 659 q 339 667 378 664 l 339 667 q 285 670 306 670 l 285 670 q 279 559 282 661 l 279 559 q 277 402 277 473 l 277 402 l 277 380 q 326 381 297 380 l 326 381 q 389 383 359 382 l 389 383 q 488 394 467 387 l 488 394 q 495 422 491 404 l 495 422 l 499 438 l 502 453 l 523 456 q 514 355 518 417 l 514 355 q 507 233 508 286 l 507 233 l 486 239 q 481 324 486 274 l 481 324 q 391 343 465 336 l 391 343 q 277 349 333 349 l 277 349 l 277 319 q 279 154 277 244 l 279 154 q 285 31 282 50 l 285 31 q 346 22 310 26 l 346 22 q 373 19 358 20 l 373 19 l 385 18 l 395 17 l 399 -4 q 215 0 329 0 l 215 0 q 48 -4 118 0 l 48 -4 l 52 17 q 70 19 55 18 l 70 19 l 83 20 l 99 22 q 158 31 141 26 l 158 31 q 162 147 160 47 l 162 147 q 163 328 163 237 l 163 328 z m 799 279 l 799 483 q 798 556 799 522 l 798 556 q 794 669 797 648 l 794 669 q 742 677 777 672 l 742 677 q 687 683 706 682 l 687 683 l 684 704 q 757 701 703 703 l 757 701 q 857 700 811 700 l 857 700 q 967 701 908 700 l 967 701 q 1041 704 1026 703 l 1041 704 l 1036 683 q 983 677 1024 682 l 983 677 l 950 673 q 918 669 931 670 l 918 669 q 914 559 915 648 l 914 559 q 913 413 913 492 l 913 413 l 913 377 q 914 164 913 253 l 914 164 q 918 32 915 47 l 918 32 q 1068 48 1001 32 l 1068 48 q 1157 83 1125 62 l 1157 83 q 1178 142 1166 104 l 1178 142 q 1186 172 1181 154 l 1186 172 l 1190 185 l 1193 197 l 1217 201 q 1164 -128 1182 46 l 1164 -128 l 1141 -123 q 1144 -69 1141 -118 l 1144 -69 q 1145 -34 1145 -47 l 1145 -34 q 1146 -6 1146 -15 l 1146 -6 q 1012 -2 1130 -5 l 1012 -2 q 854 0 898 0 l 854 0 q 761 -1 815 0 l 761 -1 q 684 -4 704 -3 l 684 -4 l 688 17 q 708 19 695 17 l 708 19 q 739 22 724 20 l 739 22 q 794 31 780 26 l 794 31 q 798 178 797 60 l 798 178 q 799 279 799 224 l 799 279 z"},"–":{"ha":500,"x_min":0,"x_max":500,"o":"m 8 400 l 500 400 l 492 336 q 472 337 487 336 l 472 337 q 432 338 454 338 l 432 338 q 309 340 372 340 l 309 340 q 0 326 120 340 l 0 326 l 8 400 z"},"†":{"ha":475,"x_min":27,"x_max":448,"o":"m 256 -89 l 212 -89 q 212 58 214 -18 l 212 58 q 202 470 206 239 l 202 470 q 116 465 167 470 l 116 465 q 27 455 83 462 l 27 455 l 35 521 l 201 516 q 188 700 200 588 l 188 700 l 276 707 q 265 516 265 549 l 265 516 l 448 523 l 439 459 q 264 471 328 471 l 264 471 q 256 58 260 169 l 256 58 q 255 -17 255 18 l 255 -17 q 256 -89 255 -63 l 256 -89 z"},"‡":{"ha":475,"x_min":27,"x_max":448,"o":"m 439 271 q 354 279 385 277 l 354 279 q 261 283 305 283 l 261 283 q 256 57 259 156 l 256 57 q 255 -17 255 16 l 255 -17 q 256 -89 255 -64 l 256 -89 l 211 -89 q 211 57 213 -20 l 211 57 q 208 174 209 107 l 208 174 l 207 227 q 206 282 207 258 l 206 282 q 110 277 164 282 l 110 277 q 66 272 90 275 l 66 272 l 46 269 l 27 267 l 35 333 l 205 328 q 202 470 203 395 l 202 470 q 111 465 159 470 l 111 465 l 69 460 l 27 455 l 35 520 l 201 516 q 188 700 200 588 l 188 700 l 276 707 q 265 516 265 549 l 265 516 l 448 523 l 439 459 q 264 471 329 471 l 264 471 l 263 433 l 263 397 q 262 328 263 351 l 262 328 l 448 335 l 439 271 z"},"·":{"ha":320,"x_min":100,"x_max":221,"o":"m 221 326 l 103 304 l 100 411 l 216 433 l 221 326 z"},"¶":{"ha":526,"x_min":13,"x_max":532,"o":"m 305 -63 q 308 108 308 10 l 308 108 l 308 529 q 305 668 307 639 l 305 668 q 189 448 189 648 l 189 448 q 218 317 189 362 l 218 317 q 274 276 240 283 l 274 276 l 276 243 q 94 302 155 258 l 94 302 q 13 479 13 360 l 13 479 q 109 651 13 591 l 109 651 q 311 700 190 701 l 311 700 l 415 700 q 480 699 441 699 l 480 699 l 532 699 l 528 679 q 487 675 506 677 l 487 675 q 451 669 462 672 l 451 669 q 445 385 445 643 l 445 385 l 445 199 l 446 123 q 450 -25 447 40 l 450 -25 q 509 -21 480 -23 l 509 -21 l 514 -40 l 474 -49 l 434 -59 q 361 -79 389 -70 l 361 -79 l 318 -92 l 277 -105 q 199 -135 232 -121 l 199 -135 l 202 -108 l 226 -98 l 249 -87 q 305 -63 280 -74 l 305 -63 z m 399 671 l 383 671 q 355 670 367 671 l 355 670 q 349 385 349 628 l 349 385 l 349 274 q 350 115 349 185 l 350 115 q 355 -46 352 23 l 355 -46 l 378 -41 l 401 -36 q 404 121 404 36 l 404 121 l 404 451 q 403 535 403 494 l 403 535 q 399 671 401 648 l 399 671 z"},"•":{"ha":390,"x_min":103,"x_max":287,"o":"m 103 413 l 252 459 l 287 310 l 130 260 l 103 413 z"},"‚":{"ha":230,"x_min":49,"x_max":175,"o":"m 76 -123 l 49 -121 q 89 134 87 0 l 89 134 l 175 102 q 76 -123 116 -23 l 76 -123 z"},"„":{"ha":350,"x_min":52,"x_max":299,"o":"m 79 -123 l 52 -121 q 92 134 90 0 l 92 134 l 178 102 q 79 -123 119 -23 l 79 -123 z m 200 -123 l 173 -121 q 213 134 211 0 l 213 134 l 299 102 q 200 -123 240 -23 l 200 -123 z"},"”":{"ha":350,"x_min":52,"x_max":299,"o":"m 79 495 l 52 497 q 92 752 89 617 l 92 752 l 178 720 q 79 495 119 595 l 79 495 z m 200 495 l 173 497 q 213 752 211 618 l 213 752 l 299 720 q 200 495 240 595 l 200 495 z"},"»":{"ha":540,"x_min":79,"x_max":461,"o":"m 259 447 l 274 519 q 368 439 283 509 l 368 439 q 400 412 382 427 l 400 412 l 414 400 l 428 389 q 461 361 458 364 l 461 361 q 420 328 452 354 l 420 328 l 406 316 l 391 304 l 361 280 q 273 206 283 217 l 273 206 l 263 242 q 321 297 283 260 l 321 297 q 379 354 351 326 l 379 354 q 313 408 354 376 l 313 408 q 259 447 273 438 l 259 447 z m 79 447 l 94 519 q 188 439 103 509 l 188 439 q 220 412 202 427 l 220 412 l 234 400 l 248 389 q 281 361 278 364 l 281 361 q 240 328 272 354 l 240 328 l 226 316 l 211 304 l 181 280 q 93 206 103 217 l 93 206 l 83 242 q 141 297 103 260 l 141 297 q 199 354 171 326 l 199 354 q 133 408 174 376 l 133 408 q 79 447 93 438 l 79 447 z"},"…":{"ha":1000,"x_min":108,"x_max":888,"o":"m 555 1 l 445 -20 l 441 80 l 551 100 l 555 1 z m 888 1 l 778 -20 l 774 80 l 884 100 l 888 1 z m 222 1 l 112 -20 l 108 80 l 218 100 l 222 1 z"},"‰":{"ha":1124,"x_min":50,"x_max":1074,"o":"m 292 528 q 291 543 292 535 l 291 543 q 289 564 291 554 l 289 564 q 277 613 285 591 l 277 613 q 206 673 254 673 l 206 673 q 151 646 173 673 l 151 646 q 126 552 126 614 l 126 552 q 129 513 126 534 l 129 513 q 142 466 133 487 l 142 466 q 214 408 165 408 l 214 408 q 264 434 242 408 l 264 434 q 292 528 292 466 l 292 528 z m 200 379 q 50 527 50 379 l 50 527 q 98 649 50 599 l 98 649 q 218 700 146 700 l 218 700 q 368 553 368 700 l 368 553 q 318 430 368 481 l 318 430 q 200 379 268 379 l 200 379 z m 225 0 l 145 -6 q 264 193 166 22 l 264 193 q 339 323 296 249 l 339 323 q 355 352 346 337 l 355 352 q 369 377 361 362 l 369 377 q 390 414 386 407 l 390 414 q 429 481 399 429 l 429 481 l 442 503 l 455 526 q 482 573 470 552 l 482 573 q 550 700 549 689 l 550 700 l 629 702 q 529 552 606 676 l 529 552 q 419 368 463 446 l 419 368 q 315 177 380 301 l 315 177 q 225 0 251 56 l 225 0 z m 547 0 q 436 38 476 0 l 436 38 q 397 148 397 77 l 397 148 q 445 269 397 219 l 445 269 q 565 320 493 320 l 565 320 q 715 173 715 320 l 715 173 q 665 50 715 100 l 665 50 q 547 0 616 0 l 547 0 z m 562 29 q 611 55 589 29 l 611 55 q 639 150 639 88 l 639 150 q 638 164 639 156 l 638 164 q 636 183 638 173 l 636 183 q 625 231 632 210 l 625 231 q 553 293 602 293 l 553 293 q 498 266 520 293 l 498 266 q 473 173 473 235 l 473 173 q 476 137 473 157 l 476 137 q 489 89 480 110 l 489 89 q 562 29 513 29 l 562 29 z m 906 0 q 795 38 835 0 l 795 38 q 756 148 756 77 l 756 148 q 804 269 756 219 l 804 269 q 924 320 852 320 l 924 320 q 1074 173 1074 320 l 1074 173 q 1024 50 1074 100 l 1024 50 q 906 0 975 0 l 906 0 z m 921 29 q 970 55 948 29 l 970 55 q 998 150 998 88 l 998 150 q 997 164 998 156 l 997 164 q 995 183 997 173 l 995 183 q 984 231 991 210 l 984 231 q 912 293 961 293 l 912 293 q 857 266 879 293 l 857 266 q 832 173 832 235 l 832 173 q 835 137 832 157 l 835 137 q 848 89 839 110 l 848 89 q 921 29 872 29 l 921 29 z"},"¿":{"ha":610,"x_min":77,"x_max":517,"o":"m 331 533 l 373 543 q 384 464 375 513 l 384 464 l 391 425 l 397 385 q 281 320 325 353 l 281 320 q 213 235 231 282 l 213 235 q 203 195 206 216 l 203 195 q 201 159 201 180 l 201 159 q 232 67 201 108 l 232 67 q 333 18 269 18 l 333 18 q 424 43 384 18 l 424 43 q 472 90 455 62 l 472 90 q 494 184 483 118 l 494 184 l 517 191 q 499 -112 499 47 l 499 -112 l 476 -104 l 475 -75 l 474 -46 q 471 5 473 -15 l 471 5 q 327 -16 419 -16 l 327 -16 q 135 27 201 -16 l 135 27 q 77 127 77 66 l 77 127 q 118 239 77 185 l 118 239 q 157 280 134 260 l 157 280 q 197 313 174 295 l 197 313 q 247 346 219 330 l 247 346 l 270 358 q 295 373 284 366 l 295 373 q 313 441 302 391 l 313 441 q 331 533 320 475 l 331 533 z m 283 702 l 399 716 l 400 620 l 289 604 l 283 702 z"},"`":{"ha":917,"x_min":280,"x_max":517,"o":"m 280 849 l 319 926 q 362 897 332 917 l 362 897 q 426 856 394 876 l 426 856 q 517 800 510 801 l 517 800 l 505 768 q 466 784 497 772 l 466 784 q 394 812 430 799 l 394 812 q 280 849 294 850 l 280 849 z"},"´":{"ha":917,"x_min":401,"x_max":637,"o":"m 599 926 l 637 849 q 523 812 623 850 l 523 812 q 452 784 487 799 l 452 784 q 413 768 420 771 l 413 768 l 401 800 q 492 856 408 801 l 492 856 q 556 897 524 876 l 556 897 q 599 926 586 917 l 599 926 z"},"ˆ":{"ha":917,"x_min":326,"x_max":590,"o":"m 345 772 l 326 795 q 392 856 346 812 l 392 856 q 453 917 441 903 l 453 917 l 461 910 l 469 902 q 488 885 480 893 l 488 885 q 529 849 512 865 l 529 849 q 590 796 578 806 l 590 796 l 571 772 q 551 783 568 774 l 551 783 l 543 788 l 534 793 l 515 803 q 451 838 464 831 l 451 838 q 394 805 434 831 l 394 805 q 345 772 358 782 l 345 772 z"},"˜":{"ha":917,"x_min":299,"x_max":618,"o":"m 590 872 l 618 866 q 588 813 609 839 l 588 813 q 540 781 562 781 l 540 781 q 464 803 516 781 l 464 803 q 386 826 407 826 l 386 826 q 357 820 369 826 l 357 820 q 327 790 340 812 l 327 790 l 299 796 q 311 821 303 807 l 311 821 q 330 852 319 838 l 330 852 q 376 888 356 888 l 376 888 q 447 866 391 888 l 447 866 l 469 857 l 491 849 q 536 841 517 841 l 536 841 l 547 841 q 561 844 555 842 l 561 844 q 590 872 578 851 l 590 872 z"},"¯":{"ha":917,"x_min":328,"x_max":590,"o":"m 338 865 l 590 865 l 584 826 q 539 823 577 826 l 539 823 q 456 817 497 821 l 456 817 q 328 800 339 807 l 328 800 l 338 865 z"},"˘":{"ha":917,"x_min":315,"x_max":602,"o":"m 585 904 l 602 888 q 581 859 592 872 l 581 859 q 549 829 566 842 l 549 829 q 452 797 506 797 l 452 797 q 361 828 401 797 l 361 828 q 315 888 331 853 l 315 888 l 334 904 q 460 856 372 856 l 460 856 q 542 873 505 856 l 542 873 q 585 904 571 886 l 585 904 z"},"˙":{"ha":917,"x_min":387,"x_max":530,"o":"m 387 825 l 445 904 l 530 844 l 471 768 l 387 825 z"},"¨":{"ha":917,"x_min":289,"x_max":628,"o":"m 289 819 l 337 897 l 414 845 l 364 768 l 289 819 z m 503 821 l 552 897 l 628 845 l 577 769 l 503 821 z"},"˚":{"ha":917,"x_min":343,"x_max":574,"o":"m 444 773 q 373 790 400 773 l 373 790 q 343 838 343 808 l 343 838 q 383 901 343 874 l 383 901 q 464 927 420 927 l 464 927 q 574 863 574 927 l 574 863 q 540 804 574 831 l 540 804 q 444 773 502 773 l 444 773 z m 399 855 q 420 809 399 828 l 420 809 q 462 793 439 793 l 462 793 q 499 808 484 793 l 499 808 q 515 846 515 823 l 515 846 q 500 887 515 869 l 500 887 q 455 907 482 907 l 455 907 q 418 893 435 907 l 418 893 q 399 855 399 877 l 399 855 z"},"¸":{"ha":917,"x_min":360,"x_max":548,"o":"m 471 0 l 523 0 l 459 -76 q 548 -157 548 -102 l 548 -157 q 483 -239 548 -209 l 483 -239 q 360 -261 426 -264 l 360 -261 l 369 -229 q 445 -212 418 -230 l 445 -212 q 470 -169 471 -195 l 470 -169 q 392 -97 472 -119 l 392 -97 l 471 0 z"},"˝":{"ha":917,"x_min":290,"x_max":627,"o":"m 445 921 l 481 862 q 389 815 466 856 l 389 815 q 303 768 317 777 l 303 768 l 290 794 q 314 812 294 797 l 314 812 q 360 849 337 830 l 360 849 q 445 921 427 902 l 445 921 z m 591 921 l 627 862 q 536 816 612 856 l 536 816 q 447 768 462 777 l 447 768 l 434 794 q 505 849 443 799 l 505 849 q 591 921 570 902 l 591 921 z"},"˛":{"ha":917,"x_min":358,"x_max":548,"o":"m 463 0 l 495 0 q 488 -8 492 -3 l 488 -8 q 478 -19 483 -13 l 478 -19 q 456 -49 466 -34 l 456 -49 q 431 -126 429 -92 l 431 -126 q 483 -194 433 -174 l 483 -194 q 521 -203 500 -201 l 521 -203 q 548 -203 538 -204 l 548 -203 l 539 -230 q 407 -217 457 -237 l 407 -217 q 358 -157 358 -198 l 358 -157 q 401 -61 358 -116 l 401 -61 q 436 -22 417 -40 l 436 -22 q 463 0 453 -6 l 463 0 z"},"ˇ":{"ha":917,"x_min":327,"x_max":590,"o":"m 572 917 l 590 893 q 564 868 583 886 l 564 868 q 526 832 553 857 l 526 832 q 464 772 473 782 l 464 772 q 429 802 451 782 l 429 802 q 388 839 413 816 l 388 839 q 327 893 334 887 l 327 893 l 346 917 q 365 905 349 915 l 365 905 q 401 884 382 895 l 401 884 q 466 851 452 856 l 466 851 q 524 884 482 858 l 524 884 q 553 904 539 894 l 553 904 q 572 917 567 913 l 572 917 z"},"—":{"ha":1000,"x_min":0,"x_max":1000,"o":"m 8 400 l 1000 400 l 992 336 q 867 338 981 337 l 867 338 q 595 340 733 340 l 595 340 q 242 337 389 340 l 242 337 q 0 326 61 334 l 0 326 l 8 400 z"},"Æ":{"ha":894,"x_min":-103,"x_max":826,"o":"m 533 394 l 533 360 q 651 365 585 360 l 651 365 q 741 376 724 370 l 741 376 q 751 419 745 391 l 751 419 l 772 421 q 758 333 768 409 l 758 333 l 755 303 l 753 288 l 751 275 q 746 235 748 245 l 746 235 l 727 243 q 729 310 729 285 l 729 310 q 643 327 708 321 l 643 327 q 533 331 591 331 l 533 331 l 533 312 q 534 256 533 298 l 534 256 q 535 166 534 212 l 535 166 q 540 29 538 45 l 540 29 q 674 36 611 29 l 674 36 q 781 63 753 45 l 781 63 q 794 112 787 83 l 794 112 l 796 123 l 799 133 q 803 151 801 144 l 803 151 l 826 157 q 808 49 821 135 l 808 49 q 793 -74 796 -37 l 793 -74 l 772 -70 q 771 -9 772 -25 l 771 -9 q 613 -3 735 -6 l 613 -3 q 523 -1 567 -1 l 523 -1 q 467 0 482 0 l 467 0 q 393 -1 441 0 l 393 -1 q 319 -4 344 -3 l 319 -4 l 323 17 l 326 17 l 329 18 l 338 18 q 362 21 350 19 l 362 21 q 416 29 395 25 l 416 29 q 420 126 419 36 l 420 126 q 421 300 421 195 l 421 300 l 421 331 q 322 326 397 331 l 322 326 q 223 318 250 321 l 223 318 q 155 194 201 290 l 155 194 q 90 30 107 92 l 90 30 q 124 22 98 27 l 124 22 q 144 19 132 21 l 144 19 l 152 18 l 158 17 l 162 -4 q 84 -1 148 -3 l 84 -1 q 37 0 60 -1 l 37 0 l 9 0 q -44 -1 -6 0 l -44 -1 q -103 -4 -87 -3 l -103 -4 l -97 17 q -57 23 -91 18 l -57 23 q -32 26 -40 25 l -32 26 q -12 29 -18 28 l -12 29 q 199 363 13 62 l 199 363 q 268 473 225 404 l 268 473 l 284 499 l 299 524 q 328 569 316 551 l 328 569 q 392 672 387 665 l 392 672 q 358 678 383 675 l 358 678 q 318 683 337 681 l 318 683 l 313 704 q 352 703 326 703 l 352 703 l 376 702 l 400 701 l 443 701 l 452 700 l 522 700 q 621 701 576 700 l 621 701 q 777 707 760 703 l 777 707 q 785 754 782 727 l 785 754 l 808 758 q 797 658 805 744 l 797 658 q 791 593 794 626 l 791 593 q 788 551 789 564 l 788 551 l 766 558 l 766 589 q 766 630 767 618 l 766 630 q 657 662 754 649 l 657 662 q 585 670 623 667 l 585 670 q 540 672 554 672 l 540 672 q 535 555 538 663 l 535 555 q 533 394 533 453 l 533 394 z m 421 360 l 421 548 q 419 643 420 630 l 419 643 l 414 644 q 339 518 410 637 l 339 518 q 286 430 306 464 l 286 430 q 248 364 259 385 l 248 364 q 338 359 264 360 l 338 359 q 390 360 361 359 l 390 360 l 421 360 z"},"ª":{"ha":460,"x_min":23,"x_max":442,"o":"m 263 387 l 266 406 l 279 408 l 291 409 q 313 413 305 411 l 313 413 q 305 433 312 415 l 305 433 l 298 448 l 291 464 q 269 514 273 507 l 269 514 q 211 511 256 515 l 211 511 l 194 509 l 177 508 q 154 506 160 506 l 154 506 q 148 492 152 503 l 148 492 q 140 466 144 480 l 140 466 q 125 413 128 430 l 125 413 q 163 406 140 409 l 163 406 l 165 387 l 156 387 l 146 388 l 124 389 q 88 390 97 390 l 88 390 q 54 389 72 390 l 54 389 q 23 387 32 388 l 23 387 l 24 406 q 64 413 47 409 l 64 413 q 134 550 78 426 l 134 550 q 187 678 189 671 l 187 678 q 154 683 176 681 l 154 683 l 154 703 q 190 701 167 702 l 190 701 q 226 700 215 700 l 226 700 q 266 701 234 700 l 266 701 l 292 702 l 305 703 l 316 703 l 314 683 q 277 678 298 682 l 277 678 q 298 628 280 670 l 298 628 q 330 551 313 591 l 330 551 q 336 537 333 543 l 336 537 q 344 519 340 528 l 344 519 q 362 481 354 498 l 362 481 q 397 413 385 433 l 397 413 l 419 409 l 441 406 l 442 387 q 400 389 431 388 l 400 389 q 348 390 366 390 l 348 390 q 305 389 337 390 l 305 389 q 263 387 274 388 l 263 387 z m 163 536 l 263 536 q 250 570 258 548 l 250 570 l 242 588 l 235 606 q 211 666 218 650 l 211 666 q 199 635 206 654 l 199 635 q 186 598 195 622 l 186 598 q 163 536 168 549 l 163 536 z"},"Ł":{"ha":592,"x_min":51,"x_max":584,"o":"m 54 683 l 51 704 q 126 701 70 702 l 126 701 q 240 700 184 700 l 240 700 q 335 701 281 700 l 335 701 q 405 704 393 703 l 405 704 l 400 683 q 350 677 391 682 l 350 677 l 317 673 q 285 669 298 670 l 285 669 q 281 563 282 651 l 281 563 q 280 491 280 530 l 280 491 l 280 402 q 349 428 305 410 l 349 428 q 413 456 383 442 l 413 456 l 412 440 l 410 424 q 408 400 409 405 l 408 400 q 342 384 383 397 l 342 384 q 280 363 306 373 l 280 363 l 280 248 q 281 154 280 196 l 281 154 q 285 32 282 42 l 285 32 q 447 51 376 32 l 447 51 q 524 84 503 65 l 524 84 q 545 142 534 104 l 545 142 q 553 171 548 154 l 553 171 l 557 184 l 560 196 l 584 200 q 531 -128 551 66 l 531 -128 l 508 -123 q 509 -103 508 -119 l 509 -103 l 510 -87 l 511 -69 q 513 -6 514 -22 l 513 -6 q 379 -2 497 -5 l 379 -2 q 205 0 262 0 l 205 0 q 126 -1 177 0 l 126 -1 q 51 -4 71 -3 l 51 -4 l 55 17 q 75 19 61 17 l 75 19 q 106 22 91 20 l 106 22 q 161 31 147 27 l 161 31 q 165 152 164 57 l 165 152 q 166 310 166 223 l 166 310 l 166 333 q 118 316 154 329 l 118 316 q 59 296 88 306 l 59 296 l 60 305 l 61 316 q 62 341 62 329 l 62 341 q 166 369 124 354 l 166 369 l 166 483 q 165 558 166 524 l 165 558 q 161 669 164 651 l 161 669 q 109 677 144 672 l 109 677 q 54 683 73 682 l 54 683 z"},"Ø":{"ha":947,"x_min":55,"x_max":892,"o":"m 130 -28 l 64 -16 l 68 -12 l 73 -8 l 84 1 q 109 24 97 13 l 109 24 q 167 81 142 54 l 167 81 q 55 338 55 179 l 55 338 q 171 601 55 494 l 171 601 q 494 716 295 716 l 494 716 q 615 706 565 716 l 615 706 q 748 651 688 691 l 748 651 q 820 724 779 679 l 820 724 l 886 708 q 787 623 866 695 l 787 623 q 892 387 892 530 l 892 387 q 768 94 892 206 l 768 94 q 460 -16 647 -16 l 460 -16 q 201 53 298 -16 l 201 53 l 185 35 l 168 16 q 130 -28 147 -7 l 130 -28 z m 489 332 q 437 281 468 311 l 437 281 l 382 229 q 275 125 315 164 l 275 125 q 509 25 373 25 l 509 25 q 693 110 617 25 l 693 110 q 770 314 770 194 l 770 314 q 703 540 770 440 l 703 540 q 489 332 618 461 l 489 332 z m 677 575 q 457 678 584 678 l 457 678 q 262 606 343 678 l 262 606 q 170 380 170 524 l 170 380 q 248 157 170 260 l 248 157 q 353 258 287 193 l 353 258 l 404 309 l 455 358 q 677 575 570 466 l 677 575 z"},"Œ":{"ha":1110,"x_min":55,"x_max":1043,"o":"m 963 260 l 944 268 q 946 336 946 310 l 946 336 q 862 352 928 346 l 862 352 q 751 357 807 357 l 751 357 l 751 338 q 753 171 751 277 l 753 171 q 758 29 755 48 l 758 29 q 889 36 827 29 l 889 36 q 998 63 967 45 l 998 63 q 1011 110 1005 81 l 1011 110 l 1013 121 l 1016 132 q 1020 151 1018 144 l 1020 151 l 1043 157 q 1025 49 1038 135 l 1025 49 q 1010 -74 1013 -37 l 1010 -74 l 989 -70 q 988 -9 989 -25 l 988 -9 q 840 -3 969 -6 l 840 -3 q 745 -1 793 -1 l 745 -1 q 687 0 702 0 l 687 0 q 594 -8 662 0 l 594 -8 q 468 -16 526 -16 l 468 -16 q 303 4 372 -16 l 303 4 q 147 97 211 31 l 147 97 q 55 342 55 193 l 55 342 q 172 601 55 491 l 172 601 q 480 716 296 716 l 480 716 q 551 714 516 716 l 551 714 q 608 708 577 712 l 608 708 l 631 705 l 653 703 q 688 700 675 700 l 688 700 l 746 700 q 843 701 799 700 l 843 701 q 994 707 977 703 l 994 707 q 1002 754 999 727 l 1002 754 l 1025 758 q 1014 658 1022 744 l 1014 658 q 1008 593 1011 626 l 1008 593 q 1005 551 1006 564 l 1005 551 l 983 558 l 983 589 q 983 630 984 618 l 983 630 q 879 662 971 649 l 879 662 q 808 670 845 667 l 808 670 q 757 672 775 672 l 757 672 q 753 556 755 663 l 753 556 q 751 403 751 459 l 751 403 l 751 386 q 868 390 804 386 l 868 390 q 958 401 941 395 l 958 401 l 963 423 l 968 444 l 989 446 q 975 358 985 435 l 975 358 l 972 328 l 970 314 l 968 300 q 963 260 964 270 l 963 260 z m 637 340 l 637 414 q 631 636 637 564 l 631 636 q 626 639 630 637 l 626 639 q 617 645 622 642 l 617 645 q 583 658 602 652 l 583 658 q 456 675 527 675 l 456 675 q 256 603 336 675 l 256 603 q 167 381 167 523 l 167 381 q 268 136 167 244 l 268 136 q 503 26 370 26 l 503 26 q 633 50 593 26 l 633 50 q 636 153 634 59 l 636 153 q 637 340 637 246 l 637 340 z"},"º":{"ha":490,"x_min":55,"x_max":435,"o":"m 239 382 q 99 432 149 382 l 99 432 q 55 542 55 476 l 55 542 q 108 662 55 612 l 108 662 q 254 716 164 716 l 254 716 q 381 677 333 716 l 381 677 q 435 566 435 634 l 435 566 q 378 433 435 485 l 378 433 q 239 382 323 382 l 239 382 z m 252 413 q 323 449 296 413 l 323 449 q 349 533 349 483 l 349 533 q 318 640 349 595 l 318 640 q 235 686 285 686 l 235 686 q 169 657 198 686 l 169 657 q 136 561 136 622 l 136 561 q 171 461 136 508 l 171 461 q 252 413 207 413 l 252 413 z"},"æ":{"ha":894,"x_min":-103,"x_max":826,"o":"m 533 394 l 533 360 q 651 365 585 360 l 651 365 q 741 376 724 370 l 741 376 q 751 419 745 391 l 751 419 l 772 421 q 758 333 768 409 l 758 333 l 755 303 l 753 288 l 751 275 q 746 235 748 245 l 746 235 l 727 243 q 729 310 729 285 l 729 310 q 643 327 708 321 l 643 327 q 533 331 591 331 l 533 331 l 533 312 q 534 256 533 298 l 534 256 q 535 166 534 212 l 535 166 q 540 29 538 45 l 540 29 q 674 36 611 29 l 674 36 q 781 63 753 45 l 781 63 q 794 112 787 83 l 794 112 l 796 123 l 799 133 q 803 151 801 144 l 803 151 l 826 157 q 808 49 821 135 l 808 49 q 793 -74 796 -37 l 793 -74 l 772 -70 q 771 -9 772 -25 l 771 -9 q 613 -3 735 -6 l 613 -3 q 523 -1 567 -1 l 523 -1 q 467 0 482 0 l 467 0 q 393 -1 441 0 l 393 -1 q 319 -4 344 -3 l 319 -4 l 323 17 l 326 17 l 329 18 l 338 18 q 362 21 350 19 l 362 21 q 416 29 395 25 l 416 29 q 420 126 419 36 l 420 126 q 421 300 421 195 l 421 300 l 421 331 q 322 326 397 331 l 322 326 q 223 318 250 321 l 223 318 q 155 194 201 290 l 155 194 q 90 30 107 92 l 90 30 q 124 22 98 27 l 124 22 q 144 19 132 21 l 144 19 l 152 18 l 158 17 l 162 -4 q 84 -1 148 -3 l 84 -1 q 37 0 60 -1 l 37 0 l 9 0 q -44 -1 -6 0 l -44 -1 q -103 -4 -87 -3 l -103 -4 l -97 17 q -57 23 -91 18 l -57 23 q -32 26 -40 25 l -32 26 q -12 29 -18 28 l -12 29 q 199 363 13 62 l 199 363 q 268 473 225 404 l 268 473 l 284 499 l 299 524 q 328 569 316 551 l 328 569 q 392 672 387 665 l 392 672 q 358 678 383 675 l 358 678 q 318 683 337 681 l 318 683 l 313 704 q 352 703 326 703 l 352 703 l 376 702 l 400 701 l 443 701 l 452 700 l 522 700 q 621 701 576 700 l 621 701 q 777 707 760 703 l 777 707 q 785 754 782 727 l 785 754 l 808 758 q 797 658 805 744 l 797 658 q 791 593 794 626 l 791 593 q 788 551 789 564 l 788 551 l 766 558 l 766 589 q 766 630 767 618 l 766 630 q 657 662 754 649 l 657 662 q 585 670 623 667 l 585 670 q 540 672 554 672 l 540 672 q 535 555 538 663 l 535 555 q 533 394 533 453 l 533 394 z m 421 360 l 421 548 q 419 643 420 630 l 419 643 l 414 644 q 339 518 410 637 l 339 518 q 286 430 306 464 l 286 430 q 248 364 259 385 l 248 364 q 338 359 264 360 l 338 359 q 390 360 361 359 l 390 360 l 421 360 z"},"ı":{"ha":440,"x_min":48,"x_max":392,"o":"m 277 410 l 277 348 q 278 148 277 229 l 278 148 q 282 31 279 45 l 282 31 q 336 23 298 27 l 336 23 q 366 19 350 21 l 366 19 l 378 18 l 383 17 l 387 17 l 392 -4 q 313 -1 376 -3 l 313 -1 q 204 0 252 0 l 204 0 q 125 -1 176 0 l 125 -1 q 48 -4 69 -3 l 48 -4 l 52 17 q 104 23 65 18 l 104 23 q 158 31 142 28 l 158 31 q 162 173 161 59 l 162 173 q 163 270 163 217 l 163 270 l 163 464 q 162 542 162 505 l 162 542 q 158 669 161 647 l 158 669 q 105 677 145 672 l 105 677 q 75 681 90 679 l 75 681 q 53 683 61 682 l 53 683 l 48 704 q 121 701 62 702 l 121 701 q 238 700 179 700 l 238 700 q 328 701 278 700 l 328 701 q 392 704 380 703 l 392 704 l 387 683 q 341 677 378 682 l 341 677 l 311 673 q 282 669 294 670 l 282 669 q 277 410 277 644 l 277 410 z"},"ł":{"ha":592,"x_min":51,"x_max":584,"o":"m 54 683 l 51 704 q 126 701 70 702 l 126 701 q 240 700 184 700 l 240 700 q 335 701 281 700 l 335 701 q 405 704 393 703 l 405 704 l 400 683 q 350 677 391 682 l 350 677 l 317 673 q 285 669 298 670 l 285 669 q 281 563 282 651 l 281 563 q 280 491 280 530 l 280 491 l 280 402 q 349 428 305 410 l 349 428 q 413 456 383 442 l 413 456 l 412 440 l 410 424 q 408 400 409 405 l 408 400 q 342 384 383 397 l 342 384 q 280 363 306 373 l 280 363 l 280 248 q 281 154 280 196 l 281 154 q 285 32 282 42 l 285 32 q 447 51 376 32 l 447 51 q 524 84 503 65 l 524 84 q 545 142 534 104 l 545 142 q 553 171 548 154 l 553 171 l 557 184 l 560 196 l 584 200 q 531 -128 551 66 l 531 -128 l 508 -123 q 509 -103 508 -119 l 509 -103 l 510 -87 l 511 -69 q 513 -6 514 -22 l 513 -6 q 379 -2 497 -5 l 379 -2 q 205 0 262 0 l 205 0 q 126 -1 177 0 l 126 -1 q 51 -4 71 -3 l 51 -4 l 55 17 q 75 19 61 17 l 75 19 q 106 22 91 20 l 106 22 q 161 31 147 27 l 161 31 q 165 152 164 57 l 165 152 q 166 310 166 223 l 166 310 l 166 333 q 118 316 154 329 l 118 316 q 59 296 88 306 l 59 296 l 60 305 l 61 316 q 62 341 62 329 l 62 341 q 166 369 124 354 l 166 369 l 166 483 q 165 558 166 524 l 165 558 q 161 669 164 651 l 161 669 q 109 677 144 672 l 109 677 q 54 683 73 682 l 54 683 z"},"ø":{"ha":947,"x_min":55,"x_max":892,"o":"m 130 -28 l 64 -16 l 68 -12 l 73 -8 l 84 1 q 109 24 97 13 l 109 24 q 167 81 142 54 l 167 81 q 55 338 55 179 l 55 338 q 171 601 55 494 l 171 601 q 494 716 295 716 l 494 716 q 615 706 565 716 l 615 706 q 748 651 688 691 l 748 651 q 820 724 779 679 l 820 724 l 886 708 q 787 623 866 695 l 787 623 q 892 387 892 530 l 892 387 q 768 94 892 206 l 768 94 q 460 -16 647 -16 l 460 -16 q 201 53 298 -16 l 201 53 l 185 35 l 168 16 q 130 -28 147 -7 l 130 -28 z m 489 332 q 437 281 468 311 l 437 281 l 382 229 q 275 125 315 164 l 275 125 q 509 25 373 25 l 509 25 q 693 110 617 25 l 693 110 q 770 314 770 194 l 770 314 q 703 540 770 440 l 703 540 q 489 332 618 461 l 489 332 z m 677 575 q 457 678 584 678 l 457 678 q 262 606 343 678 l 262 606 q 170 380 170 524 l 170 380 q 248 157 170 260 l 248 157 q 353 258 287 193 l 353 258 l 404 309 l 455 358 q 677 575 570 466 l 677 575 z"},"œ":{"ha":1110,"x_min":55,"x_max":1043,"o":"m 963 260 l 944 268 q 946 336 946 310 l 946 336 q 862 352 928 346 l 862 352 q 751 357 807 357 l 751 357 l 751 338 q 753 171 751 277 l 753 171 q 758 29 755 48 l 758 29 q 889 36 827 29 l 889 36 q 998 63 967 45 l 998 63 q 1011 110 1005 81 l 1011 110 l 1013 121 l 1016 132 q 1020 151 1018 144 l 1020 151 l 1043 157 q 1025 49 1038 135 l 1025 49 q 1010 -74 1013 -37 l 1010 -74 l 989 -70 q 988 -9 989 -25 l 988 -9 q 840 -3 969 -6 l 840 -3 q 745 -1 793 -1 l 745 -1 q 687 0 702 0 l 687 0 q 594 -8 662 0 l 594 -8 q 468 -16 526 -16 l 468 -16 q 303 4 372 -16 l 303 4 q 147 97 211 31 l 147 97 q 55 342 55 193 l 55 342 q 172 601 55 491 l 172 601 q 480 716 296 716 l 480 716 q 551 714 516 716 l 551 714 q 608 708 577 712 l 608 708 l 631 705 l 653 703 q 688 700 675 700 l 688 700 l 746 700 q 843 701 799 700 l 843 701 q 994 707 977 703 l 994 707 q 1002 754 999 727 l 1002 754 l 1025 758 q 1014 658 1022 744 l 1014 658 q 1008 593 1011 626 l 1008 593 q 1005 551 1006 564 l 1005 551 l 983 558 l 983 589 q 983 630 984 618 l 983 630 q 879 662 971 649 l 879 662 q 808 670 845 667 l 808 670 q 757 672 775 672 l 757 672 q 753 556 755 663 l 753 556 q 751 403 751 459 l 751 403 l 751 386 q 868 390 804 386 l 868 390 q 958 401 941 395 l 958 401 l 963 423 l 968 444 l 989 446 q 975 358 985 435 l 975 358 l 972 328 l 970 314 l 968 300 q 963 260 964 270 l 963 260 z m 637 340 l 637 414 q 631 636 637 564 l 631 636 q 626 639 630 637 l 626 639 q 617 645 622 642 l 617 645 q 583 658 602 652 l 583 658 q 456 675 527 675 l 456 675 q 256 603 336 675 l 256 603 q 167 381 167 523 l 167 381 q 268 136 167 244 l 268 136 q 503 26 370 26 l 503 26 q 633 50 593 26 l 633 50 q 636 153 634 59 l 636 153 q 637 340 637 246 l 637 340 z"},"ß":{"ha":1104,"x_min":63,"x_max":1044,"o":"m 86 -95 l 63 -101 q 64 -92 63 -98 l 64 -92 q 66 -75 65 -84 l 66 -75 q 72 -28 69 -51 l 72 -28 q 79 63 79 38 l 79 63 q 80 95 79 71 l 80 95 l 81 118 l 82 143 q 82 221 84 207 l 82 221 l 105 215 q 107 173 104 206 l 107 173 q 112 127 110 141 l 112 127 q 174 49 133 78 l 174 49 q 267 18 216 18 l 267 18 q 368 53 327 18 l 368 53 q 409 144 409 89 l 409 144 q 369 240 409 198 l 369 240 q 281 307 346 265 l 281 307 q 156 405 191 366 l 156 405 q 105 540 105 463 l 105 540 q 153 657 105 608 l 153 657 q 311 716 209 716 l 311 716 q 392 709 350 716 l 392 709 q 423 703 407 707 l 423 703 q 446 698 434 701 l 446 698 q 455 737 450 712 l 455 737 l 460 758 l 464 779 l 487 782 q 463 508 463 612 l 463 508 l 440 518 q 436 594 440 558 l 436 594 q 392 653 426 625 l 392 653 q 303 684 351 684 l 303 684 q 210 651 244 684 l 210 651 q 181 584 181 623 l 181 584 q 225 504 181 541 l 225 504 q 270 470 241 489 l 270 470 l 297 453 l 325 436 q 440 347 407 385 l 440 347 q 492 202 492 286 l 492 202 q 420 41 492 101 l 420 41 q 246 -16 352 -16 l 246 -16 q 108 9 155 -16 l 108 9 q 86 -95 100 -22 l 86 -95 z m 638 -95 l 615 -101 q 616 -92 615 -98 l 616 -92 q 618 -75 617 -84 l 618 -75 q 624 -28 621 -51 l 624 -28 q 631 63 631 38 l 631 63 q 632 95 631 71 l 632 95 l 633 118 l 634 143 q 634 221 636 207 l 634 221 l 657 215 q 659 173 656 206 l 659 173 q 664 127 662 141 l 664 127 q 726 49 685 78 l 726 49 q 819 18 768 18 l 819 18 q 920 53 879 18 l 920 53 q 961 144 961 89 l 961 144 q 921 240 961 198 l 921 240 q 833 307 898 265 l 833 307 q 708 405 743 366 l 708 405 q 657 540 657 463 l 657 540 q 705 657 657 608 l 705 657 q 863 716 761 716 l 863 716 q 944 709 902 716 l 944 709 q 975 703 959 707 l 975 703 q 998 698 986 701 l 998 698 q 1007 737 1002 712 l 1007 737 l 1012 758 l 1016 779 l 1039 782 q 1015 508 1015 612 l 1015 508 l 992 518 q 988 594 992 558 l 988 594 q 944 653 978 625 l 944 653 q 855 684 903 684 l 855 684 q 762 651 796 684 l 762 651 q 733 584 733 623 l 733 584 q 777 504 733 541 l 777 504 q 822 470 793 489 l 822 470 l 849 453 l 877 436 q 992 347 959 385 l 992 347 q 1044 202 1044 286 l 1044 202 q 972 41 1044 101 l 972 41 q 798 -16 904 -16 l 798 -16 q 660 9 707 -16 l 660 9 q 638 -95 652 -22 l 638 -95 z"},"¹":{"ha":360,"x_min":40,"x_max":316,"o":"m 146 444 l 146 595 q 143 655 146 642 l 143 655 q 51 645 119 654 l 51 645 l 40 664 q 75 673 53 667 l 75 673 q 128 687 102 680 l 128 687 q 231 716 200 706 l 231 716 q 225 641 228 691 l 225 641 q 221 535 221 579 l 221 535 l 221 502 q 223 390 221 447 l 223 390 q 228 322 226 336 l 228 322 q 270 316 236 320 l 270 316 l 283 315 l 295 313 q 312 311 308 312 l 312 311 l 316 290 q 255 292 301 291 l 255 292 q 185 294 205 294 l 185 294 q 107 292 162 294 l 107 292 q 41 290 56 291 l 41 290 l 43 311 q 63 313 48 312 l 63 313 l 77 315 l 93 316 q 141 322 133 320 l 141 322 q 145 395 144 339 l 145 395 q 146 444 146 415 l 146 444 z"},"¬":{"ha":610,"x_min":70,"x_max":538,"o":"m 78 423 l 538 423 q 536 294 536 380 l 536 294 q 538 161 536 208 l 538 161 l 470 153 q 480 255 475 202 l 480 255 q 486 372 485 321 l 486 372 q 300 374 407 376 l 300 374 q 70 360 180 373 l 70 360 l 78 423 z"},"µ":{"ha":603,"x_min":100,"x_max":575,"o":"m 164 43 q 177 -116 165 -24 l 177 -116 q 204 -254 190 -206 l 204 -254 l 202 -260 q 102 -239 134 -250 l 102 -239 q 103 -176 102 -232 l 103 -176 q 104 -111 104 -144 l 104 -111 q 105 -14 105 -66 l 105 -14 l 105 314 q 100 426 105 382 l 100 426 l 192 441 q 196 388 195 425 l 196 388 q 197 328 197 360 l 197 328 l 197 167 q 227 79 197 115 l 227 79 q 289 46 254 46 l 289 46 q 348 64 321 46 l 348 64 q 386 103 367 78 l 386 103 l 386 427 l 477 441 l 477 109 q 501 51 477 63 l 501 51 q 565 62 524 39 l 565 62 l 575 35 q 527 3 550 15 l 527 3 q 476 -12 497 -12 l 476 -12 q 420 14 442 -12 l 420 14 q 405 39 412 24 l 405 39 q 394 64 400 49 l 394 64 q 274 -12 337 -12 l 274 -12 q 215 4 246 -12 l 215 4 q 164 43 182 19 l 164 43 z"},"™":{"ha":464,"x_min":17,"x_max":457,"o":"m 260 654 q 254 612 258 644 l 254 612 q 246 554 249 576 l 246 554 l 270 550 l 270 539 q 247 540 261 540 l 247 540 q 228 541 234 541 l 228 541 q 193 539 215 541 l 193 539 l 195 550 l 218 554 q 224 577 219 557 l 224 577 l 226 586 l 228 595 l 233 616 l 238 636 q 242 654 240 644 l 242 654 q 248 679 248 677 l 248 679 l 223 682 l 223 695 q 247 694 235 694 l 247 694 l 286 694 q 311 695 299 694 l 311 695 l 308 682 l 288 681 q 306 640 291 673 l 306 640 l 312 626 l 318 614 q 326 596 324 601 l 326 596 q 347 640 332 607 l 347 640 q 365 680 362 671 l 365 680 l 345 682 l 343 695 q 367 694 354 694 l 367 694 l 402 694 q 425 695 414 694 l 425 695 l 421 682 l 402 681 q 409 654 404 675 l 409 654 l 413 636 l 418 616 q 434 554 430 566 l 434 554 l 455 550 l 457 539 q 434 540 446 540 l 434 540 q 414 541 421 541 l 414 541 q 373 539 399 541 l 373 539 l 373 550 l 394 554 l 394 557 l 393 561 q 391 572 392 567 l 391 572 q 385 600 388 587 l 385 600 q 378 629 382 612 l 378 629 l 376 635 l 375 641 q 373 649 374 646 l 373 649 q 344 589 367 635 l 344 589 q 317 535 324 547 l 317 535 q 289 593 314 540 l 289 593 q 271 631 277 619 l 271 631 q 260 654 263 649 l 260 654 z m 196 679 q 194 658 195 669 l 194 658 q 193 644 193 649 l 193 644 l 180 647 l 180 669 q 128 675 173 673 l 128 675 l 128 587 q 128 554 127 564 l 128 554 l 159 550 l 159 539 l 144 540 l 131 540 q 107 541 117 541 l 107 541 q 84 540 97 541 l 84 540 l 72 540 l 58 539 l 58 550 l 86 554 q 88 589 87 566 l 88 589 l 88 677 q 50 675 63 677 l 50 675 q 41 672 45 674 l 41 672 l 35 670 l 32 648 l 17 646 l 17 653 l 18 660 l 19 678 q 20 711 21 700 l 20 711 l 34 711 l 36 696 q 108 694 50 694 l 108 694 l 156 694 q 185 695 180 694 l 185 695 l 187 709 l 203 711 q 196 679 200 706 l 196 679 z"},"Ð":{"ha":940,"x_min":48,"x_max":890,"o":"m 476 392 l 465 344 q 277 350 338 349 l 277 350 l 277 331 q 279 187 277 280 l 279 187 q 284 55 281 78 l 284 55 q 350 41 310 46 l 350 41 q 379 38 365 39 l 379 38 q 399 37 391 37 l 399 37 q 650 118 546 37 l 650 118 q 767 365 767 209 l 767 365 q 657 594 767 508 l 657 594 q 364 667 563 667 l 364 667 q 284 662 310 667 l 284 662 q 279 552 282 652 l 279 552 q 277 402 277 457 l 277 402 l 277 384 l 316 384 q 367 385 344 384 l 367 385 q 476 392 434 386 l 476 392 z m 54 340 l 65 385 q 116 383 87 383 l 116 383 l 140 384 l 163 384 l 163 476 q 161 554 162 517 l 161 554 q 156 669 159 656 l 156 669 q 102 677 138 673 l 102 677 q 50 683 69 681 l 50 683 l 48 704 q 122 701 59 703 l 122 701 q 226 700 182 700 l 226 700 q 266 701 237 700 l 266 701 l 293 701 l 324 702 q 444 704 408 704 l 444 704 q 726 659 630 704 l 726 659 q 890 421 890 582 l 890 421 q 761 129 890 244 l 761 129 q 353 -2 615 -2 l 353 -2 l 291 -2 q 193 -3 242 -2 l 193 -3 q 48 -4 64 -3 l 48 -4 l 52 17 q 73 19 60 17 l 73 19 q 102 22 88 20 l 102 22 q 156 31 140 26 l 156 31 q 161 147 159 42 l 161 147 q 163 326 163 233 l 163 326 l 163 349 q 54 340 94 347 l 54 340 z"},"½":{"ha":865,"x_min":20,"x_max":828,"o":"m 657 728 l 190 -72 l 155 -45 l 619 752 l 657 728 z m 126 444 l 126 595 q 123 655 126 642 l 123 655 q 31 645 99 654 l 31 645 l 20 664 q 55 673 33 667 l 55 673 q 108 687 82 680 l 108 687 q 211 716 180 706 l 211 716 q 205 641 208 691 l 205 641 q 201 535 201 579 l 201 535 l 201 502 q 203 390 201 447 l 203 390 q 208 322 206 336 l 208 322 q 250 316 216 320 l 250 316 l 263 315 l 275 313 q 292 311 288 312 l 292 311 l 296 290 q 235 292 281 291 l 235 292 q 165 294 185 294 l 165 294 q 87 292 142 294 l 87 292 q 21 290 36 291 l 21 290 l 23 311 q 43 313 28 312 l 43 313 l 57 315 l 73 316 q 121 322 113 320 l 121 322 q 125 395 124 339 l 125 395 q 126 444 126 415 l 126 444 z m 807 -47 l 788 -43 l 784 0 l 499 0 q 562 55 526 22 l 562 55 l 591 82 l 621 109 q 693 190 669 153 l 693 190 q 727 289 727 240 l 727 289 q 697 362 727 334 l 697 362 q 631 389 670 389 l 631 389 q 572 375 590 389 l 572 375 l 557 292 l 537 288 l 541 332 l 545 374 q 549 453 549 422 l 549 453 l 567 448 l 572 413 q 608 419 586 416 l 608 419 q 655 422 633 422 l 655 422 q 772 392 731 422 l 772 392 q 811 315 811 363 l 811 315 q 693 126 811 227 l 693 126 q 593 51 647 87 l 593 51 l 593 49 l 647 49 q 790 70 753 49 l 790 70 l 808 126 l 828 128 q 815 41 821 99 l 815 41 q 810 -7 812 18 l 810 -7 q 807 -47 808 -27 l 807 -47 z"},"±":{"ha":610,"x_min":75,"x_max":535,"o":"m 343 591 q 329 414 331 485 l 329 414 l 535 414 l 527 361 q 328 365 457 367 l 328 365 q 329 272 327 322 l 329 272 q 333 185 330 238 l 333 185 l 265 177 q 278 365 276 274 l 278 365 q 75 351 173 362 l 75 351 l 83 414 l 279 414 q 278 502 280 454 l 278 502 l 277 543 l 275 583 l 343 591 z m 527 82 q 298 86 444 90 l 298 86 q 75 72 169 84 l 75 72 l 83 135 l 535 135 l 527 82 z"},"Þ":{"ha":649,"x_min":48,"x_max":609,"o":"m 273 418 l 273 182 q 275 31 274 49 l 275 31 q 336 24 289 29 l 336 24 l 354 22 l 372 20 q 399 17 391 18 l 399 17 l 404 -4 q 319 -1 385 -3 l 319 -1 q 221 0 257 0 l 221 0 q 126 -1 182 0 l 126 -1 q 48 -4 68 -3 l 48 -4 l 53 17 q 72 19 57 18 l 72 19 l 87 21 l 103 23 q 158 31 145 28 l 158 31 q 162 187 161 60 l 162 187 q 163 290 163 234 l 163 290 l 163 470 q 162 547 162 511 l 162 547 q 158 669 161 648 l 158 669 q 110 677 148 672 l 110 677 q 53 683 74 681 l 53 683 l 48 704 q 122 701 64 703 l 122 701 q 222 700 178 700 l 222 700 q 314 701 261 700 l 314 701 q 389 704 368 703 l 389 704 l 384 683 q 334 677 371 682 l 334 677 l 319 675 l 304 673 q 278 669 287 670 l 278 669 l 275 560 l 325 560 q 387 557 359 559 l 387 557 q 511 534 466 551 l 511 534 q 594 468 570 511 l 594 468 q 606 436 603 452 l 606 436 q 609 423 608 429 l 609 423 l 609 414 q 540 267 609 328 l 540 267 q 427 203 494 227 l 427 203 q 320 178 378 186 l 320 178 l 323 207 q 434 252 392 218 l 434 252 q 490 376 490 297 l 490 376 q 418 498 490 457 l 418 498 q 275 529 371 526 l 275 529 q 273 418 273 477 l 273 418 z"},"¼":{"ha":865,"x_min":36,"x_max":813,"o":"m 641 124 l 413 124 q 564 281 453 163 l 564 281 l 606 327 q 647 370 630 352 l 647 370 q 717 443 691 417 l 717 443 q 713 338 715 428 l 713 338 q 712 188 712 259 l 712 188 l 712 162 q 750 165 730 162 l 750 165 q 778 172 770 168 l 778 172 q 786 200 782 182 l 786 200 l 789 215 l 793 230 l 813 231 l 812 221 l 810 210 q 806 180 807 194 l 806 180 q 802 80 801 136 l 802 80 l 782 83 q 780 105 781 95 l 780 105 q 777 121 778 117 l 777 121 q 712 124 759 124 l 712 124 l 712 105 q 715 26 712 46 l 715 26 q 749 22 722 25 l 749 22 q 785 18 774 19 l 785 18 l 788 -2 q 732 -1 778 -1 l 732 -1 q 662 0 689 0 l 662 0 q 600 -1 642 0 l 600 -1 q 541 -2 553 -1 l 541 -2 l 543 18 q 560 20 547 18 l 560 20 q 588 22 573 21 l 588 22 q 638 26 626 25 l 638 26 q 641 103 641 52 l 641 103 l 641 124 z m 641 162 l 641 330 q 573 256 622 310 l 573 256 l 552 234 l 531 210 l 486 161 l 641 162 z m 673 728 l 205 -70 l 170 -45 l 635 752 l 673 728 z m 142 444 l 142 595 q 139 655 142 642 l 139 655 q 47 645 115 654 l 47 645 l 36 664 q 71 673 49 667 l 71 673 q 124 687 98 680 l 124 687 q 227 716 196 706 l 227 716 q 221 641 224 691 l 221 641 q 217 535 217 579 l 217 535 l 217 502 q 219 390 217 447 l 219 390 q 224 322 222 336 l 224 322 q 266 316 232 320 l 266 316 l 279 315 l 291 313 q 308 311 304 312 l 308 311 l 312 290 q 251 292 297 291 l 251 292 q 181 294 201 294 l 181 294 q 103 292 158 294 l 103 292 q 37 290 52 291 l 37 290 l 39 311 q 59 313 44 312 l 59 313 l 73 315 l 89 316 q 137 322 129 320 l 137 322 q 141 395 140 339 l 141 395 q 142 444 142 415 l 142 444 z"},"÷":{"ha":610,"x_min":74,"x_max":535,"o":"m 350 152 l 253 134 l 250 222 l 345 240 l 350 152 z m 350 473 l 253 455 l 250 543 l 345 561 l 350 473 z m 82 368 l 535 368 l 527 315 q 305 319 459 321 l 305 319 q 74 305 184 318 l 74 305 l 82 368 z"},"¦":{"ha":281,"x_min":108,"x_max":174,"o":"m 174 339 l 108 339 l 108 703 l 174 703 l 174 339 z m 174 -182 l 108 -182 l 108 182 l 174 182 l 174 -182 z"},"°":{"ha":373,"x_min":40,"x_max":333,"o":"m 188 665 q 291 624 250 665 l 291 624 q 333 520 333 583 l 333 520 q 290 414 333 454 l 290 414 q 187 376 249 376 l 187 376 q 84 414 125 376 l 84 414 q 40 520 40 454 l 40 520 q 83 624 40 583 l 83 624 q 188 665 125 665 l 188 665 z m 185 623 q 122 595 147 623 l 122 595 q 97 520 97 566 l 97 520 q 123 448 97 477 l 123 448 q 188 417 149 417 l 188 417 q 253 446 228 417 l 253 446 q 277 518 277 474 l 277 518 q 254 592 277 563 l 254 592 q 185 623 229 623 l 185 623 z"},"þ":{"ha":649,"x_min":48,"x_max":609,"o":"m 273 418 l 273 182 q 275 31 274 49 l 275 31 q 336 24 289 29 l 336 24 l 354 22 l 372 20 q 399 17 391 18 l 399 17 l 404 -4 q 319 -1 385 -3 l 319 -1 q 221 0 257 0 l 221 0 q 126 -1 182 0 l 126 -1 q 48 -4 68 -3 l 48 -4 l 53 17 q 72 19 57 18 l 72 19 l 87 21 l 103 23 q 158 31 145 28 l 158 31 q 162 187 161 60 l 162 187 q 163 290 163 234 l 163 290 l 163 470 q 162 547 162 511 l 162 547 q 158 669 161 648 l 158 669 q 110 677 148 672 l 110 677 q 53 683 74 681 l 53 683 l 48 704 q 122 701 64 703 l 122 701 q 222 700 178 700 l 222 700 q 314 701 261 700 l 314 701 q 389 704 368 703 l 389 704 l 384 683 q 334 677 371 682 l 334 677 l 319 675 l 304 673 q 278 669 287 670 l 278 669 l 275 560 l 325 560 q 387 557 359 559 l 387 557 q 511 534 466 551 l 511 534 q 594 468 570 511 l 594 468 q 606 436 603 452 l 606 436 q 609 423 608 429 l 609 423 l 609 414 q 540 267 609 328 l 540 267 q 427 203 494 227 l 427 203 q 320 178 378 186 l 320 178 l 323 207 q 434 252 392 218 l 434 252 q 490 376 490 297 l 490 376 q 418 498 490 457 l 418 498 q 275 529 371 526 l 275 529 q 273 418 273 477 l 273 418 z"},"¾":{"ha":865,"x_min":43,"x_max":821,"o":"m 649 124 l 421 124 q 572 281 461 163 l 572 281 l 614 327 q 655 370 638 352 l 655 370 q 725 443 699 417 l 725 443 q 721 338 723 428 l 721 338 q 720 188 720 259 l 720 188 l 720 162 q 758 165 738 162 l 758 165 q 786 172 778 168 l 786 172 q 794 200 790 182 l 794 200 l 797 215 l 801 230 l 821 231 l 820 221 l 818 210 q 814 180 815 194 l 814 180 q 810 80 809 136 l 810 80 l 790 83 q 788 105 789 95 l 788 105 q 785 121 786 117 l 785 121 q 720 124 767 124 l 720 124 l 720 105 q 723 26 720 46 l 723 26 q 757 22 730 25 l 757 22 q 793 18 782 19 l 793 18 l 796 -2 q 740 -1 786 -1 l 740 -1 q 670 0 697 0 l 670 0 q 608 -1 650 0 l 608 -1 q 549 -2 561 -1 l 549 -2 l 551 18 q 568 20 555 18 l 568 20 q 596 22 581 21 l 596 22 q 646 26 634 25 l 646 26 q 649 103 649 52 l 649 103 l 649 124 z m 649 162 l 649 330 q 581 256 630 310 l 581 256 l 560 234 l 539 210 l 494 161 l 649 162 z m 177 708 l 334 708 q 302 675 320 694 l 302 675 q 263 632 282 653 l 263 632 q 200 556 215 579 l 200 556 q 304 511 267 542 l 304 511 q 339 445 339 482 l 339 445 q 264 320 339 369 l 264 320 q 133 286 209 286 l 133 286 q 72 291 100 286 l 72 291 l 62 268 l 43 266 q 59 398 51 298 l 59 398 l 78 391 l 78 343 q 148 318 106 318 l 148 318 q 230 342 200 318 l 230 342 q 261 409 261 366 l 261 409 q 219 488 261 456 l 219 488 q 131 522 183 514 l 131 522 q 153 549 137 530 l 153 549 q 168 567 158 556 l 168 567 l 184 586 q 241 656 227 638 l 241 656 l 160 656 q 87 646 114 656 l 87 646 l 77 609 l 55 604 q 69 768 63 647 l 69 768 l 89 759 l 89 711 q 177 708 104 708 l 177 708 z m 681 728 l 214 -70 l 178 -45 l 643 752 l 681 728 z"},"²":{"ha":410,"x_min":34,"x_max":363,"o":"m 342 247 l 323 251 l 319 294 l 34 294 q 97 349 61 316 l 97 349 l 126 376 l 156 403 q 228 484 204 447 l 228 484 q 262 583 262 534 l 262 583 q 232 656 262 628 l 232 656 q 166 683 205 683 l 166 683 q 107 669 125 683 l 107 669 l 92 586 l 72 582 l 76 626 l 80 668 q 84 747 84 716 l 84 747 l 102 742 l 107 707 q 143 713 117 710 l 143 713 q 190 716 164 716 l 190 716 q 307 686 266 716 l 307 686 q 346 609 346 657 l 346 609 q 228 420 346 521 l 228 420 q 128 345 182 381 l 128 345 l 128 343 l 182 343 q 325 364 288 343 l 325 364 l 343 420 l 363 422 q 350 335 356 393 l 350 335 q 345 287 347 312 l 345 287 q 342 247 343 267 l 342 247 z"},"®":{"ha":384,"x_min":27,"x_max":357,"o":"m 357 563 q 310 457 357 500 l 310 457 q 192 414 262 414 l 192 414 q 74 457 122 414 l 74 457 q 27 563 27 500 l 27 563 q 74 670 27 626 l 74 670 q 192 714 122 714 l 192 714 q 310 670 262 714 l 310 670 q 357 563 357 626 l 357 563 z m 327 560 q 285 655 327 615 l 285 655 q 189 694 244 694 l 189 694 q 96 658 134 694 l 96 658 q 58 566 58 621 l 58 566 q 100 472 58 511 l 100 472 q 196 433 141 433 l 196 433 q 288 469 250 433 l 288 469 q 327 560 327 505 l 327 560 z m 229 611 q 218 631 229 623 l 218 631 q 172 641 203 641 l 172 641 l 172 572 l 179 571 l 187 571 q 204 574 196 571 l 204 574 q 220 585 213 577 l 220 585 q 229 611 229 596 l 229 611 z m 274 481 q 230 519 267 485 l 230 519 q 203 544 216 531 l 203 544 q 188 558 191 555 l 188 558 l 173 556 l 173 552 q 174 523 173 541 l 174 523 q 175 496 174 505 l 175 496 l 198 492 l 200 481 q 115 481 157 483 l 115 481 l 117 492 l 140 497 l 140 638 l 119 641 l 117 653 l 166 653 q 210 652 198 653 l 210 652 q 240 646 222 652 l 240 646 q 262 618 262 638 l 262 618 q 224 571 262 591 l 224 571 q 252 531 228 564 l 252 531 q 286 485 275 499 l 286 485 l 274 481 z"},"−":{"ha":610,"x_min":75,"x_max":535,"o":"m 83 368 l 535 368 l 527 315 q 301 319 459 321 l 301 319 q 75 305 186 318 l 75 305 l 83 368 z"},"ð":{"ha":940,"x_min":48,"x_max":890,"o":"m 476 392 l 465 344 q 277 350 338 349 l 277 350 l 277 331 q 279 187 277 280 l 279 187 q 284 55 281 78 l 284 55 q 350 41 310 46 l 350 41 q 379 38 365 39 l 379 38 q 399 37 391 37 l 399 37 q 650 118 546 37 l 650 118 q 767 365 767 209 l 767 365 q 657 594 767 508 l 657 594 q 364 667 563 667 l 364 667 q 284 662 310 667 l 284 662 q 279 552 282 652 l 279 552 q 277 402 277 457 l 277 402 l 277 384 l 316 384 q 367 385 344 384 l 367 385 q 476 392 434 386 l 476 392 z m 54 340 l 65 385 q 116 383 87 383 l 116 383 l 140 384 l 163 384 l 163 476 q 161 554 162 517 l 161 554 q 156 669 159 656 l 156 669 q 102 677 138 673 l 102 677 q 50 683 69 681 l 50 683 l 48 704 q 122 701 59 703 l 122 701 q 226 700 182 700 l 226 700 q 266 701 237 700 l 266 701 l 293 701 l 324 702 q 444 704 408 704 l 444 704 q 726 659 630 704 l 726 659 q 890 421 890 582 l 890 421 q 761 129 890 244 l 761 129 q 353 -2 615 -2 l 353 -2 l 291 -2 q 193 -3 242 -2 l 193 -3 q 48 -4 64 -3 l 48 -4 l 52 17 q 73 19 60 17 l 73 19 q 102 22 88 20 l 102 22 q 156 31 140 26 l 156 31 q 161 147 159 42 l 161 147 q 163 326 163 233 l 163 326 l 163 349 q 54 340 94 347 l 54 340 z"},"×":{"ha":610,"x_min":91,"x_max":520,"o":"m 98 499 l 139 553 q 174 514 150 542 l 174 514 l 184 503 l 195 490 l 219 465 q 304 373 277 399 l 304 373 l 473 555 l 516 507 q 333 347 431 439 l 333 347 q 520 181 445 241 l 520 181 l 479 127 q 443 168 469 138 l 443 168 l 431 181 l 419 194 l 395 222 q 304 320 332 293 l 304 320 q 215 223 269 287 l 215 223 q 170 171 196 201 l 170 171 l 159 158 l 149 146 q 130 123 137 131 l 130 123 l 91 167 l 275 346 q 98 499 192 425 l 98 499 z"},"³":{"ha":420,"x_min":61,"x_max":357,"o":"m 195 708 l 352 708 q 320 675 338 694 l 320 675 q 281 632 300 653 l 281 632 q 218 556 233 579 l 218 556 q 322 511 285 542 l 322 511 q 357 445 357 482 l 357 445 q 282 320 357 369 l 282 320 q 151 286 227 286 l 151 286 q 90 291 118 286 l 90 291 l 80 268 l 61 266 q 77 398 69 298 l 77 398 l 96 391 l 96 343 q 166 318 124 318 l 166 318 q 248 342 218 318 l 248 342 q 279 409 279 366 l 279 409 q 237 488 279 456 l 237 488 q 149 522 201 514 l 149 522 q 171 549 155 530 l 171 549 q 186 567 176 556 l 186 567 l 202 586 q 259 656 245 638 l 259 656 l 178 656 q 105 646 132 656 l 105 646 l 95 609 l 73 604 q 87 768 81 647 l 87 768 l 107 759 l 107 711 q 195 708 122 708 l 195 708 z"},"©":{"ha":840,"x_min":40,"x_max":800,"o":"m 800 343 q 691 84 800 190 l 691 84 q 420 -23 582 -23 l 420 -23 q 149 84 258 -23 l 149 84 q 40 343 40 190 l 40 343 q 149 602 40 496 l 149 602 q 420 709 258 709 l 420 709 q 694 598 584 709 l 694 598 q 800 343 800 491 l 800 343 z m 592 208 l 582 171 q 575 167 578 169 l 575 167 q 565 161 570 164 l 565 161 q 537 149 552 154 l 537 149 q 441 134 494 134 l 441 134 l 434 134 q 424 135 429 134 l 424 135 q 396 137 410 135 l 396 137 q 325 158 354 143 l 325 158 q 211 329 211 214 l 211 329 q 299 509 211 447 l 299 509 q 377 544 334 533 l 377 544 q 449 551 409 551 l 449 551 q 509 544 477 551 l 509 544 q 547 532 534 538 l 547 532 q 554 552 551 542 l 554 552 q 559 571 558 564 l 559 571 l 576 573 l 564 402 l 546 405 q 544 429 546 409 l 544 429 l 543 446 l 542 464 q 504 502 529 486 l 504 502 q 436 521 473 521 l 436 521 q 329 470 368 521 l 329 470 q 295 359 295 424 l 295 359 q 348 220 295 274 l 348 220 q 472 169 398 169 l 472 169 q 592 208 533 169 l 592 208 z m 416 672 q 193 579 286 672 l 193 579 q 98 349 98 485 l 98 349 q 197 113 98 213 l 197 113 q 425 14 295 14 l 425 14 q 647 109 551 14 l 647 109 q 746 341 746 206 l 746 341 q 645 575 746 476 l 645 575 q 416 672 546 672 l 416 672 z"},"Á":{"ha":712,"x_min":-55,"x_max":757,"o":"m 422 -4 l 427 17 q 528 31 490 22 l 528 31 q 519 57 525 39 l 519 57 l 516 66 l 513 75 l 506 95 q 475 186 488 149 l 475 186 q 423 324 433 306 l 423 324 q 308 320 391 324 l 308 320 q 192 311 217 315 l 192 311 q 180 272 190 305 l 180 272 q 159 195 169 236 l 159 195 q 122 31 129 81 l 122 31 q 164 23 139 26 l 164 23 q 208 17 181 20 l 208 17 l 212 -4 q 136 -1 190 -3 l 136 -1 q 61 0 85 0 l 61 0 q 2 -1 40 0 l 2 -1 q -55 -4 -39 -3 l -55 -4 l -52 17 q 34 31 -9 21 l 34 31 q 167 360 57 71 l 167 360 q 243 563 202 453 l 243 563 q 270 634 257 600 l 270 634 q 278 657 274 647 l 278 657 q 283 670 281 665 l 283 670 q 244 678 269 674 l 244 678 l 223 681 l 204 683 l 203 704 q 273 701 223 703 l 273 701 q 333 700 317 700 l 333 700 q 423 701 367 700 l 423 701 q 504 704 483 703 l 504 704 l 501 683 q 425 670 454 678 l 425 670 q 468 540 433 640 l 468 540 q 530 364 497 454 l 530 364 q 542 331 536 347 l 542 331 q 557 292 549 311 l 557 292 q 591 202 575 243 l 591 202 q 666 31 636 88 l 666 31 q 754 17 697 25 l 754 17 l 757 -4 q 689 -1 748 -3 l 689 -1 q 591 0 634 0 l 591 0 q 506 -1 565 0 l 506 -1 q 422 -4 440 -3 l 422 -4 z m 416 354 q 393 421 409 375 l 393 421 q 379 463 388 436 l 379 463 l 363 508 q 314 653 324 621 l 314 653 l 312 653 q 284 574 302 624 l 284 574 l 267 529 l 251 485 q 206 358 211 376 l 206 358 l 416 354 z m 497 926 l 535 849 q 421 812 521 850 l 421 812 q 350 784 385 799 l 350 784 q 311 768 318 771 l 311 768 l 299 800 q 390 856 306 801 l 390 856 q 454 897 422 876 l 454 897 q 497 926 484 917 l 497 926 z"},"Â":{"ha":712,"x_min":-55,"x_max":757,"o":"m 422 -4 l 427 17 q 528 31 490 22 l 528 31 q 519 57 525 39 l 519 57 l 516 66 l 513 75 l 506 95 q 475 186 488 149 l 475 186 q 423 324 433 306 l 423 324 q 308 320 391 324 l 308 320 q 192 311 217 315 l 192 311 q 180 272 190 305 l 180 272 q 159 195 169 236 l 159 195 q 122 31 129 81 l 122 31 q 164 23 139 26 l 164 23 q 208 17 181 20 l 208 17 l 212 -4 q 136 -1 190 -3 l 136 -1 q 61 0 85 0 l 61 0 q 2 -1 40 0 l 2 -1 q -55 -4 -39 -3 l -55 -4 l -52 17 q 34 31 -9 21 l 34 31 q 167 360 57 71 l 167 360 q 243 563 202 453 l 243 563 q 270 634 257 600 l 270 634 q 278 657 274 647 l 278 657 q 283 670 281 665 l 283 670 q 244 678 269 674 l 244 678 l 223 681 l 204 683 l 203 704 q 273 701 223 703 l 273 701 q 333 700 317 700 l 333 700 q 423 701 367 700 l 423 701 q 504 704 483 703 l 504 704 l 501 683 q 425 670 454 678 l 425 670 q 468 540 433 640 l 468 540 q 530 364 497 454 l 530 364 q 542 331 536 347 l 542 331 q 557 292 549 311 l 557 292 q 591 202 575 243 l 591 202 q 666 31 636 88 l 666 31 q 754 17 697 25 l 754 17 l 757 -4 q 689 -1 748 -3 l 689 -1 q 591 0 634 0 l 591 0 q 506 -1 565 0 l 506 -1 q 422 -4 440 -3 l 422 -4 z m 416 354 q 393 421 409 375 l 393 421 q 379 463 388 436 l 379 463 l 363 508 q 314 653 324 621 l 314 653 l 312 653 q 284 574 302 624 l 284 574 l 267 529 l 251 485 q 206 358 211 376 l 206 358 l 416 354 z m 243 772 l 224 795 q 290 856 244 812 l 290 856 q 351 917 339 903 l 351 917 l 359 910 l 367 902 q 386 885 378 893 l 386 885 q 427 849 410 865 l 427 849 q 488 796 476 806 l 488 796 l 469 772 q 449 783 466 774 l 449 783 l 441 788 l 432 793 l 413 803 q 349 838 362 831 l 349 838 q 292 805 332 831 l 292 805 q 243 772 256 782 l 243 772 z"},"Ä":{"ha":712,"x_min":-55,"x_max":757,"o":"m 422 -4 l 427 17 q 528 31 490 22 l 528 31 q 519 57 525 39 l 519 57 l 516 66 l 513 75 l 506 95 q 475 186 488 149 l 475 186 q 423 324 433 306 l 423 324 q 308 320 391 324 l 308 320 q 192 311 217 315 l 192 311 q 180 272 190 305 l 180 272 q 159 195 169 236 l 159 195 q 122 31 129 81 l 122 31 q 164 23 139 26 l 164 23 q 208 17 181 20 l 208 17 l 212 -4 q 136 -1 190 -3 l 136 -1 q 61 0 85 0 l 61 0 q 2 -1 40 0 l 2 -1 q -55 -4 -39 -3 l -55 -4 l -52 17 q 34 31 -9 21 l 34 31 q 167 360 57 71 l 167 360 q 243 563 202 453 l 243 563 q 270 634 257 600 l 270 634 q 278 657 274 647 l 278 657 q 283 670 281 665 l 283 670 q 244 678 269 674 l 244 678 l 223 681 l 204 683 l 203 704 q 273 701 223 703 l 273 701 q 333 700 317 700 l 333 700 q 423 701 367 700 l 423 701 q 504 704 483 703 l 504 704 l 501 683 q 425 670 454 678 l 425 670 q 468 540 433 640 l 468 540 q 530 364 497 454 l 530 364 q 542 331 536 347 l 542 331 q 557 292 549 311 l 557 292 q 591 202 575 243 l 591 202 q 666 31 636 88 l 666 31 q 754 17 697 25 l 754 17 l 757 -4 q 689 -1 748 -3 l 689 -1 q 591 0 634 0 l 591 0 q 506 -1 565 0 l 506 -1 q 422 -4 440 -3 l 422 -4 z m 416 354 q 393 421 409 375 l 393 421 q 379 463 388 436 l 379 463 l 363 508 q 314 653 324 621 l 314 653 l 312 653 q 284 574 302 624 l 284 574 l 267 529 l 251 485 q 206 358 211 376 l 206 358 l 416 354 z m 187 819 l 235 897 l 312 845 l 262 768 l 187 819 z m 401 821 l 450 897 l 526 845 l 475 769 l 401 821 z"},"À":{"ha":712,"x_min":-55,"x_max":757,"o":"m 422 -4 l 427 17 q 528 31 490 22 l 528 31 q 519 57 525 39 l 519 57 l 516 66 l 513 75 l 506 95 q 475 186 488 149 l 475 186 q 423 324 433 306 l 423 324 q 308 320 391 324 l 308 320 q 192 311 217 315 l 192 311 q 180 272 190 305 l 180 272 q 159 195 169 236 l 159 195 q 122 31 129 81 l 122 31 q 164 23 139 26 l 164 23 q 208 17 181 20 l 208 17 l 212 -4 q 136 -1 190 -3 l 136 -1 q 61 0 85 0 l 61 0 q 2 -1 40 0 l 2 -1 q -55 -4 -39 -3 l -55 -4 l -52 17 q 34 31 -9 21 l 34 31 q 167 360 57 71 l 167 360 q 243 563 202 453 l 243 563 q 270 634 257 600 l 270 634 q 278 657 274 647 l 278 657 q 283 670 281 665 l 283 670 q 244 678 269 674 l 244 678 l 223 681 l 204 683 l 203 704 q 273 701 223 703 l 273 701 q 333 700 317 700 l 333 700 q 423 701 367 700 l 423 701 q 504 704 483 703 l 504 704 l 501 683 q 425 670 454 678 l 425 670 q 468 540 433 640 l 468 540 q 530 364 497 454 l 530 364 q 542 331 536 347 l 542 331 q 557 292 549 311 l 557 292 q 591 202 575 243 l 591 202 q 666 31 636 88 l 666 31 q 754 17 697 25 l 754 17 l 757 -4 q 689 -1 748 -3 l 689 -1 q 591 0 634 0 l 591 0 q 506 -1 565 0 l 506 -1 q 422 -4 440 -3 l 422 -4 z m 416 354 q 393 421 409 375 l 393 421 q 379 463 388 436 l 379 463 l 363 508 q 314 653 324 621 l 314 653 l 312 653 q 284 574 302 624 l 284 574 l 267 529 l 251 485 q 206 358 211 376 l 206 358 l 416 354 z m 178 849 l 217 926 q 260 897 230 917 l 260 897 q 324 856 292 876 l 324 856 q 415 800 408 801 l 415 800 l 403 768 q 364 784 395 772 l 364 784 q 292 812 328 799 l 292 812 q 178 849 192 850 l 178 849 z"},"Å":{"ha":712,"x_min":-55,"x_max":757,"o":"m 422 -4 l 427 17 q 528 31 490 22 l 528 31 q 519 57 525 39 l 519 57 l 516 66 l 513 75 l 506 95 q 475 186 488 149 l 475 186 q 423 324 433 306 l 423 324 q 308 320 391 324 l 308 320 q 192 311 217 315 l 192 311 q 180 272 190 305 l 180 272 q 159 195 169 236 l 159 195 q 122 31 129 81 l 122 31 q 164 23 139 26 l 164 23 q 208 17 181 20 l 208 17 l 212 -4 q 136 -1 190 -3 l 136 -1 q 61 0 85 0 l 61 0 q 2 -1 40 0 l 2 -1 q -55 -4 -39 -3 l -55 -4 l -52 17 q 34 31 -9 21 l 34 31 q 167 360 57 71 l 167 360 q 243 563 202 453 l 243 563 q 270 634 257 600 l 270 634 q 278 657 274 647 l 278 657 q 283 670 281 665 l 283 670 q 244 678 269 674 l 244 678 l 223 681 l 204 683 l 203 704 q 273 701 223 703 l 273 701 q 333 700 317 700 l 333 700 q 423 701 367 700 l 423 701 q 504 704 483 703 l 504 704 l 501 683 q 425 670 454 678 l 425 670 q 468 540 433 640 l 468 540 q 530 364 497 454 l 530 364 q 542 331 536 347 l 542 331 q 557 292 549 311 l 557 292 q 591 202 575 243 l 591 202 q 666 31 636 88 l 666 31 q 754 17 697 25 l 754 17 l 757 -4 q 689 -1 748 -3 l 689 -1 q 591 0 634 0 l 591 0 q 506 -1 565 0 l 506 -1 q 422 -4 440 -3 l 422 -4 z m 416 354 q 393 421 409 375 l 393 421 q 379 463 388 436 l 379 463 l 363 508 q 314 653 324 621 l 314 653 l 312 653 q 284 574 302 624 l 284 574 l 267 529 l 251 485 q 206 358 211 376 l 206 358 l 416 354 z m 342 773 q 271 790 298 773 l 271 790 q 241 838 241 808 l 241 838 q 281 901 241 874 l 281 901 q 362 927 318 927 l 362 927 q 472 863 472 927 l 472 863 q 438 804 472 831 l 438 804 q 342 773 400 773 l 342 773 z m 297 855 q 318 809 297 828 l 318 809 q 360 793 337 793 l 360 793 q 397 808 382 793 l 397 808 q 413 846 413 823 l 413 846 q 398 887 413 869 l 398 887 q 353 907 380 907 l 353 907 q 316 893 333 907 l 316 893 q 297 855 297 877 l 297 855 z"},"Ã":{"ha":712,"x_min":-55,"x_max":757,"o":"m 422 -4 l 427 17 q 528 31 490 22 l 528 31 q 519 57 525 39 l 519 57 l 516 66 l 513 75 l 506 95 q 475 186 488 149 l 475 186 q 423 324 433 306 l 423 324 q 308 320 391 324 l 308 320 q 192 311 217 315 l 192 311 q 180 272 190 305 l 180 272 q 159 195 169 236 l 159 195 q 122 31 129 81 l 122 31 q 164 23 139 26 l 164 23 q 208 17 181 20 l 208 17 l 212 -4 q 136 -1 190 -3 l 136 -1 q 61 0 85 0 l 61 0 q 2 -1 40 0 l 2 -1 q -55 -4 -39 -3 l -55 -4 l -52 17 q 34 31 -9 21 l 34 31 q 167 360 57 71 l 167 360 q 243 563 202 453 l 243 563 q 270 634 257 600 l 270 634 q 278 657 274 647 l 278 657 q 283 670 281 665 l 283 670 q 244 678 269 674 l 244 678 l 223 681 l 204 683 l 203 704 q 273 701 223 703 l 273 701 q 333 700 317 700 l 333 700 q 423 701 367 700 l 423 701 q 504 704 483 703 l 504 704 l 501 683 q 425 670 454 678 l 425 670 q 468 540 433 640 l 468 540 q 530 364 497 454 l 530 364 q 542 331 536 347 l 542 331 q 557 292 549 311 l 557 292 q 591 202 575 243 l 591 202 q 666 31 636 88 l 666 31 q 754 17 697 25 l 754 17 l 757 -4 q 689 -1 748 -3 l 689 -1 q 591 0 634 0 l 591 0 q 506 -1 565 0 l 506 -1 q 422 -4 440 -3 l 422 -4 z m 416 354 q 393 421 409 375 l 393 421 q 379 463 388 436 l 379 463 l 363 508 q 314 653 324 621 l 314 653 l 312 653 q 284 574 302 624 l 284 574 l 267 529 l 251 485 q 206 358 211 376 l 206 358 l 416 354 z m 488 872 l 516 866 q 486 813 507 839 l 486 813 q 438 781 460 781 l 438 781 q 402 788 424 781 l 402 788 q 362 803 386 793 l 362 803 q 284 826 305 826 l 284 826 q 255 820 267 826 l 255 820 q 225 790 238 812 l 225 790 l 197 796 q 209 821 201 807 l 209 821 q 228 852 217 838 l 228 852 q 274 888 254 888 l 274 888 q 345 866 289 888 l 345 866 l 367 857 l 389 849 q 434 841 415 841 l 434 841 l 445 841 q 459 844 453 842 l 459 844 q 488 872 476 851 l 488 872 z"},"Ç":{"ha":809,"x_min":55,"x_max":784,"o":"m 456 -15 l 405 -76 q 494 -157 494 -102 l 494 -157 q 429 -239 494 -209 l 429 -239 q 306 -261 372 -264 l 306 -261 l 315 -229 q 391 -212 363 -230 l 391 -212 q 416 -169 416 -196 l 416 -169 q 338 -97 416 -118 l 338 -97 l 408 -11 q 262 28 321 -1 l 262 28 q 110 157 165 76 l 110 157 q 55 334 55 238 l 55 334 q 213 633 55 527 l 213 633 q 511 716 336 716 l 511 716 q 638 706 569 716 l 638 706 q 688 697 664 702 l 688 697 q 720 690 708 693 l 720 690 q 732 735 724 698 l 732 735 l 735 749 l 737 762 q 741 779 740 776 l 741 779 l 764 784 q 742 475 744 635 l 742 475 l 719 482 q 717 524 719 497 l 717 524 q 713 565 715 553 l 713 565 q 634 640 696 604 l 634 640 q 472 681 560 681 l 472 681 q 255 596 339 681 l 255 596 q 175 393 175 514 l 175 393 q 282 140 175 245 l 282 140 q 547 33 390 33 l 547 33 q 784 87 693 33 l 784 87 l 770 44 q 738 27 760 36 l 738 27 q 680 7 713 16 l 680 7 q 489 -16 593 -16 l 489 -16 l 475 -16 q 456 -15 465 -16 l 456 -15 z"},"É":{"ha":637,"x_min":48,"x_max":569,"o":"m 163 343 l 163 389 q 161 551 163 463 l 161 551 q 156 669 159 647 l 156 669 q 106 676 144 672 l 106 676 q 76 680 94 678 l 76 680 l 63 682 q 52 683 56 683 l 52 683 l 48 704 q 138 701 72 703 l 138 701 l 186 701 q 226 700 216 700 l 226 700 l 282 700 q 375 701 333 700 l 375 701 q 520 707 503 703 l 520 707 q 528 754 525 727 l 528 754 l 551 758 q 540 658 548 744 l 540 658 q 534 593 537 626 l 534 593 q 531 551 532 564 l 531 551 l 509 558 l 509 589 q 509 630 510 618 l 509 630 q 410 662 497 649 l 410 662 q 339 670 376 667 l 339 670 q 284 672 306 672 l 284 672 q 279 556 282 662 l 279 556 q 277 406 277 457 l 277 406 l 277 386 q 484 402 441 386 l 484 402 q 494 445 491 422 l 494 445 l 515 447 q 503 359 514 438 l 503 359 q 495 300 497 319 l 495 300 q 489 260 491 271 l 489 260 l 470 268 q 472 335 472 310 l 472 335 q 277 357 429 357 l 277 357 l 277 337 q 279 171 277 285 l 279 171 q 284 29 282 49 l 284 29 q 524 63 464 29 l 524 63 q 537 112 530 83 l 537 112 l 539 123 l 542 133 q 546 151 544 144 l 546 151 l 569 157 q 551 49 564 135 l 551 49 q 536 -74 539 -37 l 536 -74 l 515 -70 q 514 -9 515 -25 l 514 -9 q 370 -3 495 -6 l 370 -3 q 200 0 262 0 l 200 0 q 126 -1 174 0 l 126 -1 q 48 -4 77 -3 l 48 -4 l 53 17 q 72 19 60 17 l 72 19 q 100 22 86 20 l 100 22 q 156 31 138 26 l 156 31 q 161 153 159 44 l 161 153 q 163 343 163 252 l 163 343 z m 459 926 l 497 849 q 383 812 483 850 l 383 812 q 312 784 347 799 l 312 784 q 273 768 280 771 l 273 768 l 261 800 q 352 856 268 801 l 352 856 q 416 897 384 876 l 416 897 q 459 926 446 917 l 459 926 z"},"Ê":{"ha":637,"x_min":48,"x_max":569,"o":"m 163 343 l 163 389 q 161 551 163 463 l 161 551 q 156 669 159 647 l 156 669 q 106 676 144 672 l 106 676 q 76 680 94 678 l 76 680 l 63 682 q 52 683 56 683 l 52 683 l 48 704 q 138 701 72 703 l 138 701 l 186 701 q 226 700 216 700 l 226 700 l 282 700 q 375 701 333 700 l 375 701 q 520 707 503 703 l 520 707 q 528 754 525 727 l 528 754 l 551 758 q 540 658 548 744 l 540 658 q 534 593 537 626 l 534 593 q 531 551 532 564 l 531 551 l 509 558 l 509 589 q 509 630 510 618 l 509 630 q 410 662 497 649 l 410 662 q 339 670 376 667 l 339 670 q 284 672 306 672 l 284 672 q 279 556 282 662 l 279 556 q 277 406 277 457 l 277 406 l 277 386 q 484 402 441 386 l 484 402 q 494 445 491 422 l 494 445 l 515 447 q 503 359 514 438 l 503 359 q 495 300 497 319 l 495 300 q 489 260 491 271 l 489 260 l 470 268 q 472 335 472 310 l 472 335 q 277 357 429 357 l 277 357 l 277 337 q 279 171 277 285 l 279 171 q 284 29 282 49 l 284 29 q 524 63 464 29 l 524 63 q 537 112 530 83 l 537 112 l 539 123 l 542 133 q 546 151 544 144 l 546 151 l 569 157 q 551 49 564 135 l 551 49 q 536 -74 539 -37 l 536 -74 l 515 -70 q 514 -9 515 -25 l 514 -9 q 370 -3 495 -6 l 370 -3 q 200 0 262 0 l 200 0 q 126 -1 174 0 l 126 -1 q 48 -4 77 -3 l 48 -4 l 53 17 q 72 19 60 17 l 72 19 q 100 22 86 20 l 100 22 q 156 31 138 26 l 156 31 q 161 153 159 44 l 161 153 q 163 343 163 252 l 163 343 z m 205 772 l 186 795 q 252 856 206 812 l 252 856 q 313 917 301 903 l 313 917 l 321 910 l 329 902 q 348 885 340 893 l 348 885 q 389 849 372 865 l 389 849 q 450 796 438 806 l 450 796 l 431 772 q 411 783 428 774 l 411 783 l 403 788 l 394 793 l 375 803 q 311 838 324 831 l 311 838 q 254 805 294 831 l 254 805 q 205 772 218 782 l 205 772 z"},"Ë":{"ha":637,"x_min":48,"x_max":569,"o":"m 163 343 l 163 389 q 161 551 163 463 l 161 551 q 156 669 159 647 l 156 669 q 106 676 144 672 l 106 676 q 76 680 94 678 l 76 680 l 63 682 q 52 683 56 683 l 52 683 l 48 704 q 138 701 72 703 l 138 701 l 186 701 q 226 700 216 700 l 226 700 l 282 700 q 375 701 333 700 l 375 701 q 520 707 503 703 l 520 707 q 528 754 525 727 l 528 754 l 551 758 q 540 658 548 744 l 540 658 q 534 593 537 626 l 534 593 q 531 551 532 564 l 531 551 l 509 558 l 509 589 q 509 630 510 618 l 509 630 q 410 662 497 649 l 410 662 q 339 670 376 667 l 339 670 q 284 672 306 672 l 284 672 q 279 556 282 662 l 279 556 q 277 406 277 457 l 277 406 l 277 386 q 484 402 441 386 l 484 402 q 494 445 491 422 l 494 445 l 515 447 q 503 359 514 438 l 503 359 q 495 300 497 319 l 495 300 q 489 260 491 271 l 489 260 l 470 268 q 472 335 472 310 l 472 335 q 277 357 429 357 l 277 357 l 277 337 q 279 171 277 285 l 279 171 q 284 29 282 49 l 284 29 q 524 63 464 29 l 524 63 q 537 112 530 83 l 537 112 l 539 123 l 542 133 q 546 151 544 144 l 546 151 l 569 157 q 551 49 564 135 l 551 49 q 536 -74 539 -37 l 536 -74 l 515 -70 q 514 -9 515 -25 l 514 -9 q 370 -3 495 -6 l 370 -3 q 200 0 262 0 l 200 0 q 126 -1 174 0 l 126 -1 q 48 -4 77 -3 l 48 -4 l 53 17 q 72 19 60 17 l 72 19 q 100 22 86 20 l 100 22 q 156 31 138 26 l 156 31 q 161 153 159 44 l 161 153 q 163 343 163 252 l 163 343 z m 149 819 l 197 897 l 274 845 l 224 768 l 149 819 z m 363 821 l 412 897 l 488 845 l 437 769 l 363 821 z"},"È":{"ha":637,"x_min":48,"x_max":569,"o":"m 163 343 l 163 389 q 161 551 163 463 l 161 551 q 156 669 159 647 l 156 669 q 106 676 144 672 l 106 676 q 76 680 94 678 l 76 680 l 63 682 q 52 683 56 683 l 52 683 l 48 704 q 138 701 72 703 l 138 701 l 186 701 q 226 700 216 700 l 226 700 l 282 700 q 375 701 333 700 l 375 701 q 520 707 503 703 l 520 707 q 528 754 525 727 l 528 754 l 551 758 q 540 658 548 744 l 540 658 q 534 593 537 626 l 534 593 q 531 551 532 564 l 531 551 l 509 558 l 509 589 q 509 630 510 618 l 509 630 q 410 662 497 649 l 410 662 q 339 670 376 667 l 339 670 q 284 672 306 672 l 284 672 q 279 556 282 662 l 279 556 q 277 406 277 457 l 277 406 l 277 386 q 484 402 441 386 l 484 402 q 494 445 491 422 l 494 445 l 515 447 q 503 359 514 438 l 503 359 q 495 300 497 319 l 495 300 q 489 260 491 271 l 489 260 l 470 268 q 472 335 472 310 l 472 335 q 277 357 429 357 l 277 357 l 277 337 q 279 171 277 285 l 279 171 q 284 29 282 49 l 284 29 q 524 63 464 29 l 524 63 q 537 112 530 83 l 537 112 l 539 123 l 542 133 q 546 151 544 144 l 546 151 l 569 157 q 551 49 564 135 l 551 49 q 536 -74 539 -37 l 536 -74 l 515 -70 q 514 -9 515 -25 l 514 -9 q 370 -3 495 -6 l 370 -3 q 200 0 262 0 l 200 0 q 126 -1 174 0 l 126 -1 q 48 -4 77 -3 l 48 -4 l 53 17 q 72 19 60 17 l 72 19 q 100 22 86 20 l 100 22 q 156 31 138 26 l 156 31 q 161 153 159 44 l 161 153 q 163 343 163 252 l 163 343 z m 170 849 l 209 926 q 252 897 222 917 l 252 897 q 316 856 284 876 l 316 856 q 407 800 400 801 l 407 800 l 395 768 q 356 784 387 772 l 356 784 q 284 812 320 799 l 284 812 q 170 849 184 850 l 170 849 z"},"Í":{"ha":440,"x_min":48,"x_max":399,"o":"m 277 410 l 277 348 q 278 148 277 229 l 278 148 q 282 31 279 45 l 282 31 q 336 23 298 27 l 336 23 q 366 19 350 21 l 366 19 l 378 18 l 383 17 l 387 17 l 392 -4 q 313 -1 376 -3 l 313 -1 q 204 0 252 0 l 204 0 q 125 -1 176 0 l 125 -1 q 48 -4 69 -3 l 48 -4 l 52 17 q 104 23 65 18 l 104 23 q 158 31 142 28 l 158 31 q 162 173 161 59 l 162 173 q 163 270 163 217 l 163 270 l 163 464 q 162 542 162 505 l 162 542 q 158 669 161 647 l 158 669 q 105 677 145 672 l 105 677 q 75 681 90 679 l 75 681 q 53 683 61 682 l 53 683 l 48 704 q 121 701 62 702 l 121 701 q 238 700 179 700 l 238 700 q 328 701 278 700 l 328 701 q 392 704 380 703 l 392 704 l 387 683 q 341 677 378 682 l 341 677 l 311 673 q 282 669 294 670 l 282 669 q 277 410 277 644 l 277 410 z m 361 926 l 399 849 q 285 812 385 850 l 285 812 q 214 784 249 799 l 214 784 q 175 768 182 771 l 175 768 l 163 800 q 254 856 170 801 l 254 856 q 318 897 286 876 l 318 897 q 361 926 348 917 l 361 926 z"},"Î":{"ha":440,"x_min":48,"x_max":392,"o":"m 277 410 l 277 348 q 278 148 277 229 l 278 148 q 282 31 279 45 l 282 31 q 336 23 298 27 l 336 23 q 366 19 350 21 l 366 19 l 378 18 l 383 17 l 387 17 l 392 -4 q 313 -1 376 -3 l 313 -1 q 204 0 252 0 l 204 0 q 125 -1 176 0 l 125 -1 q 48 -4 69 -3 l 48 -4 l 52 17 q 104 23 65 18 l 104 23 q 158 31 142 28 l 158 31 q 162 173 161 59 l 162 173 q 163 270 163 217 l 163 270 l 163 464 q 162 542 162 505 l 162 542 q 158 669 161 647 l 158 669 q 105 677 145 672 l 105 677 q 75 681 90 679 l 75 681 q 53 683 61 682 l 53 683 l 48 704 q 121 701 62 702 l 121 701 q 238 700 179 700 l 238 700 q 328 701 278 700 l 328 701 q 392 704 380 703 l 392 704 l 387 683 q 341 677 378 682 l 341 677 l 311 673 q 282 669 294 670 l 282 669 q 277 410 277 644 l 277 410 z m 107 772 l 88 795 q 154 856 108 812 l 154 856 q 215 917 203 903 l 215 917 l 223 910 l 231 902 q 250 885 242 893 l 250 885 q 291 849 274 865 l 291 849 q 352 796 340 806 l 352 796 l 333 772 q 313 783 330 774 l 313 783 l 305 788 l 296 793 l 277 803 q 213 838 226 831 l 213 838 q 156 805 196 831 l 156 805 q 107 772 120 782 l 107 772 z"},"Ï":{"ha":440,"x_min":48,"x_max":392,"o":"m 277 410 l 277 348 q 278 148 277 229 l 278 148 q 282 31 279 45 l 282 31 q 336 23 298 27 l 336 23 q 366 19 350 21 l 366 19 l 378 18 l 383 17 l 387 17 l 392 -4 q 313 -1 376 -3 l 313 -1 q 204 0 252 0 l 204 0 q 125 -1 176 0 l 125 -1 q 48 -4 69 -3 l 48 -4 l 52 17 q 104 23 65 18 l 104 23 q 158 31 142 28 l 158 31 q 162 173 161 59 l 162 173 q 163 270 163 217 l 163 270 l 163 464 q 162 542 162 505 l 162 542 q 158 669 161 647 l 158 669 q 105 677 145 672 l 105 677 q 75 681 90 679 l 75 681 q 53 683 61 682 l 53 683 l 48 704 q 121 701 62 702 l 121 701 q 238 700 179 700 l 238 700 q 328 701 278 700 l 328 701 q 392 704 380 703 l 392 704 l 387 683 q 341 677 378 682 l 341 677 l 311 673 q 282 669 294 670 l 282 669 q 277 410 277 644 l 277 410 z m 51 819 l 99 897 l 176 845 l 126 768 l 51 819 z m 265 821 l 314 897 l 390 845 l 339 769 l 265 821 z"},"Ì":{"ha":440,"x_min":42,"x_max":392,"o":"m 277 410 l 277 348 q 278 148 277 229 l 278 148 q 282 31 279 45 l 282 31 q 336 23 298 27 l 336 23 q 366 19 350 21 l 366 19 l 378 18 l 383 17 l 387 17 l 392 -4 q 313 -1 376 -3 l 313 -1 q 204 0 252 0 l 204 0 q 125 -1 176 0 l 125 -1 q 48 -4 69 -3 l 48 -4 l 52 17 q 104 23 65 18 l 104 23 q 158 31 142 28 l 158 31 q 162 173 161 59 l 162 173 q 163 270 163 217 l 163 270 l 163 464 q 162 542 162 505 l 162 542 q 158 669 161 647 l 158 669 q 105 677 145 672 l 105 677 q 75 681 90 679 l 75 681 q 53 683 61 682 l 53 683 l 48 704 q 121 701 62 702 l 121 701 q 238 700 179 700 l 238 700 q 328 701 278 700 l 328 701 q 392 704 380 703 l 392 704 l 387 683 q 341 677 378 682 l 341 677 l 311 673 q 282 669 294 670 l 282 669 q 277 410 277 644 l 277 410 z m 42 849 l 81 926 q 124 897 94 917 l 124 897 q 188 856 156 876 l 188 856 q 279 800 272 801 l 279 800 l 267 768 q 228 784 259 772 l 228 784 q 156 812 192 799 l 156 812 q 42 849 56 850 l 42 849 z"},"Ñ":{"ha":908,"x_min":40,"x_max":873,"o":"m 44 679 l 40 700 q 88 701 57 701 l 88 701 l 116 702 l 146 703 q 268 707 222 705 l 268 707 q 390 549 283 683 l 390 549 q 508 403 493 418 l 508 403 q 548 356 516 395 l 548 356 q 563 339 554 350 l 563 339 l 580 319 q 614 279 600 295 l 614 279 q 725 155 706 171 l 725 155 l 725 275 q 722 434 724 363 l 722 434 q 704 669 717 636 l 704 669 q 657 677 687 672 l 657 677 q 603 683 623 682 l 603 683 l 598 704 q 671 701 611 703 l 671 701 q 717 700 695 701 l 717 700 l 747 700 q 810 701 767 700 l 810 701 q 873 704 859 703 l 873 704 l 869 683 q 855 681 865 682 l 855 681 l 846 679 l 836 677 q 793 669 808 671 l 793 669 q 780 560 785 645 l 780 560 q 776 498 778 534 l 776 498 l 775 485 l 775 474 q 774 457 774 462 l 774 457 q 771 364 773 442 l 771 364 q 769 286 770 340 l 769 286 l 768 244 l 767 201 q 757 -50 760 -27 l 757 -50 q 589 139 739 -33 l 589 139 q 534 204 564 168 l 534 204 q 508 234 522 218 l 508 234 q 484 261 498 245 l 484 261 q 427 327 432 321 l 427 327 q 316 461 420 334 l 316 461 l 296 485 l 276 509 q 239 554 254 535 l 239 554 q 190 612 201 599 l 190 612 q 190 518 189 604 l 190 518 q 195 328 192 429 l 195 328 q 212 31 203 55 l 212 31 q 265 23 221 28 l 265 23 q 298 19 279 21 l 298 19 l 305 19 l 311 18 q 321 17 318 17 l 321 17 l 324 -4 q 253 -1 312 -3 l 253 -1 q 176 0 201 0 l 176 0 q 108 -1 153 0 l 108 -1 q 40 -4 61 -3 l 40 -4 l 43 17 l 65 20 l 86 23 q 126 31 112 27 l 126 31 q 146 352 137 58 l 146 352 q 152 560 150 450 l 152 560 q 153 632 153 600 l 153 632 q 154 667 154 660 l 154 667 q 44 679 116 675 l 44 679 z m 616 872 l 644 866 q 614 813 635 839 l 614 813 q 566 781 588 781 l 566 781 q 490 803 542 781 l 490 803 q 412 826 433 826 l 412 826 q 383 820 395 826 l 383 820 q 353 790 366 812 l 353 790 l 325 796 q 337 821 329 807 l 337 821 q 356 852 345 838 l 356 852 q 402 888 382 888 l 402 888 q 473 866 417 888 l 473 866 l 495 857 l 517 849 q 562 841 543 841 l 562 841 l 573 841 q 587 844 581 842 l 587 844 q 616 872 604 851 l 616 872 z"},"Ó":{"ha":947,"x_min":55,"x_max":892,"o":"m 460 -16 q 151 96 261 -16 l 151 96 q 55 338 55 195 l 55 338 q 171 601 55 494 l 171 601 q 494 716 295 716 l 494 716 q 771 635 661 716 l 771 635 q 861 524 829 593 l 861 524 q 892 387 892 459 l 892 387 q 768 94 892 206 l 768 94 q 460 -16 647 -16 l 460 -16 z m 509 25 q 693 110 617 25 l 693 110 q 770 314 770 194 l 770 314 q 676 576 770 470 l 676 576 q 457 678 584 678 l 457 678 q 262 606 343 678 l 262 606 q 170 380 170 524 l 170 380 q 266 135 170 241 l 266 135 q 509 25 367 25 l 509 25 z m 614 926 l 652 849 q 538 812 638 850 l 538 812 q 467 784 502 799 l 467 784 q 428 768 435 771 l 428 768 l 416 800 q 507 856 423 801 l 507 856 q 571 897 539 876 l 571 897 q 614 926 601 917 l 614 926 z"},"Ô":{"ha":947,"x_min":55,"x_max":892,"o":"m 460 -16 q 151 96 261 -16 l 151 96 q 55 338 55 195 l 55 338 q 171 601 55 494 l 171 601 q 494 716 295 716 l 494 716 q 771 635 661 716 l 771 635 q 861 524 829 593 l 861 524 q 892 387 892 459 l 892 387 q 768 94 892 206 l 768 94 q 460 -16 647 -16 l 460 -16 z m 509 25 q 693 110 617 25 l 693 110 q 770 314 770 194 l 770 314 q 676 576 770 470 l 676 576 q 457 678 584 678 l 457 678 q 262 606 343 678 l 262 606 q 170 380 170 524 l 170 380 q 266 135 170 241 l 266 135 q 509 25 367 25 l 509 25 z m 370 772 l 351 795 q 417 856 371 812 l 417 856 q 478 917 466 903 l 478 917 l 486 910 l 494 902 q 513 885 505 893 l 513 885 q 554 849 537 865 l 554 849 q 615 796 603 806 l 615 796 l 596 772 q 576 783 593 774 l 576 783 l 568 788 l 559 793 l 540 803 q 476 838 489 831 l 476 838 q 419 805 459 831 l 419 805 q 370 772 383 782 l 370 772 z"},"Ö":{"ha":947,"x_min":55,"x_max":892,"o":"m 460 -16 q 151 96 261 -16 l 151 96 q 55 338 55 195 l 55 338 q 171 601 55 494 l 171 601 q 494 716 295 716 l 494 716 q 771 635 661 716 l 771 635 q 861 524 829 593 l 861 524 q 892 387 892 459 l 892 387 q 768 94 892 206 l 768 94 q 460 -16 647 -16 l 460 -16 z m 509 25 q 693 110 617 25 l 693 110 q 770 314 770 194 l 770 314 q 676 576 770 470 l 676 576 q 457 678 584 678 l 457 678 q 262 606 343 678 l 262 606 q 170 380 170 524 l 170 380 q 266 135 170 241 l 266 135 q 509 25 367 25 l 509 25 z m 304 819 l 352 897 l 429 845 l 379 768 l 304 819 z m 518 821 l 567 897 l 643 845 l 592 769 l 518 821 z"},"Ò":{"ha":947,"x_min":55,"x_max":892,"o":"m 460 -16 q 151 96 261 -16 l 151 96 q 55 338 55 195 l 55 338 q 171 601 55 494 l 171 601 q 494 716 295 716 l 494 716 q 771 635 661 716 l 771 635 q 861 524 829 593 l 861 524 q 892 387 892 459 l 892 387 q 768 94 892 206 l 768 94 q 460 -16 647 -16 l 460 -16 z m 509 25 q 693 110 617 25 l 693 110 q 770 314 770 194 l 770 314 q 676 576 770 470 l 676 576 q 457 678 584 678 l 457 678 q 262 606 343 678 l 262 606 q 170 380 170 524 l 170 380 q 266 135 170 241 l 266 135 q 509 25 367 25 l 509 25 z m 295 849 l 334 926 q 377 897 347 917 l 377 897 q 441 856 409 876 l 441 856 q 532 800 525 801 l 532 800 l 520 768 q 481 784 512 772 l 481 784 q 409 812 445 799 l 409 812 q 295 849 309 850 l 295 849 z"},"Õ":{"ha":947,"x_min":55,"x_max":892,"o":"m 460 -16 q 151 96 261 -16 l 151 96 q 55 338 55 195 l 55 338 q 171 601 55 494 l 171 601 q 494 716 295 716 l 494 716 q 771 635 661 716 l 771 635 q 861 524 829 593 l 861 524 q 892 387 892 459 l 892 387 q 768 94 892 206 l 768 94 q 460 -16 647 -16 l 460 -16 z m 509 25 q 693 110 617 25 l 693 110 q 770 314 770 194 l 770 314 q 676 576 770 470 l 676 576 q 457 678 584 678 l 457 678 q 262 606 343 678 l 262 606 q 170 380 170 524 l 170 380 q 266 135 170 241 l 266 135 q 509 25 367 25 l 509 25 z m 605 872 l 633 866 q 603 813 624 839 l 603 813 q 555 781 577 781 l 555 781 q 519 788 541 781 l 519 788 q 479 803 503 793 l 479 803 q 401 826 422 826 l 401 826 q 372 820 384 826 l 372 820 q 342 790 355 812 l 342 790 l 314 796 q 326 821 318 807 l 326 821 q 345 852 334 838 l 345 852 q 391 888 371 888 l 391 888 q 462 866 406 888 l 462 866 l 484 857 l 506 849 q 551 841 532 841 l 551 841 l 562 841 q 576 844 570 842 l 576 844 q 605 872 593 851 l 605 872 z"},"Š":{"ha":552,"x_min":63,"x_max":492,"o":"m 86 -95 l 63 -101 q 64 -92 63 -98 l 64 -92 q 66 -75 65 -84 l 66 -75 q 72 -28 69 -51 l 72 -28 q 79 63 79 38 l 79 63 q 80 95 79 71 l 80 95 l 81 118 l 82 143 q 82 221 84 207 l 82 221 l 105 215 q 107 173 104 206 l 107 173 q 112 127 110 141 l 112 127 q 174 49 133 78 l 174 49 q 267 18 216 18 l 267 18 q 368 53 327 18 l 368 53 q 409 144 409 89 l 409 144 q 369 240 409 198 l 369 240 q 281 307 346 265 l 281 307 q 156 405 191 366 l 156 405 q 105 540 105 463 l 105 540 q 153 657 105 608 l 153 657 q 311 716 209 716 l 311 716 q 392 709 350 716 l 392 709 q 423 703 407 707 l 423 703 q 446 698 434 701 l 446 698 q 455 737 450 712 l 455 737 l 460 758 l 464 779 l 487 782 q 463 508 463 612 l 463 508 l 440 518 q 436 594 440 558 l 436 594 q 392 653 426 625 l 392 653 q 303 684 351 684 l 303 684 q 210 651 244 684 l 210 651 q 181 584 181 623 l 181 584 q 225 504 181 541 l 225 504 q 270 470 241 489 l 270 470 l 297 453 l 325 436 q 440 347 407 385 l 440 347 q 492 202 492 286 l 492 202 q 420 41 492 101 l 420 41 q 246 -16 352 -16 l 246 -16 q 108 9 155 -16 l 108 9 q 86 -95 100 -22 l 86 -95 z m 409 917 l 427 893 q 401 868 420 886 l 401 868 q 363 832 390 857 l 363 832 q 301 772 310 782 l 301 772 q 266 802 288 782 l 266 802 q 225 839 250 816 l 225 839 q 164 893 171 887 l 164 893 l 183 917 q 202 905 186 915 l 202 905 q 238 884 219 895 l 238 884 q 303 851 289 856 l 303 851 q 361 884 319 858 l 361 884 q 390 904 376 894 l 390 904 q 409 917 404 913 l 409 917 z"},"Ú":{"ha":857,"x_min":44,"x_max":819,"o":"m 131 287 l 131 443 q 126 669 131 622 l 126 669 q 47 683 100 675 l 47 683 l 44 704 q 213 700 100 700 l 213 700 q 295 701 248 700 l 295 701 q 361 704 343 703 l 361 704 l 356 683 l 345 682 l 333 680 q 306 677 318 679 l 306 677 q 252 669 273 673 l 252 669 q 248 580 250 657 l 248 580 q 247 439 247 510 l 247 439 l 247 306 q 306 85 247 157 l 306 85 q 445 22 356 22 l 445 22 q 589 70 538 22 l 589 70 q 656 329 656 133 l 656 329 l 656 469 q 655 545 655 509 l 655 545 q 651 669 654 648 l 651 669 q 598 677 633 672 l 598 677 q 542 683 561 682 l 542 683 l 535 704 q 697 700 585 700 l 697 700 q 819 704 785 700 l 819 704 l 813 683 q 781 677 805 681 l 781 677 l 763 673 l 743 669 q 739 590 741 659 l 739 590 q 738 537 739 564 l 738 537 l 738 454 q 739 391 738 434 l 739 391 q 740 331 740 349 l 740 331 q 642 54 740 141 l 642 54 q 433 -16 563 -16 l 433 -16 q 204 70 283 -16 l 204 70 q 131 287 131 150 l 131 287 z m 599 926 l 637 849 q 523 812 623 850 l 523 812 q 452 784 487 799 l 452 784 q 413 768 420 771 l 413 768 l 401 800 q 492 856 408 801 l 492 856 q 556 897 524 876 l 556 897 q 599 926 586 917 l 599 926 z"},"Û":{"ha":857,"x_min":44,"x_max":819,"o":"m 131 287 l 131 443 q 126 669 131 622 l 126 669 q 47 683 100 675 l 47 683 l 44 704 q 213 700 100 700 l 213 700 q 295 701 248 700 l 295 701 q 361 704 343 703 l 361 704 l 356 683 l 345 682 l 333 680 q 306 677 318 679 l 306 677 q 252 669 273 673 l 252 669 q 248 580 250 657 l 248 580 q 247 439 247 510 l 247 439 l 247 306 q 306 85 247 157 l 306 85 q 445 22 356 22 l 445 22 q 589 70 538 22 l 589 70 q 656 329 656 133 l 656 329 l 656 469 q 655 545 655 509 l 655 545 q 651 669 654 648 l 651 669 q 598 677 633 672 l 598 677 q 542 683 561 682 l 542 683 l 535 704 q 697 700 585 700 l 697 700 q 819 704 785 700 l 819 704 l 813 683 q 781 677 805 681 l 781 677 l 763 673 l 743 669 q 739 590 741 659 l 739 590 q 738 537 739 564 l 738 537 l 738 454 q 739 391 738 434 l 739 391 q 740 331 740 349 l 740 331 q 642 54 740 141 l 642 54 q 433 -16 563 -16 l 433 -16 q 204 70 283 -16 l 204 70 q 131 287 131 150 l 131 287 z m 345 772 l 326 795 q 392 856 346 812 l 392 856 q 453 917 441 903 l 453 917 l 461 910 l 469 902 q 488 885 480 893 l 488 885 q 529 849 512 865 l 529 849 q 590 796 578 806 l 590 796 l 571 772 q 551 783 568 774 l 551 783 l 543 788 l 534 793 l 515 803 q 451 838 464 831 l 451 838 q 394 805 434 831 l 394 805 q 345 772 358 782 l 345 772 z"},"Ü":{"ha":857,"x_min":44,"x_max":819,"o":"m 131 287 l 131 443 q 126 669 131 622 l 126 669 q 47 683 100 675 l 47 683 l 44 704 q 213 700 100 700 l 213 700 q 295 701 248 700 l 295 701 q 361 704 343 703 l 361 704 l 356 683 l 345 682 l 333 680 q 306 677 318 679 l 306 677 q 252 669 273 673 l 252 669 q 248 580 250 657 l 248 580 q 247 439 247 510 l 247 439 l 247 306 q 306 85 247 157 l 306 85 q 445 22 356 22 l 445 22 q 589 70 538 22 l 589 70 q 656 329 656 133 l 656 329 l 656 469 q 655 545 655 509 l 655 545 q 651 669 654 648 l 651 669 q 598 677 633 672 l 598 677 q 542 683 561 682 l 542 683 l 535 704 q 697 700 585 700 l 697 700 q 819 704 785 700 l 819 704 l 813 683 q 781 677 805 681 l 781 677 l 763 673 l 743 669 q 739 590 741 659 l 739 590 q 738 537 739 564 l 738 537 l 738 454 q 739 391 738 434 l 739 391 q 740 331 740 349 l 740 331 q 642 54 740 141 l 642 54 q 433 -16 563 -16 l 433 -16 q 204 70 283 -16 l 204 70 q 131 287 131 150 l 131 287 z m 279 819 l 327 897 l 404 845 l 354 768 l 279 819 z m 493 821 l 542 897 l 618 845 l 567 769 l 493 821 z"},"Ù":{"ha":857,"x_min":44,"x_max":819,"o":"m 131 287 l 131 443 q 126 669 131 622 l 126 669 q 47 683 100 675 l 47 683 l 44 704 q 213 700 100 700 l 213 700 q 295 701 248 700 l 295 701 q 361 704 343 703 l 361 704 l 356 683 l 345 682 l 333 680 q 306 677 318 679 l 306 677 q 252 669 273 673 l 252 669 q 248 580 250 657 l 248 580 q 247 439 247 510 l 247 439 l 247 306 q 306 85 247 157 l 306 85 q 445 22 356 22 l 445 22 q 589 70 538 22 l 589 70 q 656 329 656 133 l 656 329 l 656 469 q 655 545 655 509 l 655 545 q 651 669 654 648 l 651 669 q 598 677 633 672 l 598 677 q 542 683 561 682 l 542 683 l 535 704 q 697 700 585 700 l 697 700 q 819 704 785 700 l 819 704 l 813 683 q 781 677 805 681 l 781 677 l 763 673 l 743 669 q 739 590 741 659 l 739 590 q 738 537 739 564 l 738 537 l 738 454 q 739 391 738 434 l 739 391 q 740 331 740 349 l 740 331 q 642 54 740 141 l 642 54 q 433 -16 563 -16 l 433 -16 q 204 70 283 -16 l 204 70 q 131 287 131 150 l 131 287 z m 250 849 l 289 926 q 332 897 302 917 l 332 897 q 396 856 364 876 l 396 856 q 487 800 480 801 l 487 800 l 475 768 q 436 784 467 772 l 436 784 q 364 812 400 799 l 364 812 q 250 849 264 850 l 250 849 z"},"Ý":{"ha":654,"x_min":-35,"x_max":717,"o":"m 286 220 l 286 281 q 283 318 285 301 l 283 318 q 175 487 276 340 l 175 487 q 39 669 71 639 l 39 669 q 7 677 31 673 l 7 677 l -13 680 q -31 683 -25 682 l -31 683 l -35 704 q 139 700 -1 700 l 139 700 q 224 701 181 700 l 224 701 q 277 704 266 702 l 277 704 l 272 683 q 231 676 263 681 l 231 676 l 207 673 q 186 669 194 671 l 186 669 q 293 498 220 609 l 293 498 l 306 478 l 319 458 q 343 421 335 434 l 343 421 q 378 366 368 383 l 378 366 q 411 420 382 373 l 411 420 q 425 441 419 433 l 425 441 l 439 464 q 469 513 456 491 l 469 513 q 551 669 549 644 l 551 669 q 509 677 537 672 l 509 677 q 488 681 499 679 l 488 681 l 479 682 q 473 683 476 683 l 473 683 l 470 704 q 596 700 500 700 l 596 700 q 665 701 629 700 l 665 701 q 717 704 699 702 l 717 704 l 714 683 q 700 680 710 682 l 700 680 l 691 679 l 682 677 q 646 669 659 673 l 646 669 q 522 511 630 664 l 522 511 q 404 326 415 359 l 404 326 q 401 293 402 314 l 401 293 q 400 255 400 275 l 400 255 l 400 180 q 401 123 400 150 l 401 123 q 405 31 402 47 l 405 31 q 451 24 412 29 l 451 24 l 466 22 l 481 20 q 502 17 496 18 l 502 17 l 504 -4 q 432 -1 488 -3 l 432 -1 q 325 0 376 0 l 325 0 q 254 -1 297 0 l 254 -1 q 188 -4 209 -3 l 188 -4 l 193 17 q 212 19 201 18 l 212 19 q 236 23 224 21 l 236 23 q 281 31 266 27 l 281 31 q 285 107 284 41 l 285 107 q 286 220 286 157 l 286 220 z m 517 926 l 555 849 q 441 812 541 850 l 441 812 q 370 784 405 799 l 370 784 q 331 768 338 771 l 331 768 l 319 800 q 410 856 326 801 l 410 856 q 474 897 442 876 l 474 897 q 517 926 504 917 l 517 926 z"},"Ÿ":{"ha":654,"x_min":-35,"x_max":717,"o":"m 286 220 l 286 281 q 283 318 285 301 l 283 318 q 175 487 276 340 l 175 487 q 39 669 71 639 l 39 669 q 7 677 31 673 l 7 677 l -13 680 q -31 683 -25 682 l -31 683 l -35 704 q 139 700 -1 700 l 139 700 q 224 701 181 700 l 224 701 q 277 704 266 702 l 277 704 l 272 683 q 231 676 263 681 l 231 676 l 207 673 q 186 669 194 671 l 186 669 q 293 498 220 609 l 293 498 l 306 478 l 319 458 q 343 421 335 434 l 343 421 q 378 366 368 383 l 378 366 q 411 420 382 373 l 411 420 q 425 441 419 433 l 425 441 l 439 464 q 469 513 456 491 l 469 513 q 551 669 549 644 l 551 669 q 509 677 537 672 l 509 677 q 488 681 499 679 l 488 681 l 479 682 q 473 683 476 683 l 473 683 l 470 704 q 596 700 500 700 l 596 700 q 665 701 629 700 l 665 701 q 717 704 699 702 l 717 704 l 714 683 q 700 680 710 682 l 700 680 l 691 679 l 682 677 q 646 669 659 673 l 646 669 q 522 511 630 664 l 522 511 q 404 326 415 359 l 404 326 q 401 293 402 314 l 401 293 q 400 255 400 275 l 400 255 l 400 180 q 401 123 400 150 l 401 123 q 405 31 402 47 l 405 31 q 451 24 412 29 l 451 24 l 466 22 l 481 20 q 502 17 496 18 l 502 17 l 504 -4 q 432 -1 488 -3 l 432 -1 q 325 0 376 0 l 325 0 q 254 -1 297 0 l 254 -1 q 188 -4 209 -3 l 188 -4 l 193 17 q 212 19 201 18 l 212 19 q 236 23 224 21 l 236 23 q 281 31 266 27 l 281 31 q 285 107 284 41 l 285 107 q 286 220 286 157 l 286 220 z m 187 819 l 235 897 l 312 845 l 262 768 l 187 819 z m 401 821 l 450 897 l 526 845 l 475 769 l 401 821 z"},"Ž":{"ha":718,"x_min":27,"x_max":675,"o":"m 652 221 l 675 227 q 671 206 675 226 l 671 206 q 668 189 670 197 l 668 189 q 665 169 667 179 l 665 169 q 647 64 655 111 l 647 64 q 620 -115 623 -83 l 620 -115 l 597 -108 q 598 -88 597 -103 l 598 -88 l 599 -74 l 600 -60 q 602 -12 602 -24 l 602 -12 q 481 -3 594 -7 l 481 -3 q 300 0 382 0 l 300 0 q 181 -2 267 0 l 181 -2 q 27 -6 92 -4 l 27 -6 q 275 325 64 33 l 275 325 q 510 659 485 614 l 510 659 q 427 657 483 660 l 427 657 q 309 649 367 654 l 309 649 q 136 616 156 635 l 136 616 q 117 555 130 601 l 117 555 l 111 537 l 107 522 q 100 500 102 505 l 100 500 l 77 497 q 100 666 91 558 l 100 666 q 106 745 103 701 l 106 745 l 107 761 l 108 775 q 109 796 109 790 l 109 796 l 132 791 q 133 767 132 782 l 133 767 l 134 740 q 135 698 134 707 l 135 698 q 260 692 149 695 l 260 692 q 341 690 301 691 l 341 690 q 388 689 378 689 l 388 689 l 433 689 q 516 690 474 690 l 516 690 q 674 694 634 692 l 674 694 q 434 370 631 640 l 434 370 q 196 36 235 95 l 196 36 q 430 46 304 32 l 430 46 q 610 91 574 61 l 610 91 q 633 153 618 102 l 633 153 q 644 193 638 169 l 644 193 l 647 201 l 649 209 q 652 221 651 217 l 652 221 z m 482 917 l 500 893 q 474 868 493 886 l 474 868 q 436 832 463 857 l 436 832 q 374 772 383 782 l 374 772 q 339 802 361 782 l 339 802 q 298 839 323 816 l 298 839 q 237 893 244 887 l 237 893 l 256 917 q 275 905 259 915 l 275 905 q 311 884 292 895 l 311 884 q 376 851 362 856 l 376 851 q 434 884 392 858 l 434 884 q 463 904 449 894 l 463 904 q 482 917 477 913 l 482 917 z"},"á":{"ha":712,"x_min":-55,"x_max":757,"o":"m 422 -4 l 427 17 q 528 31 490 22 l 528 31 q 519 57 525 39 l 519 57 l 516 66 l 513 75 l 506 95 q 475 186 488 149 l 475 186 q 423 324 433 306 l 423 324 q 308 320 391 324 l 308 320 q 192 311 217 315 l 192 311 q 180 272 190 305 l 180 272 q 159 195 169 236 l 159 195 q 122 31 129 81 l 122 31 q 164 23 139 26 l 164 23 q 208 17 181 20 l 208 17 l 212 -4 q 136 -1 190 -3 l 136 -1 q 61 0 85 0 l 61 0 q 2 -1 40 0 l 2 -1 q -55 -4 -39 -3 l -55 -4 l -52 17 q 34 31 -9 21 l 34 31 q 167 360 57 71 l 167 360 q 243 563 202 453 l 243 563 q 270 634 257 600 l 270 634 q 278 657 274 647 l 278 657 q 283 670 281 665 l 283 670 q 244 678 269 674 l 244 678 l 223 681 l 204 683 l 203 704 q 273 701 223 703 l 273 701 q 333 700 317 700 l 333 700 q 423 701 367 700 l 423 701 q 504 704 483 703 l 504 704 l 501 683 q 425 670 454 678 l 425 670 q 468 540 433 640 l 468 540 q 530 364 497 454 l 530 364 q 542 331 536 347 l 542 331 q 557 292 549 311 l 557 292 q 591 202 575 243 l 591 202 q 666 31 636 88 l 666 31 q 754 17 697 25 l 754 17 l 757 -4 q 689 -1 748 -3 l 689 -1 q 591 0 634 0 l 591 0 q 506 -1 565 0 l 506 -1 q 422 -4 440 -3 l 422 -4 z m 416 354 q 393 421 409 375 l 393 421 q 379 463 388 436 l 379 463 l 363 508 q 314 653 324 621 l 314 653 l 312 653 q 284 574 302 624 l 284 574 l 267 529 l 251 485 q 206 358 211 376 l 206 358 l 416 354 z m 497 926 l 535 849 q 421 812 521 850 l 421 812 q 350 784 385 799 l 350 784 q 311 768 318 771 l 311 768 l 299 800 q 390 856 306 801 l 390 856 q 454 897 422 876 l 454 897 q 497 926 484 917 l 497 926 z"},"â":{"ha":712,"x_min":-55,"x_max":757,"o":"m 422 -4 l 427 17 q 528 31 490 22 l 528 31 q 519 57 525 39 l 519 57 l 516 66 l 513 75 l 506 95 q 475 186 488 149 l 475 186 q 423 324 433 306 l 423 324 q 308 320 391 324 l 308 320 q 192 311 217 315 l 192 311 q 180 272 190 305 l 180 272 q 159 195 169 236 l 159 195 q 122 31 129 81 l 122 31 q 164 23 139 26 l 164 23 q 208 17 181 20 l 208 17 l 212 -4 q 136 -1 190 -3 l 136 -1 q 61 0 85 0 l 61 0 q 2 -1 40 0 l 2 -1 q -55 -4 -39 -3 l -55 -4 l -52 17 q 34 31 -9 21 l 34 31 q 167 360 57 71 l 167 360 q 243 563 202 453 l 243 563 q 270 634 257 600 l 270 634 q 278 657 274 647 l 278 657 q 283 670 281 665 l 283 670 q 244 678 269 674 l 244 678 l 223 681 l 204 683 l 203 704 q 273 701 223 703 l 273 701 q 333 700 317 700 l 333 700 q 423 701 367 700 l 423 701 q 504 704 483 703 l 504 704 l 501 683 q 425 670 454 678 l 425 670 q 468 540 433 640 l 468 540 q 530 364 497 454 l 530 364 q 542 331 536 347 l 542 331 q 557 292 549 311 l 557 292 q 591 202 575 243 l 591 202 q 666 31 636 88 l 666 31 q 754 17 697 25 l 754 17 l 757 -4 q 689 -1 748 -3 l 689 -1 q 591 0 634 0 l 591 0 q 506 -1 565 0 l 506 -1 q 422 -4 440 -3 l 422 -4 z m 416 354 q 393 421 409 375 l 393 421 q 379 463 388 436 l 379 463 l 363 508 q 314 653 324 621 l 314 653 l 312 653 q 284 574 302 624 l 284 574 l 267 529 l 251 485 q 206 358 211 376 l 206 358 l 416 354 z m 243 772 l 224 795 q 290 856 244 812 l 290 856 q 351 917 339 903 l 351 917 l 359 910 l 367 902 q 386 885 378 893 l 386 885 q 427 849 410 865 l 427 849 q 488 796 476 806 l 488 796 l 469 772 q 449 783 466 774 l 449 783 l 441 788 l 432 793 l 413 803 q 349 838 362 831 l 349 838 q 292 805 332 831 l 292 805 q 243 772 256 782 l 243 772 z"},"ä":{"ha":712,"x_min":-55,"x_max":757,"o":"m 422 -4 l 427 17 q 528 31 490 22 l 528 31 q 519 57 525 39 l 519 57 l 516 66 l 513 75 l 506 95 q 475 186 488 149 l 475 186 q 423 324 433 306 l 423 324 q 308 320 391 324 l 308 320 q 192 311 217 315 l 192 311 q 180 272 190 305 l 180 272 q 159 195 169 236 l 159 195 q 122 31 129 81 l 122 31 q 164 23 139 26 l 164 23 q 208 17 181 20 l 208 17 l 212 -4 q 136 -1 190 -3 l 136 -1 q 61 0 85 0 l 61 0 q 2 -1 40 0 l 2 -1 q -55 -4 -39 -3 l -55 -4 l -52 17 q 34 31 -9 21 l 34 31 q 167 360 57 71 l 167 360 q 243 563 202 453 l 243 563 q 270 634 257 600 l 270 634 q 278 657 274 647 l 278 657 q 283 670 281 665 l 283 670 q 244 678 269 674 l 244 678 l 223 681 l 204 683 l 203 704 q 273 701 223 703 l 273 701 q 333 700 317 700 l 333 700 q 423 701 367 700 l 423 701 q 504 704 483 703 l 504 704 l 501 683 q 425 670 454 678 l 425 670 q 468 540 433 640 l 468 540 q 530 364 497 454 l 530 364 q 542 331 536 347 l 542 331 q 557 292 549 311 l 557 292 q 591 202 575 243 l 591 202 q 666 31 636 88 l 666 31 q 754 17 697 25 l 754 17 l 757 -4 q 689 -1 748 -3 l 689 -1 q 591 0 634 0 l 591 0 q 506 -1 565 0 l 506 -1 q 422 -4 440 -3 l 422 -4 z m 416 354 q 393 421 409 375 l 393 421 q 379 463 388 436 l 379 463 l 363 508 q 314 653 324 621 l 314 653 l 312 653 q 284 574 302 624 l 284 574 l 267 529 l 251 485 q 206 358 211 376 l 206 358 l 416 354 z m 187 819 l 235 897 l 312 845 l 262 768 l 187 819 z m 401 821 l 450 897 l 526 845 l 475 769 l 401 821 z"},"à":{"ha":712,"x_min":-55,"x_max":757,"o":"m 422 -4 l 427 17 q 528 31 490 22 l 528 31 q 519 57 525 39 l 519 57 l 516 66 l 513 75 l 506 95 q 475 186 488 149 l 475 186 q 423 324 433 306 l 423 324 q 308 320 391 324 l 308 320 q 192 311 217 315 l 192 311 q 180 272 190 305 l 180 272 q 159 195 169 236 l 159 195 q 122 31 129 81 l 122 31 q 164 23 139 26 l 164 23 q 208 17 181 20 l 208 17 l 212 -4 q 136 -1 190 -3 l 136 -1 q 61 0 85 0 l 61 0 q 2 -1 40 0 l 2 -1 q -55 -4 -39 -3 l -55 -4 l -52 17 q 34 31 -9 21 l 34 31 q 167 360 57 71 l 167 360 q 243 563 202 453 l 243 563 q 270 634 257 600 l 270 634 q 278 657 274 647 l 278 657 q 283 670 281 665 l 283 670 q 244 678 269 674 l 244 678 l 223 681 l 204 683 l 203 704 q 273 701 223 703 l 273 701 q 333 700 317 700 l 333 700 q 423 701 367 700 l 423 701 q 504 704 483 703 l 504 704 l 501 683 q 425 670 454 678 l 425 670 q 468 540 433 640 l 468 540 q 530 364 497 454 l 530 364 q 542 331 536 347 l 542 331 q 557 292 549 311 l 557 292 q 591 202 575 243 l 591 202 q 666 31 636 88 l 666 31 q 754 17 697 25 l 754 17 l 757 -4 q 689 -1 748 -3 l 689 -1 q 591 0 634 0 l 591 0 q 506 -1 565 0 l 506 -1 q 422 -4 440 -3 l 422 -4 z m 416 354 q 393 421 409 375 l 393 421 q 379 463 388 436 l 379 463 l 363 508 q 314 653 324 621 l 314 653 l 312 653 q 284 574 302 624 l 284 574 l 267 529 l 251 485 q 206 358 211 376 l 206 358 l 416 354 z m 178 849 l 217 926 q 260 897 230 917 l 260 897 q 324 856 292 876 l 324 856 q 415 800 408 801 l 415 800 l 403 768 q 364 784 395 772 l 364 784 q 292 812 328 799 l 292 812 q 178 849 192 850 l 178 849 z"},"å":{"ha":712,"x_min":-55,"x_max":757,"o":"m 422 -4 l 427 17 q 528 31 490 22 l 528 31 q 519 57 525 39 l 519 57 l 516 66 l 513 75 l 506 95 q 475 186 488 149 l 475 186 q 423 324 433 306 l 423 324 q 308 320 391 324 l 308 320 q 192 311 217 315 l 192 311 q 180 272 190 305 l 180 272 q 159 195 169 236 l 159 195 q 122 31 129 81 l 122 31 q 164 23 139 26 l 164 23 q 208 17 181 20 l 208 17 l 212 -4 q 136 -1 190 -3 l 136 -1 q 61 0 85 0 l 61 0 q 2 -1 40 0 l 2 -1 q -55 -4 -39 -3 l -55 -4 l -52 17 q 34 31 -9 21 l 34 31 q 167 360 57 71 l 167 360 q 243 563 202 453 l 243 563 q 270 634 257 600 l 270 634 q 278 657 274 647 l 278 657 q 283 670 281 665 l 283 670 q 244 678 269 674 l 244 678 l 223 681 l 204 683 l 203 704 q 273 701 223 703 l 273 701 q 333 700 317 700 l 333 700 q 423 701 367 700 l 423 701 q 504 704 483 703 l 504 704 l 501 683 q 425 670 454 678 l 425 670 q 468 540 433 640 l 468 540 q 530 364 497 454 l 530 364 q 542 331 536 347 l 542 331 q 557 292 549 311 l 557 292 q 591 202 575 243 l 591 202 q 666 31 636 88 l 666 31 q 754 17 697 25 l 754 17 l 757 -4 q 689 -1 748 -3 l 689 -1 q 591 0 634 0 l 591 0 q 506 -1 565 0 l 506 -1 q 422 -4 440 -3 l 422 -4 z m 416 354 q 393 421 409 375 l 393 421 q 379 463 388 436 l 379 463 l 363 508 q 314 653 324 621 l 314 653 l 312 653 q 284 574 302 624 l 284 574 l 267 529 l 251 485 q 206 358 211 376 l 206 358 l 416 354 z m 342 773 q 271 790 298 773 l 271 790 q 241 838 241 808 l 241 838 q 281 901 241 874 l 281 901 q 362 927 318 927 l 362 927 q 472 863 472 927 l 472 863 q 438 804 472 831 l 438 804 q 342 773 400 773 l 342 773 z m 297 855 q 318 809 297 828 l 318 809 q 360 793 337 793 l 360 793 q 397 808 382 793 l 397 808 q 413 846 413 823 l 413 846 q 398 887 413 869 l 398 887 q 353 907 380 907 l 353 907 q 316 893 333 907 l 316 893 q 297 855 297 877 l 297 855 z"},"ã":{"ha":712,"x_min":-55,"x_max":757,"o":"m 422 -4 l 427 17 q 528 31 490 22 l 528 31 q 519 57 525 39 l 519 57 l 516 66 l 513 75 l 506 95 q 475 186 488 149 l 475 186 q 423 324 433 306 l 423 324 q 308 320 391 324 l 308 320 q 192 311 217 315 l 192 311 q 180 272 190 305 l 180 272 q 159 195 169 236 l 159 195 q 122 31 129 81 l 122 31 q 164 23 139 26 l 164 23 q 208 17 181 20 l 208 17 l 212 -4 q 136 -1 190 -3 l 136 -1 q 61 0 85 0 l 61 0 q 2 -1 40 0 l 2 -1 q -55 -4 -39 -3 l -55 -4 l -52 17 q 34 31 -9 21 l 34 31 q 167 360 57 71 l 167 360 q 243 563 202 453 l 243 563 q 270 634 257 600 l 270 634 q 278 657 274 647 l 278 657 q 283 670 281 665 l 283 670 q 244 678 269 674 l 244 678 l 223 681 l 204 683 l 203 704 q 273 701 223 703 l 273 701 q 333 700 317 700 l 333 700 q 423 701 367 700 l 423 701 q 504 704 483 703 l 504 704 l 501 683 q 425 670 454 678 l 425 670 q 468 540 433 640 l 468 540 q 530 364 497 454 l 530 364 q 542 331 536 347 l 542 331 q 557 292 549 311 l 557 292 q 591 202 575 243 l 591 202 q 666 31 636 88 l 666 31 q 754 17 697 25 l 754 17 l 757 -4 q 689 -1 748 -3 l 689 -1 q 591 0 634 0 l 591 0 q 506 -1 565 0 l 506 -1 q 422 -4 440 -3 l 422 -4 z m 416 354 q 393 421 409 375 l 393 421 q 379 463 388 436 l 379 463 l 363 508 q 314 653 324 621 l 314 653 l 312 653 q 284 574 302 624 l 284 574 l 267 529 l 251 485 q 206 358 211 376 l 206 358 l 416 354 z m 488 872 l 516 866 q 486 813 507 839 l 486 813 q 438 781 460 781 l 438 781 q 402 788 424 781 l 402 788 q 362 803 386 793 l 362 803 q 284 826 305 826 l 284 826 q 255 820 267 826 l 255 820 q 225 790 238 812 l 225 790 l 197 796 q 209 821 201 807 l 209 821 q 228 852 217 838 l 228 852 q 274 888 254 888 l 274 888 q 345 866 289 888 l 345 866 l 367 857 l 389 849 q 434 841 415 841 l 434 841 l 445 841 q 459 844 453 842 l 459 844 q 488 872 476 851 l 488 872 z"},"ç":{"ha":809,"x_min":55,"x_max":784,"o":"m 456 -15 l 405 -76 q 494 -157 494 -102 l 494 -157 q 429 -239 494 -209 l 429 -239 q 306 -261 372 -264 l 306 -261 l 315 -229 q 391 -212 363 -230 l 391 -212 q 416 -169 416 -196 l 416 -169 q 338 -97 416 -118 l 338 -97 l 408 -11 q 262 28 321 -1 l 262 28 q 110 157 165 76 l 110 157 q 55 334 55 238 l 55 334 q 213 633 55 527 l 213 633 q 511 716 336 716 l 511 716 q 638 706 569 716 l 638 706 q 688 697 664 702 l 688 697 q 720 690 708 693 l 720 690 q 732 735 724 698 l 732 735 l 735 749 l 737 762 q 741 779 740 776 l 741 779 l 764 784 q 742 475 744 635 l 742 475 l 719 482 q 717 524 719 497 l 717 524 q 713 565 715 553 l 713 565 q 634 640 696 604 l 634 640 q 472 681 560 681 l 472 681 q 255 596 339 681 l 255 596 q 175 393 175 514 l 175 393 q 282 140 175 245 l 282 140 q 547 33 390 33 l 547 33 q 784 87 693 33 l 784 87 l 770 44 q 738 27 760 36 l 738 27 q 680 7 713 16 l 680 7 q 489 -16 593 -16 l 489 -16 l 475 -16 q 456 -15 465 -16 l 456 -15 z"},"é":{"ha":637,"x_min":48,"x_max":569,"o":"m 163 343 l 163 389 q 161 551 163 463 l 161 551 q 156 669 159 647 l 156 669 q 106 676 144 672 l 106 676 q 76 680 94 678 l 76 680 l 63 682 q 52 683 56 683 l 52 683 l 48 704 q 138 701 72 703 l 138 701 l 186 701 q 226 700 216 700 l 226 700 l 282 700 q 375 701 333 700 l 375 701 q 520 707 503 703 l 520 707 q 528 754 525 727 l 528 754 l 551 758 q 540 658 548 744 l 540 658 q 534 593 537 626 l 534 593 q 531 551 532 564 l 531 551 l 509 558 l 509 589 q 509 630 510 618 l 509 630 q 410 662 497 649 l 410 662 q 339 670 376 667 l 339 670 q 284 672 306 672 l 284 672 q 279 556 282 662 l 279 556 q 277 406 277 457 l 277 406 l 277 386 q 484 402 441 386 l 484 402 q 494 445 491 422 l 494 445 l 515 447 q 503 359 514 438 l 503 359 q 495 300 497 319 l 495 300 q 489 260 491 271 l 489 260 l 470 268 q 472 335 472 310 l 472 335 q 277 357 429 357 l 277 357 l 277 337 q 279 171 277 285 l 279 171 q 284 29 282 49 l 284 29 q 524 63 464 29 l 524 63 q 537 112 530 83 l 537 112 l 539 123 l 542 133 q 546 151 544 144 l 546 151 l 569 157 q 551 49 564 135 l 551 49 q 536 -74 539 -37 l 536 -74 l 515 -70 q 514 -9 515 -25 l 514 -9 q 370 -3 495 -6 l 370 -3 q 200 0 262 0 l 200 0 q 126 -1 174 0 l 126 -1 q 48 -4 77 -3 l 48 -4 l 53 17 q 72 19 60 17 l 72 19 q 100 22 86 20 l 100 22 q 156 31 138 26 l 156 31 q 161 153 159 44 l 161 153 q 163 343 163 252 l 163 343 z m 459 926 l 497 849 q 383 812 483 850 l 383 812 q 312 784 347 799 l 312 784 q 273 768 280 771 l 273 768 l 261 800 q 352 856 268 801 l 352 856 q 416 897 384 876 l 416 897 q 459 926 446 917 l 459 926 z"},"ê":{"ha":637,"x_min":48,"x_max":569,"o":"m 163 343 l 163 389 q 161 551 163 463 l 161 551 q 156 669 159 647 l 156 669 q 106 676 144 672 l 106 676 q 76 680 94 678 l 76 680 l 63 682 q 52 683 56 683 l 52 683 l 48 704 q 138 701 72 703 l 138 701 l 186 701 q 226 700 216 700 l 226 700 l 282 700 q 375 701 333 700 l 375 701 q 520 707 503 703 l 520 707 q 528 754 525 727 l 528 754 l 551 758 q 540 658 548 744 l 540 658 q 534 593 537 626 l 534 593 q 531 551 532 564 l 531 551 l 509 558 l 509 589 q 509 630 510 618 l 509 630 q 410 662 497 649 l 410 662 q 339 670 376 667 l 339 670 q 284 672 306 672 l 284 672 q 279 556 282 662 l 279 556 q 277 406 277 457 l 277 406 l 277 386 q 484 402 441 386 l 484 402 q 494 445 491 422 l 494 445 l 515 447 q 503 359 514 438 l 503 359 q 495 300 497 319 l 495 300 q 489 260 491 271 l 489 260 l 470 268 q 472 335 472 310 l 472 335 q 277 357 429 357 l 277 357 l 277 337 q 279 171 277 285 l 279 171 q 284 29 282 49 l 284 29 q 524 63 464 29 l 524 63 q 537 112 530 83 l 537 112 l 539 123 l 542 133 q 546 151 544 144 l 546 151 l 569 157 q 551 49 564 135 l 551 49 q 536 -74 539 -37 l 536 -74 l 515 -70 q 514 -9 515 -25 l 514 -9 q 370 -3 495 -6 l 370 -3 q 200 0 262 0 l 200 0 q 126 -1 174 0 l 126 -1 q 48 -4 77 -3 l 48 -4 l 53 17 q 72 19 60 17 l 72 19 q 100 22 86 20 l 100 22 q 156 31 138 26 l 156 31 q 161 153 159 44 l 161 153 q 163 343 163 252 l 163 343 z m 205 772 l 186 795 q 252 856 206 812 l 252 856 q 313 917 301 903 l 313 917 l 321 910 l 329 902 q 348 885 340 893 l 348 885 q 389 849 372 865 l 389 849 q 450 796 438 806 l 450 796 l 431 772 q 411 783 428 774 l 411 783 l 403 788 l 394 793 l 375 803 q 311 838 324 831 l 311 838 q 254 805 294 831 l 254 805 q 205 772 218 782 l 205 772 z"},"ë":{"ha":637,"x_min":48,"x_max":569,"o":"m 163 343 l 163 389 q 161 551 163 463 l 161 551 q 156 669 159 647 l 156 669 q 106 676 144 672 l 106 676 q 76 680 94 678 l 76 680 l 63 682 q 52 683 56 683 l 52 683 l 48 704 q 138 701 72 703 l 138 701 l 186 701 q 226 700 216 700 l 226 700 l 282 700 q 375 701 333 700 l 375 701 q 520 707 503 703 l 520 707 q 528 754 525 727 l 528 754 l 551 758 q 540 658 548 744 l 540 658 q 534 593 537 626 l 534 593 q 531 551 532 564 l 531 551 l 509 558 l 509 589 q 509 630 510 618 l 509 630 q 410 662 497 649 l 410 662 q 339 670 376 667 l 339 670 q 284 672 306 672 l 284 672 q 279 556 282 662 l 279 556 q 277 406 277 457 l 277 406 l 277 386 q 484 402 441 386 l 484 402 q 494 445 491 422 l 494 445 l 515 447 q 503 359 514 438 l 503 359 q 495 300 497 319 l 495 300 q 489 260 491 271 l 489 260 l 470 268 q 472 335 472 310 l 472 335 q 277 357 429 357 l 277 357 l 277 337 q 279 171 277 285 l 279 171 q 284 29 282 49 l 284 29 q 524 63 464 29 l 524 63 q 537 112 530 83 l 537 112 l 539 123 l 542 133 q 546 151 544 144 l 546 151 l 569 157 q 551 49 564 135 l 551 49 q 536 -74 539 -37 l 536 -74 l 515 -70 q 514 -9 515 -25 l 514 -9 q 370 -3 495 -6 l 370 -3 q 200 0 262 0 l 200 0 q 126 -1 174 0 l 126 -1 q 48 -4 77 -3 l 48 -4 l 53 17 q 72 19 60 17 l 72 19 q 100 22 86 20 l 100 22 q 156 31 138 26 l 156 31 q 161 153 159 44 l 161 153 q 163 343 163 252 l 163 343 z m 149 819 l 197 897 l 274 845 l 224 768 l 149 819 z m 363 821 l 412 897 l 488 845 l 437 769 l 363 821 z"},"è":{"ha":637,"x_min":48,"x_max":569,"o":"m 163 343 l 163 389 q 161 551 163 463 l 161 551 q 156 669 159 647 l 156 669 q 106 676 144 672 l 106 676 q 76 680 94 678 l 76 680 l 63 682 q 52 683 56 683 l 52 683 l 48 704 q 138 701 72 703 l 138 701 l 186 701 q 226 700 216 700 l 226 700 l 282 700 q 375 701 333 700 l 375 701 q 520 707 503 703 l 520 707 q 528 754 525 727 l 528 754 l 551 758 q 540 658 548 744 l 540 658 q 534 593 537 626 l 534 593 q 531 551 532 564 l 531 551 l 509 558 l 509 589 q 509 630 510 618 l 509 630 q 410 662 497 649 l 410 662 q 339 670 376 667 l 339 670 q 284 672 306 672 l 284 672 q 279 556 282 662 l 279 556 q 277 406 277 457 l 277 406 l 277 386 q 484 402 441 386 l 484 402 q 494 445 491 422 l 494 445 l 515 447 q 503 359 514 438 l 503 359 q 495 300 497 319 l 495 300 q 489 260 491 271 l 489 260 l 470 268 q 472 335 472 310 l 472 335 q 277 357 429 357 l 277 357 l 277 337 q 279 171 277 285 l 279 171 q 284 29 282 49 l 284 29 q 524 63 464 29 l 524 63 q 537 112 530 83 l 537 112 l 539 123 l 542 133 q 546 151 544 144 l 546 151 l 569 157 q 551 49 564 135 l 551 49 q 536 -74 539 -37 l 536 -74 l 515 -70 q 514 -9 515 -25 l 514 -9 q 370 -3 495 -6 l 370 -3 q 200 0 262 0 l 200 0 q 126 -1 174 0 l 126 -1 q 48 -4 77 -3 l 48 -4 l 53 17 q 72 19 60 17 l 72 19 q 100 22 86 20 l 100 22 q 156 31 138 26 l 156 31 q 161 153 159 44 l 161 153 q 163 343 163 252 l 163 343 z m 170 849 l 209 926 q 252 897 222 917 l 252 897 q 316 856 284 876 l 316 856 q 407 800 400 801 l 407 800 l 395 768 q 356 784 387 772 l 356 784 q 284 812 320 799 l 284 812 q 170 849 184 850 l 170 849 z"},"í":{"ha":440,"x_min":48,"x_max":399,"o":"m 277 410 l 277 348 q 278 148 277 229 l 278 148 q 282 31 279 45 l 282 31 q 336 23 298 27 l 336 23 q 366 19 350 21 l 366 19 l 378 18 l 383 17 l 387 17 l 392 -4 q 313 -1 376 -3 l 313 -1 q 204 0 252 0 l 204 0 q 125 -1 176 0 l 125 -1 q 48 -4 69 -3 l 48 -4 l 52 17 q 104 23 65 18 l 104 23 q 158 31 142 28 l 158 31 q 162 173 161 59 l 162 173 q 163 270 163 217 l 163 270 l 163 464 q 162 542 162 505 l 162 542 q 158 669 161 647 l 158 669 q 105 677 145 672 l 105 677 q 75 681 90 679 l 75 681 q 53 683 61 682 l 53 683 l 48 704 q 121 701 62 702 l 121 701 q 238 700 179 700 l 238 700 q 328 701 278 700 l 328 701 q 392 704 380 703 l 392 704 l 387 683 q 341 677 378 682 l 341 677 l 311 673 q 282 669 294 670 l 282 669 q 277 410 277 644 l 277 410 z m 361 926 l 399 849 q 285 812 385 850 l 285 812 q 214 784 249 799 l 214 784 q 175 768 182 771 l 175 768 l 163 800 q 254 856 170 801 l 254 856 q 318 897 286 876 l 318 897 q 361 926 348 917 l 361 926 z"},"î":{"ha":440,"x_min":48,"x_max":392,"o":"m 277 410 l 277 348 q 278 148 277 229 l 278 148 q 282 31 279 45 l 282 31 q 336 23 298 27 l 336 23 q 366 19 350 21 l 366 19 l 378 18 l 383 17 l 387 17 l 392 -4 q 313 -1 376 -3 l 313 -1 q 204 0 252 0 l 204 0 q 125 -1 176 0 l 125 -1 q 48 -4 69 -3 l 48 -4 l 52 17 q 104 23 65 18 l 104 23 q 158 31 142 28 l 158 31 q 162 173 161 59 l 162 173 q 163 270 163 217 l 163 270 l 163 464 q 162 542 162 505 l 162 542 q 158 669 161 647 l 158 669 q 105 677 145 672 l 105 677 q 75 681 90 679 l 75 681 q 53 683 61 682 l 53 683 l 48 704 q 121 701 62 702 l 121 701 q 238 700 179 700 l 238 700 q 328 701 278 700 l 328 701 q 392 704 380 703 l 392 704 l 387 683 q 341 677 378 682 l 341 677 l 311 673 q 282 669 294 670 l 282 669 q 277 410 277 644 l 277 410 z m 107 772 l 88 795 q 154 856 108 812 l 154 856 q 215 917 203 903 l 215 917 l 223 910 l 231 902 q 250 885 242 893 l 250 885 q 291 849 274 865 l 291 849 q 352 796 340 806 l 352 796 l 333 772 q 313 783 330 774 l 313 783 l 305 788 l 296 793 l 277 803 q 213 838 226 831 l 213 838 q 156 805 196 831 l 156 805 q 107 772 120 782 l 107 772 z"}}}
